<?xml version="1.0" encoding="UTF-8" standalone="no"?>
<svg
   version="1.0"
   width="600pt"
   height="900pt"
   viewBox="0 0 600 900"
   preserveAspectRatio="xMidYMid"
   id="svg196"
   sodipodi:docname="femme_dos_svg.svg"
   inkscape:export-filename="femme_TestD.svg"
   inkscape:export-xdpi="96"
   inkscape:export-ydpi="96"
   xmlns:inkscape="http://www.inkscape.org/namespaces/inkscape"
   xmlns:sodipodi="http://sodipodi.sourceforge.net/DTD/sodipodi-0.dtd"
   xmlns="http://www.w3.org/2000/svg"
   xmlns:svg="http://www.w3.org/2000/svg">
  <defs
     id="defs196" />
  <sodipodi:namedview
     id="namedview196"
     pagecolor="#ffffff"
     bordercolor="#000000"
     borderopacity="0.25"
     inkscape:showpageshadow="2"
     inkscape:pageopacity="0.0"
     inkscape:pagecheckerboard="0"
     inkscape:deskcolor="#d1d1d1"
     inkscape:document-units="pt">
    <inkscape:page
       x="0"
       y="0"
       width="600"
       height="900"
       id="page2"
       margin="0"
       bleed="0" />
  </sodipodi:namedview>
  <g
     transform="matrix(0.1,0,0,-0.1,0,900)"
     fill="#000000"
     stroke="none"
     id="g196">
    <path
       d="m 2306.4793,5262.218 c 0,0 -67.4793,-146.2141 -86.4793,-358.2141 -22,-235 9,-455.0088 135,-984.0088 59,-245 106.0059,-473 126.0059,-615 19,-134 16.9902,-403 -5.0098,-600 -21,-189 -18.002,-384.9961 7.998,-555.9961 8,-52 54.6095,-237.7623 91.0108,-415.0049 144.3905,-703.0563 137.5284,-757.28068 88.0918,-882.57628 l 290.9901,-61.76594 -27.08,95.34812 -1.0107,409.9951 c -1,297 4.0029,492.0098 18.0029,710.0098 21,332 17.9951,518.9902 -10.0049,729.9902 -18,137 -15.997,205 18.003,795 13,228 17.0097,1002.9981 5.0097,1072.9981 -8,44 -10.0039,46.0058 -29.0039,36.0058 -14,-7 -50.0019,-10.0058 -97.0019,-6.0058 -172,12 -350.003,99.0068 -498.003,242.0068 -57,55 -93.0029,97.9951 -93.0029,109.9951 0,15 14.0049,4.999 55.0049,-41.001 99,-112 253.0068,-212.9882 392.0068,-257.9882 70,-23 176.9883,-33.0127 242.9883,-23.0127 59,10 60.0049,10.0107 190.0049,1.0107 49,-3 110.0049,-1.0088 145.0049,5.9912 145,28 311.9883,124.001 437.9883,251.001 43,44 77.0068,72.0029 77.0068,63.0029 0,-23 -124.9971,-149 -191.9971,-195 -170,-116 -405.0058,-186 -501.0058,-150 l -24.9903,10.0049 -7.0019,-137.0068 c -10,-183 0.999,-831.9971 18.999,-1106.9971 29,-435 29.002,-524.998 7.002,-697.998 -26,-195 -27.0098,-402.9961 -5.0098,-720.9961 11,-142 17.0029,-363.0059 18.0029,-576.0059 1,-455 -1.7949,-498.708 -29.7949,-610.708 l 290.0244,52.00195 c -28,61 -29.2236,67.71093 -29.2236,223.71095 1,176 -4.0098,147 129.9902,705 110,456 125.999,661 78.999,1005 -12,90 -15.0009,162.9902 -11.0009,294.9902 8,249 29.0019,367.0069 172.0019,977.0069 93,398 99.0049,440.9931 100.0049,702.9931 0,325 -75.9571,487.7643 -75.9571,487.7643 -58.6291,36.4054 -1376.9979,32.1236 -1412.5636,14.4586 z"
       id="path99"
       sodipodi:nodetypes="ccccccscccccccccccsccccccscccccccccccccccccc" />
    <path
       id="path98"
       d="M 2790 7800.9961 L 2798.9941 7777.998 C 2831.9941 7689.998 2816.998 7571.0039 2767.998 7514.0039 C 2714.998 7454.0039 2646.0068 7425.0049 2477.0068 7390.0049 C 2333.0068 7360.0049 2271.5518 7335.9443 2210.5518 7277.9443 C 2210.151 7277.5635 2341.4063 6887.8711 2341.4063 6887.8711 C 2355.4063 6902.8711 2368.9951 6866.0029 2389.9951 6738.0029 C 2401.9951 6659.0029 2427 6543 2445 6480 C 2463 6417 2483 6341.9932 2490 6312.9932 L 2501.9971 6262.002 L 2617.998 6252.9932 C 2767.998 6242.9932 3319.001 6241.9932 3431.001 6252.9932 L 3516.0059 6262.002 L 3559.9951 6417.9932 C 3582.9951 6503.9932 3607.001 6601.0029 3611.001 6633.0029 C 3624.001 6718.0029 3658.9951 6879.8311 3664.9951 6886.8311 C 3664.9951 6886.8491 3879.9316 7173.7939 3879.9316 7173.7939 C 3855.9316 7238.7939 3790.999 7306.0068 3723.999 7337.0068 C 3695.999 7350.0068 3627.999 7369.9961 3573.999 7380.9961 C 3371.999 7423.9961 3268.999 7473.0039 3228.999 7544.0039 C 3209.999 7577.0039 3206.001 7600.0049 3206.001 7660.0049 C 3206.001 7701.0049 3209.0029 7747.998 3213.0029 7762.998 L 3221.001 7791.0059 L 3191.9971 7776.0059 C 3167.9971 7764.0059 3155.9941 7743.0029 3128.9941 7668.0029 C 3081.9941 7539.0029 3082.9971 7446.9932 3131.9971 7377.9932 C 3167.9971 7327.9932 3087.9951 7355.0059 3019.9951 7416.0059 C 2963.9951 7467.0059 2915.9932 7551.0039 2877.9932 7664.0039 C 2853.9932 7739.0039 2839.9932 7766.001 2817.9932 7781.001 L 2790 7800.9961 z M 2664.2725 7428.8379 C 2671.1072 7429.0151 2687.3184 7416.2559 2721.0059 7386.0059 C 2800.0059 7315.0059 2911.001 7271.0049 3011.001 7270.0049 C 3102.001 7270.0049 3230.9951 7323.001 3304.9951 7391.001 C 3360.9951 7443.001 3372.0068 7425.998 3317.0068 7372.998 C 3149.0068 7211.998 2878.0049 7208.9961 2710.0049 7365.9961 C 2683.0049 7390.9961 2659.9951 7417.001 2659.9951 7421.001 C 2659.9951 7426.001 2661.1658 7428.7573 2664.2725 7428.8379 z M 3512.373 6246.3721 L 3469.3652 6235.3711 C 3439.3652 6227.3711 3292.3711 6224.3701 3025.3711 6224.3701 C 2782.3711 6224.3701 2602.3623 6228.3711 2566.3623 6235.3711 L 2508.3691 6245.376 L 2513.3643 6199.3799 C 2517.3643 6174.3799 2526.3662 6102.375 2535.3662 6039.375 C 2543.3662 5976.375 2550.3662 5905.373 2550.3662 5882.373 C 2550.3662 5816.373 2410.5361 5491.002 2319.5361 5302.002 C 2375.3649 5285.6611 3697.2148 5279.9952 3695.874 5304.4189 C 3643.874 5412.4189 3511.3613 5711.3779 3500.3613 5742.3779 C 3464.3613 5847.3779 3464.3633 5874.3711 3507.3633 6205.3711 L 3512.373 6246.3721 z " />
    <path
       id="path3"
       d="M 3019.9951 8796.0059 C 2889.9951 8799.0059 2846.0049 8789.0049 2770.0049 8740.0049 C 2692.0049 8690.0049 2631.9941 8601.9951 2603.9941 8494.9951 C 2564.9941 8349.9951 2609.001 8083 2696.001 7935 C 2721.001 7892 2821.0029 7789.9951 2838.0029 7789.9951 C 2843.0029 7789.9951 2841.0039 7811.9941 2834.0039 7838.9941 C 2788.0039 8016.9941 2818.9951 8236.9951 2899.9951 8314.9951 C 2953.9951 8366.9951 3056.002 8366.0029 3112.002 8313.0029 C 3155.002 8273.0029 3175.9961 8225 3195.9961 8130 C 3213.9961 8040 3210.9951 7945.0029 3184.9951 7848.0029 C 3177.9951 7819.0029 3173.0049 7793.0059 3175.0049 7791.0059 C 3185.0049 7782.0059 3263.9932 7852.0049 3297.9932 7900.0049 C 3348.9932 7972.0049 3383.999 8061.9971 3408.999 8186.9971 C 3466.999 8467.9971 3391.9951 8672.999 3199.9951 8763.999 C 3139.9951 8791.999 3124.9951 8794.0059 3019.9951 8796.0059 z M 2983.5645 8326.3477 C 2957.3145 8325.1289 2946.2549 8318.0039 2920.0049 8294.0039 C 2870.0049 8248.0039 2848.998 8188.9971 2842.998 8066.9971 C 2829.998 7831.9971 2914.0059 7555.9941 3036.0059 7433.9941 C 3067.0059 7403.9941 3094.0059 7380.0029 3096.0059 7383.0029 C 3098.0059 7385.0029 3091.998 7402.001 3082.998 7421.001 C 3052.998 7479.001 3060.999 7558.9951 3108.999 7684.9951 C 3165.999 7837.9951 3183.9971 7930.9941 3176.9971 8048.9941 C 3170.9971 8161.9941 3149 8237.002 3105 8287.002 C 3076 8320.002 3068.9961 8323.9961 3015.9961 8325.9961 C 3002.7461 8326.4961 2992.3145 8326.7539 2983.5645 8326.3477 z M 2558.9941 8280 C 2543.9941 8280 2528.9961 8202 2535.9961 8160 C 2542.9961 8118 2595.0059 8028.9932 2616.0059 8022.9932 C 2623.0059 8020.9932 2617.9941 8051 2603.9941 8100 C 2590.9941 8144 2577.9941 8202.0049 2573.9941 8230.0049 C 2569.9941 8257.0049 2563.9941 8280 2558.9941 8280 z M 3457.251 8273.0713 C 3451.5173 8273.0675 3447.7295 8256.1084 3439.9951 8208.999 C 3432.9951 8167.999 3419.9951 8108.998 3409.9951 8077.998 C 3391.9951 8017.998 3395.0068 8006.9932 3422.0068 8037.9932 C 3463.0068 8083.9932 3483.9961 8148.9961 3480.9961 8220.9961 C 3479.9961 8234.9961 3473.9961 8255 3465.9961 8265 C 3462.4336 8270.0469 3459.6719 8273.0729 3457.251 8273.0713 z " />
    <path
       d="m 2065,6000 c -7,-12 35,-30 70,-30 23,0 80,39 58,40 -6,0 -15,-4 -18,-10 -8,-13 -61,-13 -85,0 -13,7 -21,7 -25,0 z"
       id="path22" />
    <path
       d="m 3810,6006 c 0,-10 59,-36 83,-36 14,0 35,9 48,21 21,18 21,20 4,13 -25,-10 -83,-10 -112,1 -13,4 -23,5 -23,1 z"
       id="path23" />
    <path
       d="m 4300,4751 c 0,-18 81,-243 92,-255 16,-19 7,17 -32,132 -38,109 -60,154 -60,123 z"
       id="path26" />
    <path
       d="m 2826,2993 c -4,-5 -44,-10 -89,-13 l -82,-5 51,-12 c 56,-13 112,-4 134,22 12,15 0,22 -14,8 z"
       id="path31" />
    <path
       d="m 3190,2982 c 0,-21 104,-30 145,-12 14,6 3,9 -40,9 -33,1 -70,4 -82,7 -13,4 -23,2 -23,-4 z"
       id="path32" />
    <path
       d="m 2210.5385,7277.9122 c -80,-76 -97.998,-136.0117 -127.998,-447.0117 -47,-473 -74.9961,-672.998 -105.9961,-757.998 -77,-207 -97.0098,-279.9922 -155.0098,-571.9922 -43,-211 -68.9873,-323.0049 -81.9873,-340.0049 -10,-14 -40.0019,-38.9971 -67.0019,-56.9971 -77,-51 -122.0049,-101.0039 -160.0049,-179.0039 -20,-40 -48.9951,-92.001 -64.9951,-116.001 -24,-36 -27.0078,-43.996 -13.0078,-45.996 8,-2 26.997,5 41.997,15 27,21 84.9991,92.0048 93.9991,115.0048 2,7 7.0009,9.9873 11.0009,6.9873 3,-3 -6.998,-42.0009 -22.998,-86.0009 -59,-159 -77.9912,-275.9981 -50.9912,-307.9981 19,-23 27.9951,-17.9971 34.9951,18.0029 7,34 75.0059,248.9961 81.0059,255.9961 2,2 6.9902,2.0079 9.9902,-1.9921 3,-3 -15.001,-68.9971 -41.001,-146.9971 -43,-127 -45.9922,-143.002 -31.9922,-157.002 23,-23 54.003,-8 63.003,30 11,54 85.9951,247.002 94.9951,247.002 5,0 8.9941,-1.0029 8.9941,-3.0029 0,-6 -81.9961,-222.004 -90.9961,-239.004 -13,-25 19.999,-33.0009 48.999,-11.0009 16,12 36.9991,54.998 63.9991,127.998 43,116 44.998,120.9981 52.998,112.9981 3,-3 -10.9961,-47.9971 -30.9961,-101.9971 -37,-96 -38.0058,-119.9902 -6.0058,-99.9902 27,17 57.0097,66.998 95.0097,157.998 39,92 61.9922,185.999 76.9922,318.999 8,68 21.0088,110.9951 54.0088,184.9951 24,53 76.001,169.0069 116.001,257.0069 105,233 135.9902,330.9951 174.9902,559.9951 19,110 46,260.9951 60,334.9951 44,232 45.0029,249.0088 18.0029,399.0088 -13,73 -21.999,136.0029 -18.999,138.0029"
       id="path1" />
    <path
       d="m 3664.8821,6886.7946 c 18,17 15.9981,-22.0058 -7.0019,-141.0058 -30,-152 -29.9971,-151.002 33.0029,-472.002 16,-83 38.9951,-207.9941 49.9951,-278.9941 38,-236 64.0088,-307.9961 294.0088,-810.9961 24,-50 40.9922,-107.0098 46.9922,-155.0098 28,-199 76.0078,-358.0019 133.0078,-442.0019 23,-34 51.9961,-55.9922 60.9961,-46.9922 3,3 -10.0039,48.997 -29.0039,101.997 -18,54 -30.001,97.002 -26.001,97.002 12,0 76.0117,-175.0068 72.0117,-197.0068 -3,-15 45.9903,-52.9981 69.9903,-52.9981 10,0 32.999,-6.9961 48.999,-15.9961 17,-8 38.0107,-13.0049 46.0107,-10.0049 20,8 13.9942,40.0069 -36.0058,197.0069 -21,65 -34.9961,120.999 -30.9961,123.999 10,6 53.999,-112.9951 78.999,-214.9951 20,-80 33.002,-94.0039 52.002,-59.0039 18,35 4.9941,125 -36.0059,240 -53,148 -54.001,164.9931 -11.001,102.9931 40,-59 80.0069,-93.999 107.0069,-93.999 25,0 23.998,10.0059 -7.002,51.0059 -15,19 -39.0088,60.999 -54.0088,93.999 -39,83 -81.0019,132.9951 -157.0019,184.9951 -36,25 -73.9903,56.0049 -84.9903,70.0049 -12,17 -35.997,114 -71.997,300 -65,332 -84,405.0049 -135,535.0049 -22,55 -46.0049,133.9902 -55.0049,174.9902 -14,70 -50.9961,377.0049 -75.9961,640.0049 -17,169 -40.0108,307.9951 -61.0108,364.9951"
       id="path1-6" />
    <path
       id="path1-8"
       d="M 2663.1152 851.42578 C 2652.3742 831.36631 2632.972 790.11514 2568.1055 731.74805 C 2531.1055 695.74805 2500.1074 658.75684 2500.1074 650.75684 C 2500.1074 618.75684 2555.1064 597.74512 2774.1064 548.74512 C 2958.1064 506.74514 3013.1064 580.75586 2954.1064 789.75586 L 2663.1152 851.42578 z M 3354.1846 851.33789 L 3064.1895 799.33594 C 3021.1895 632.33594 3036.1875 562.33691 3117.1875 540.33691 C 3161.1875 528.33691 3260.1953 540.33391 3340.1953 567.33398 C 3370.1953 578.33398 3416.1924 589.33496 3442.1924 593.33496 C 3499.1924 602.33496 3526.1836 630.33984 3508.1836 663.33984 C 3502.1836 675.33984 3471.1855 707.34766 3440.1855 736.34766 C 3401.1855 772.34766 3374.1846 807.33789 3354.1846 851.33789 z " />
  </g>
</svg>
