<?xml version="1.0" standalone="no"?>
<!DOCTYPE svg PUBLIC "-//W3C//DTD SVG 20010904//EN"
 "http://www.w3.org/TR/2001/REC-SVG-20010904/DTD/svg10.dtd">
<svg version="1.0" xmlns="http://www.w3.org/2000/svg"
 width="200.000000pt" height="600.000000pt" viewBox="0 0 200.000000 600.000000"
 preserveAspectRatio="xMidYMid meet">
<g transform="translate(0.000000,600.000000) scale(0.100000,-0.100000)"
fill="#000000" stroke="none">
<path d="M0 4488 l1 -1513 25 50 c15 28 46 71 70 96 43 44 45 48 53 130 5 46
12 129 16 184 8 136 12 155 52 265 31 85 36 111 44 245 5 83 15 179 23 215 9
36 16 106 16 155 0 97 15 144 65 210 25 32 131 95 161 95 11 0 158 56 282 107
7 3 12 23 12 49 0 44 -8 61 -75 153 -25 34 -35 113 -16 125 4 3 10 41 13 83 7
114 48 181 138 229 52 28 181 26 235 -3 87 -46 135 -123 135 -215 0 -33 6 -62
16 -77 27 -37 15 -124 -23 -164 -51 -55 -64 -84 -61 -134 l3 -46 135 -53 c74
-29 154 -58 177 -64 57 -14 121 -65 157 -124 27 -43 31 -59 37 -160 3 -61 14
-140 24 -176 10 -39 20 -129 25 -225 7 -141 11 -171 38 -248 28 -79 47 -184
51 -272 1 -16 6 -77 11 -134 l10 -104 46 -49 c25 -27 59 -77 74 -111 l29 -62
1 1528 0 1527 -1000 0 -1000 0 0 -1512z"/>
<path d="M930 5351 c-114 -37 -168 -118 -158 -238 3 -36 1 -54 -8 -57 -36 -14
-20 -106 24 -138 37 -27 62 -87 62 -147 l0 -59 -47 -20 c-100 -42 -260 -102
-298 -111 -61 -16 -120 -64 -149 -123 -22 -45 -26 -65 -26 -144 0 -51 -7 -123
-16 -161 -9 -37 -19 -131 -24 -208 -7 -127 -11 -152 -48 -260 -39 -113 -42
-130 -52 -295 -14 -224 -18 -239 -69 -285 -40 -36 -111 -164 -111 -200 0 -22
24 -29 51 -15 20 11 21 10 14 -6 -4 -11 -10 -40 -12 -66 -5 -41 -2 -50 22 -72
35 -32 91 -35 128 -6 14 11 29 20 35 20 35 0 92 159 103 290 8 97 20 141 83
310 43 116 62 202 75 342 9 88 47 306 55 316 9 9 70 -252 77 -333 10 -105 4
-281 -12 -352 -21 -100 -39 -251 -50 -423 -9 -156 -9 -210 5 -345 9 -88 23
-189 30 -225 63 -286 64 -293 45 -519 -12 -148 -2 -295 31 -453 11 -51 33
-158 50 -237 43 -205 39 -246 -27 -302 -16 -13 -36 -35 -46 -49 -45 -65 -3
-90 153 -89 105 1 114 2 136 24 23 23 24 29 18 117 -3 51 -9 140 -14 198 -9
103 -6 173 20 441 9 87 9 150 0 260 -21 262 -22 352 -6 589 9 129 17 325 17
435 l2 200 15 -360 c17 -395 19 -614 7 -895 -5 -128 -4 -238 5 -356 10 -129
11 -224 3 -380 -13 -282 -17 -275 165 -271 96 3 126 7 139 19 24 25 8 65 -47
119 -76 74 -76 68 6 424 l48 210 -1 185 c0 102 -2 253 -4 335 -4 143 -2 156
28 275 44 174 53 232 60 410 7 199 -10 412 -49 610 -29 147 -30 163 -25 320 5
152 9 174 41 278 20 63 36 122 36 133 0 10 5 19 10 19 6 0 10 -17 10 -37 0
-21 7 -67 16 -103 8 -36 21 -124 29 -196 16 -155 27 -197 100 -410 46 -134 55
-173 55 -230 0 -75 31 -204 61 -253 10 -17 30 -36 43 -41 13 -5 27 -13 30 -19
4 -6 23 -15 43 -20 27 -8 42 -7 64 5 49 25 57 62 33 152 -6 21 -5 22 20 11 20
-9 29 -10 38 -1 19 19 -39 149 -90 202 -24 25 -48 50 -53 56 -5 7 -16 95 -24
197 -16 203 -22 237 -61 347 -22 64 -28 100 -35 240 -4 91 -13 181 -19 200 -7
19 -15 91 -20 160 -6 97 -12 135 -28 167 -29 56 -93 108 -150 123 -45 11 -213
74 -299 112 -40 17 -41 20 -45 69 -3 57 19 106 74 165 37 40 48 97 22 125 -13
14 -18 38 -20 82 -2 98 -40 164 -116 203 -36 19 -140 28 -178 15z m191 -56
c22 -14 46 -43 59 -70 20 -41 22 -57 17 -125 -10 -125 -35 -217 -69 -256 -44
-50 -82 -67 -139 -62 -88 9 -145 73 -167 188 -35 175 -34 218 6 281 27 44 54
60 122 74 66 14 119 4 171 -30z m-331 -284 c0 -16 5 -42 10 -58 l10 -28 -20
24 c-21 24 -28 91 -10 91 6 0 10 -13 10 -29z m439 -24 c-13 -47 -33 -60 -24
-17 12 63 16 74 25 60 4 -7 4 -26 -1 -43z m-284 -222 c49 -21 115 -13 153 20
l29 24 -5 -54 -4 -53 42 -22 c24 -12 81 -37 128 -55 l85 -32 -125 -5 c-110 -3
-131 -7 -180 -31 -30 -15 -62 -27 -71 -27 -10 0 -17 -4 -17 -8 0 -20 15 -20
51 -1 66 33 166 51 288 50 62 -1 125 -4 140 -8 79 -18 152 -83 170 -150 6 -21
11 -75 11 -119 0 -45 8 -116 19 -160 11 -47 21 -137 25 -223 6 -126 10 -155
40 -245 35 -104 39 -133 56 -371 11 -151 16 -165 78 -219 35 -30 99 -152 87
-164 -3 -4 -23 11 -44 33 -21 22 -57 51 -79 64 -22 13 -45 33 -50 45 -11 21
-11 21 -11 0 -1 -27 15 -47 66 -78 46 -28 58 -56 70 -158 4 -41 2 -58 -6 -58
-6 0 -11 8 -11 18 0 10 -7 42 -16 71 -11 37 -19 50 -26 43 -7 -7 -5 -25 6 -58
9 -26 16 -58 16 -72 0 -43 -23 -18 -40 44 -22 82 -28 96 -39 90 -5 -4 0 -35
11 -72 11 -36 17 -68 15 -70 -11 -12 -39 33 -54 87 -9 32 -20 59 -25 59 -12 0
-10 -22 7 -70 16 -45 15 -60 -2 -38 -26 33 -55 150 -63 253 -7 97 -15 128 -63
261 -61 168 -81 250 -97 404 -7 58 -21 150 -32 205 -22 108 -26 183 -13 258
10 63 -9 63 -25 -1 -18 -76 -42 -107 -96 -126 -59 -20 -123 -20 -197 -1 -68
18 -67 17 -67 7 0 -14 43 -30 109 -42 72 -13 162 0 201 29 24 18 24 15 -19
-112 -33 -99 -45 -156 -53 -236 -9 -107 -4 -275 11 -343 10 -44 13 -42 -140
-59 -118 -13 -393 -6 -481 12 l-57 12 7 31 c4 17 7 121 7 231 -1 218 -9 265
-81 460 -7 19 -6 19 12 3 27 -24 110 -41 164 -33 82 11 139 27 152 43 11 14
10 15 -12 8 -105 -30 -212 -32 -267 -5 -48 23 -69 55 -79 118 -4 23 -10 44
-15 46 -14 9 -19 -29 -9 -65 15 -54 12 -96 -19 -262 -16 -84 -32 -189 -36
-233 -9 -112 -26 -180 -85 -335 -43 -112 -54 -151 -60 -230 -8 -95 -33 -200
-64 -274 -19 -47 -30 -44 -16 5 12 41 13 82 2 75 -5 -3 -14 -29 -21 -59 -12
-56 -34 -97 -46 -86 -3 4 1 35 10 69 14 56 14 83 0 68 -3 -3 -14 -35 -24 -72
-21 -74 -27 -84 -41 -70 -7 7 -4 32 10 75 23 74 23 79 10 79 -5 0 -20 -33 -32
-72 -19 -62 -23 -68 -26 -43 -4 32 14 128 29 157 6 10 27 27 48 38 39 19 89
76 77 87 -3 3 -15 -6 -26 -20 -11 -14 -38 -33 -59 -43 -22 -9 -56 -37 -76 -61
-20 -23 -40 -43 -45 -43 -20 0 48 128 92 173 26 26 52 56 57 66 12 22 31 200
31 295 0 89 20 183 56 267 22 53 28 87 36 199 5 74 18 182 28 240 11 58 19
139 18 181 -3 167 89 249 279 249 80 0 101 17 27 22 l-47 3 107 38 c140 51
149 59 147 127 -1 50 0 52 17 37 10 -9 35 -24 57 -32z m-94 -1507 c141 -12
407 0 463 21 30 12 29 15 51 -139 15 -102 35 -340 29 -348 -6 -9 -144 -22
-246 -22 l-118 0 0 88 c0 84 1 89 24 100 14 6 30 20 36 32 14 25 5 26 -27 0
-35 -27 -99 -27 -129 1 -12 11 -24 17 -27 12 -7 -12 2 -25 31 -45 21 -14 24
-24 25 -97 2 -72 0 -80 -18 -85 -28 -8 -262 -7 -309 1 l-38 6 6 113 c6 113 32
344 42 376 4 13 11 15 37 7 18 -5 93 -14 168 -21z m538 -623 c-8 -133 -35
-296 -70 -420 -28 -101 -34 -208 -19 -332 30 -234 15 -399 -65 -718 -36 -146
-45 -257 -24 -298 6 -12 34 -44 61 -70 42 -41 48 -50 37 -63 -11 -14 -14 -13
-20 4 -8 22 -29 39 -29 23 0 -5 5 -13 10 -16 8 -5 7 -11 -1 -21 -19 -23 -37
-16 -44 16 -4 16 -13 30 -21 30 -17 0 -18 -12 -2 -28 10 -10 10 -15 -2 -22
-12 -7 -18 -3 -28 20 -13 33 -37 41 -29 10 7 -27 -14 -41 -52 -34 -49 10 -54
31 -31 136 11 50 20 97 20 102 0 19 -18 -9 -23 -34 -2 -14 -2 36 1 111 3 85
-2 227 -13 375 -17 225 -17 247 -2 384 21 178 21 332 2 555 -8 94 -15 222 -15
286 l0 115 148 2 c81 1 163 5 182 10 19 5 35 8 36 8 1 -1 -3 -59 -7 -131z
m-541 109 c52 4 98 8 104 9 14 3 11 -153 -8 -467 -15 -242 -15 -271 1 -459 16
-179 16 -217 4 -361 -15 -175 -18 -435 -7 -531 5 -40 4 -49 -1 -27 -5 19 -14
39 -20 45 -14 14 -14 17 10 -93 23 -109 20 -136 -17 -143 -45 -8 -66 2 -60 29
9 33 -6 30 -26 -6 -9 -17 -22 -30 -28 -30 -14 0 -13 37 3 43 6 2 9 8 5 12 -10
11 -28 -4 -38 -31 -5 -13 -17 -24 -26 -24 -10 0 -14 5 -10 15 3 8 9 22 13 31
10 26 -20 12 -32 -14 -12 -26 -23 -28 -32 -6 -4 10 11 33 45 67 58 59 77 114
67 186 -7 52 -39 209 -60 291 -46 184 -54 306 -45 685 4 148 2 168 -23 274
-34 137 -67 361 -67 452 l0 65 78 -9 c42 -5 119 -6 170 -3z"/>
<path d="M923 5285 c-18 -8 -33 -15 -33 -17 0 -7 149 -7 180 0 l35 9 -40 11
c-53 16 -103 14 -142 -3z"/>
<path d="M870 5227 c-42 -11 -60 -42 -59 -102 l1 -50 13 48 c23 82 27 85 175
85 149 0 153 -2 175 -90 l13 -53 1 58 c1 49 -3 62 -24 82 -13 14 -30 25 -37
26 -68 5 -234 2 -258 -4z"/>
<path d="M895 5170 c-17 -3 -31 -12 -33 -21 -2 -13 6 -17 37 -17 22 0 53 -8
70 -17 28 -14 34 -14 61 0 16 8 47 15 70 15 41 0 46 5 31 29 -9 14 -175 22
-236 11z"/>
<path d="M875 5102 c-11 -2 -26 -9 -32 -14 -24 -19 -13 -26 22 -15 27 8 45 8
71 -2 36 -13 56 -8 38 8 -13 13 -76 28 -99 23z"/>
<path d="M1032 5084 c-34 -23 -26 -35 13 -18 42 17 87 18 103 2 17 -17 28 -2
12 17 -17 20 -99 20 -128 -1z"/>
<path d="M872 5053 c-7 -2 -17 -14 -23 -24 -8 -16 -7 -20 5 -17 8 2 21 -6 29
-16 17 -24 47 -15 47 14 0 11 5 20 10 20 6 0 10 -4 10 -10 0 -5 8 -10 17 -10
14 0 12 4 -7 25 -22 24 -57 31 -88 18z"/>
<path d="M1049 5041 c-14 -11 -20 -23 -15 -28 5 -4 11 -2 14 5 3 9 8 6 16 -10
15 -30 50 -31 54 0 4 26 10 27 34 5 16 -14 18 -15 18 0 0 22 -38 47 -71 47
-15 0 -37 -9 -50 -19z"/>
<path d="M1000 5028 c0 -20 -71 -78 -96 -78 -9 0 -26 8 -37 18 -19 17 -19 16
-12 -18 17 -81 66 -129 138 -137 70 -8 134 50 152 135 l7 34 -27 -18 c-26 -17
-28 -17 -60 0 -19 10 -41 33 -49 50 -9 18 -16 24 -16 14z m56 -103 c35 -70 25
-85 -55 -85 -88 0 -99 22 -50 94 44 66 70 63 105 -9z"/>
<path d="M980 4935 c0 -21 30 -31 40 -14 11 17 3 29 -21 29 -10 0 -19 -7 -19
-15z"/>
<path d="M940 4880 c0 -6 27 -10 60 -10 33 0 60 4 60 10 0 6 -27 10 -60 10
-33 0 -60 -4 -60 -10z"/>
<path d="M895 4708 c-6 -20 -23 -41 -42 -53 -18 -11 -32 -23 -33 -27 0 -3 17
-9 38 -13 35 -6 62 -19 113 -57 13 -9 25 -7 60 12 24 13 68 30 98 39 l54 17
-42 27 c-28 19 -44 37 -47 56 -6 27 -8 29 -36 19 -29 -10 -108 -7 -138 6 -12
5 -18 -2 -25 -26z"/>
<path d="M736 4592 c-9 -15 1 -18 72 -26 34 -4 81 -14 103 -22 51 -17 54 -17
39 0 -25 31 -200 70 -214 48z"/>
<path d="M635 4540 c-105 -9 -154 -23 -192 -58 -43 -38 -53 -69 -53 -165 0
-45 -7 -111 -16 -147 -8 -36 -21 -141 -29 -235 -11 -147 -17 -180 -43 -245
-38 -96 -52 -163 -52 -253 0 -70 -13 -213 -25 -271 -9 -45 -24 -68 -69 -108
-52 -47 -35 -49 29 -3 37 26 52 32 62 23 33 -27 6 -83 -58 -124 -22 -13 -37
-29 -34 -33 4 -8 45 -8 102 -2 18 2 32 56 42 166 8 82 19 123 60 232 60 157
78 228 91 366 6 56 22 163 36 237 25 128 27 194 9 256 -4 13 1 29 14 45 28 33
51 17 74 -52 9 -29 26 -63 38 -74 16 -16 19 -16 14 -3 -8 21 9 54 36 68 16 9
26 8 46 -5 22 -15 25 -22 20 -56 -6 -46 -6 -46 96 -24 37 8 74 12 82 9 18 -7
29 -40 18 -56 -4 -7 -8 -17 -8 -23 0 -5 -21 -29 -47 -53 -47 -43 -83 -103 -75
-125 2 -7 14 7 25 30 20 39 102 133 116 133 17 0 1 -33 -36 -73 -24 -25 -56
-65 -71 -87 -23 -34 -31 -40 -42 -30 -30 25 -9 104 41 151 13 12 24 26 24 29
0 4 -24 3 -52 -2 -29 -6 -79 -8 -111 -6 -66 5 -63 14 -33 -94 8 -31 19 -69 23
-85 4 -15 8 -125 9 -243 l2 -215 43 -9 c57 -11 405 -13 489 -3 l65 8 0 232 0
232 31 92 31 91 -76 -3 c-42 -2 -94 0 -115 5 l-38 8 25 -26 c60 -64 84 -136
54 -161 -17 -14 -36 1 -65 49 -11 19 -39 53 -61 75 -46 44 -48 51 -25 77 13
13 14 21 5 32 -9 10 -7 19 8 37 17 21 22 22 57 11 22 -6 62 -14 91 -18 l51 -6
-5 40 c-5 35 -2 42 21 57 32 21 50 15 75 -26 l19 -31 15 28 c8 16 17 42 21 59
10 39 24 55 47 55 33 0 44 -42 29 -104 -12 -50 -10 -69 18 -228 17 -95 34
-204 37 -243 9 -104 38 -216 95 -371 45 -121 52 -153 59 -247 4 -59 13 -113
18 -118 14 -14 115 -17 120 -4 1 6 -15 20 -37 33 -22 12 -47 36 -55 53 -29 56
8 98 48 55 25 -26 66 -50 74 -43 2 3 -12 17 -32 33 -64 48 -73 80 -90 303 -13
180 -18 211 -50 305 -31 94 -36 121 -45 273 -5 96 -16 189 -25 217 -9 29 -15
87 -15 140 -1 186 -64 242 -281 245 -114 2 -212 -13 -287 -45 -43 -17 -57 -18
-74 -1 -7 7 -58 21 -113 31 -136 24 -130 23 -220 16z m395 -151 c6 -10 10 -73
10 -141 0 -108 -3 -126 -20 -148 l-20 -25 -20 24 c-18 21 -20 38 -20 154 0
105 3 134 16 148 18 20 40 15 54 -12z m-3 -459 c10 -18 13 -67 11 -177 -3
-132 -5 -155 -21 -170 -18 -17 -19 -17 -38 6 -17 21 -19 40 -19 177 0 158 8
198 40 192 8 -2 20 -14 27 -28z m0 -442 c28 -27 29 -48 3 -76 -26 -28 -35 -28
-65 3 -31 30 -31 42 -3 72 27 29 36 29 65 1z"/>
<path d="M990 4250 c0 -87 4 -140 10 -140 6 0 10 53 10 140 0 87 -4 140 -10
140 -6 0 -10 -53 -10 -140z"/>
<path d="M990 3765 c0 -110 4 -175 10 -175 6 0 10 65 10 175 0 110 -4 175 -10
175 -6 0 -10 -65 -10 -175z"/>
<path d="M974 3466 c-8 -21 3 -36 27 -36 15 0 20 6 17 22 -4 27 -35 37 -44 14z"/>
<path d="M673 4133 c-7 -2 -13 -13 -13 -24 0 -13 7 -19 24 -19 30 0 42 16 26
35 -13 16 -17 17 -37 8z"/>
<path d="M1290 4125 c-9 -11 -10 -19 -3 -26 17 -17 48 -6 48 16 0 25 -28 31
-45 10z"/>
<path d="M1110 3931 c33 -32 62 -70 66 -85 3 -14 10 -26 15 -26 29 0 -19 88
-72 134 -67 57 -73 42 -9 -23z"/>
<path d="M666 3215 c-11 -60 -36 -301 -36 -351 0 -50 1 -52 31 -58 40 -8 217
-8 247 0 19 6 22 13 22 60 0 43 -5 58 -25 80 -29 31 -32 56 -9 75 14 11 21 10
46 -4 39 -22 76 -21 113 3 27 18 31 18 47 3 25 -23 22 -40 -12 -75 -28 -28
-31 -35 -28 -87 l3 -56 134 2 c73 1 140 4 149 8 13 5 14 22 9 118 -7 110 -31
295 -41 304 -2 3 -50 0 -106 -6 -130 -14 -342 -13 -452 3 l-87 12 -5 -31z"/>
<path d="M1178 2713 l-118 -4 0 -87 c0 -48 7 -191 17 -318 l17 -232 42 -6 c23
-3 56 -1 74 4 18 5 36 7 41 5 4 -3 10 9 14 27 4 18 20 90 36 160 37 161 59
304 59 391 l0 67 -32 -2 c-18 -1 -86 -4 -150 -5z"/>
<path d="M1100 2043 c0 -33 97 -46 134 -18 27 20 16 27 -23 14 -31 -11 -58 -9
-93 6 -10 4 -18 3 -18 -2z"/>
<path d="M1247 2003 c-15 -24 -83 -35 -121 -19 l-34 14 -6 -56 c-14 -134 -18
-482 -7 -616 15 -196 18 -477 5 -499 -12 -21 -6 -77 8 -77 5 0 19 12 32 26 19
22 26 25 43 16 14 -8 23 -8 30 -1 8 8 13 7 17 0 4 -6 12 -11 18 -11 6 0 2 10
-9 23 -65 70 -69 151 -17 364 61 256 74 343 74 502 -1 154 -20 354 -33 334z"/>
<path d="M634 2620 c6 -103 21 -196 62 -390 14 -69 28 -136 30 -148 4 -19 7
-22 19 -12 11 9 22 9 46 1 32 -11 108 1 110 17 0 4 2 32 5 62 13 167 24 374
24 460 l0 99 -151 3 -152 3 7 -95z"/>
<path d="M750 2045 c0 -38 115 -48 146 -14 l19 22 -30 -8 c-36 -11 -82 -11
-112 0 -13 4 -23 4 -23 0z"/>
<path d="M730 2018 c-9 -100 -15 -244 -14 -348 1 -145 12 -224 70 -485 45
-202 46 -300 2 -358 -16 -19 -28 -37 -28 -39 0 -6 68 -1 80 7 9 5 21 -1 35
-18 11 -15 26 -27 33 -27 15 0 15 21 -2 90 -13 54 -9 290 12 645 7 120 0 359
-13 455 -6 46 -9 50 -28 43 -38 -14 -87 -7 -117 16 -17 12 -30 20 -30 19z"/>
<path d="M1396 3823 c-12 -46 -19 -120 -23 -233 -4 -150 -2 -177 21 -295 52
-257 69 -550 45 -763 -6 -53 -27 -164 -47 -247 -40 -167 -43 -228 -27 -556 9
-191 1 -259 -67 -543 -22 -93 -40 -196 -40 -227 -1 -55 1 -60 47 -111 74 -82
81 -114 36 -159 l-29 -29 -132 0 c-127 0 -132 1 -156 25 l-25 26 -30 -26 c-26
-21 -42 -25 -97 -26 -178 -4 -214 4 -241 55 -18 34 -3 69 55 129 l44 46 0 75
c0 48 -12 132 -34 233 -71 327 -75 367 -61 718 6 141 4 172 -14 260 -70 327
-81 442 -70 720 8 193 10 209 40 385 15 87 20 158 19 290 0 182 0 185 -20 263
-11 43 -29 64 -31 35 0 -7 -2 -22 -4 -33 -8 -42 -16 -102 -20 -155 -14 -150
-28 -206 -102 -405 -34 -90 -46 -139 -49 -195 -6 -86 -16 -136 -51 -237 -30
-86 -47 -104 -143 -149 -31 -15 -40 -15 -75 -3 -49 17 -85 67 -85 119 0 24 -5
40 -15 44 -13 5 -15 -158 -15 -1424 l0 -1430 1000 0 1000 0 0 1435 0 1435 -25
-12 c-21 -10 -25 -18 -25 -57 0 -26 -7 -56 -16 -69 -23 -33 -71 -55 -108 -48
-45 9 -127 66 -150 104 -31 55 -65 191 -66 264 0 68 -6 91 -79 302 -45 130
-58 179 -66 253 -3 26 -7 71 -10 98 -11 95 -27 185 -34 185 -4 0 -15 -30 -25
-67z"/>
<path d="M994 2045 c0 -66 1 -92 3 -57 2 34 2 88 0 120 -2 31 -3 3 -3 -63z"/>
<path d="M994 1130 c0 -80 2 -112 3 -72 2 39 2 105 0 145 -1 39 -3 7 -3 -73z"/>
</g>
</svg>
