<?xml version="1.0" standalone="no"?>
<!DOCTYPE svg PUBLIC "-//W3C//DTD SVG 20010904//EN"
 "http://www.w3.org/TR/2001/REC-SVG-20010904/DTD/svg10.dtd">
<svg version="1.0" xmlns="http://www.w3.org/2000/svg"
 width="512.000000pt" height="1536.000000pt" viewBox="0 0 512.000000 1536.000000"
 preserveAspectRatio="xMidYMid meet">

<g transform="translate(0.000000,1536.000000) scale(0.100000,-0.100000)"
fill="#000000" stroke="none">
<path d="M2385 13708 c-87 -16 -206 -81 -277 -150 -59 -58 -128 -166 -128
-199 0 -8 15 15 32 51 21 44 54 88 102 135 109 108 224 157 401 168 41 3 38 4
-15 4 -36 0 -87 -3 -115 -9z"/>
<path d="M2598 13713 c12 -2 32 -2 45 0 12 2 2 4 -23 4 -25 0 -35 -2 -22 -4z"/>
<path d="M2723 13691 c31 -10 78 -29 103 -41 26 -11 48 -19 50 -17 8 7 -132
65 -172 72 -32 4 -28 2 19 -14z"/>
<path d="M2416 13644 c-108 -24 -189 -65 -254 -131 -146 -148 -177 -325 -111
-637 27 -129 74 -259 102 -282 22 -19 22 -19 6 1 -26 32 -75 174 -100 286 -19
83 -23 135 -24 259 l0 155 33 68 c87 176 234 267 467 287 l80 7 -65 1 c-36 0
-96 -6 -134 -14z"/>
<path d="M2672 13634 c81 -19 192 -78 249 -131 94 -88 129 -180 139 -368 l7
-130 1 106 c2 127 -9 195 -45 269 -32 65 -107 147 -174 191 -55 35 -172 79
-209 78 -14 0 1 -7 32 -15z"/>
<path d="M2910 13610 c168 -140 227 -285 218 -528 -3 -73 -1 -106 4 -91 15 38
10 231 -6 302 -30 131 -105 249 -194 308 -26 17 -36 21 -22 9z"/>
<path d="M1967 13318 c-4 -13 -9 -51 -11 -83 -5 -53 -4 -51 9 20 13 75 14 113
2 63z"/>
<path d="M1953 13070 c0 -30 2 -43 4 -27 2 15 2 39 0 55 -2 15 -4 2 -4 -28z"/>
<path d="M1961 12984 c0 -11 3 -14 6 -6 3 7 2 16 -1 19 -3 4 -6 -2 -5 -13z"/>
<path d="M3051 12964 c0 -11 3 -14 6 -6 3 7 2 16 -1 19 -3 4 -6 -2 -5 -13z"/>
<path d="M1902 12948 c-6 -7 -13 -27 -17 -43 -6 -27 -5 -26 14 9 21 40 23 57
3 34z"/>
<path d="M3182 12924 c28 -48 22 -147 -15 -227 -27 -59 -111 -152 -127 -142
-6 3 -10 0 -10 -8 0 -8 -21 -55 -47 -104 l-48 -88 -3 -137 c-2 -76 0 -138 5
-138 4 0 8 60 8 133 l0 132 49 95 c34 67 63 108 97 138 96 85 146 249 104 342
-10 22 -22 40 -26 40 -5 0 1 -16 13 -36z"/>
<path d="M3042 12910 c0 -14 2 -19 5 -12 2 6 2 18 0 25 -3 6 -5 1 -5 -13z"/>
<path d="M3110 12910 c0 -5 5 -10 10 -10 6 0 10 5 10 10 0 6 -4 10 -10 10 -5
0 -10 -4 -10 -10z"/>
<path d="M1981 12900 c0 -8 6 -37 14 -65 l15 -50 -7 45 c-6 48 -21 96 -22 70z"/>
<path d="M3096 12841 c-4 -27 -15 -75 -26 -107 -11 -31 -18 -59 -15 -62 2 -3
7 1 9 9 28 88 37 121 42 162 4 26 4 47 2 47 -3 0 -8 -22 -12 -49z"/>
<path d="M3016 12806 c-25 -105 -63 -179 -145 -278 -78 -94 -122 -129 -197
-158 -27 -10 -42 -19 -34 -19 28 -1 115 46 163 89 72 64 165 191 191 262 26
70 51 167 44 173 -2 3 -12 -28 -22 -69z"/>
<path d="M1942 12850 c0 -14 2 -19 5 -12 2 6 2 18 0 25 -3 6 -5 1 -5 -13z"/>
<path d="M3142 12840 c0 -14 2 -19 5 -12 2 6 2 18 0 25 -3 6 -5 1 -5 -13z"/>
<path d="M1881 12820 c-3 -73 57 -182 134 -246 25 -20 45 -41 45 -46 0 -6 18
-51 41 -102 44 -99 47 -108 59 -211 9 -68 9 -68 4 19 -4 80 -9 101 -49 188
-25 53 -45 104 -45 112 0 9 -18 27 -39 40 -66 42 -121 132 -140 229 -6 26 -9
33 -10 17z"/>
<path d="M1951 12804 c0 -11 3 -14 6 -6 3 7 2 16 -1 19 -3 4 -6 -2 -5 -13z"/>
<path d="M3102 12722 c-18 -37 -25 -58 -16 -47 18 22 58 105 52 110 -2 2 -18
-27 -36 -63z"/>
<path d="M2011 12770 c0 -8 4 -24 9 -35 5 -13 9 -14 9 -5 0 8 -4 24 -9 35 -5
13 -9 14 -9 5z"/>
<path d="M1960 12766 c0 -11 30 -66 36 -66 2 0 -3 15 -12 33 -19 36 -24 44
-24 33z"/>
<path d="M2040 12656 c0 -10 9 -29 20 -43 11 -14 20 -24 20 -21 0 2 -9 21 -20
43 -11 22 -20 32 -20 21z"/>
<path d="M3036 12634 c-5 -14 -4 -15 9 -4 17 14 19 20 6 20 -5 0 -12 -7 -15
-16z"/>
<path d="M2187 12545 c12 -16 36 -43 54 -60 25 -22 22 -17 -10 20 -59 67 -68
75 -44 40z"/>
<path d="M2126 12530 c7 -28 46 -91 53 -85 2 3 24 -14 50 -36 78 -69 204 -130
265 -128 12 0 -3 7 -33 15 -126 34 -274 136 -322 223 -14 26 -18 29 -13 11z"/>
<path d="M2942 12510 c-12 -16 -22 -34 -22 -40 0 -6 -7 -22 -16 -36 -35 -53
-55 -221 -35 -292 3 -13 6 25 6 85 0 120 10 159 62 246 38 62 41 86 5 37z"/>
<path d="M2850 12411 c-56 -59 -128 -103 -197 -121 l-38 -10 40 5 c75 9 197
87 235 152 10 18 18 33 17 32 -1 0 -27 -27 -57 -58z"/>
<path d="M2290 12446 c7 -10 27 -24 44 -33 38 -19 32 -12 -19 23 -22 14 -33
19 -25 10z"/>
<path d="M2196 12398 c12 -23 20 -72 25 -153 l7 -120 -2 120 c-2 90 -7 128
-19 153 -10 17 -20 32 -23 32 -2 0 3 -15 12 -32z"/>
<path d="M2370 12396 c0 -2 7 -7 16 -10 8 -3 12 -2 9 4 -6 10 -25 14 -25 6z"/>
<path d="M2435 12365 c17 -8 39 -14 50 -14 11 0 0 7 -25 15 -56 17 -64 17 -25
-1z"/>
<path d="M2538 12343 c18 -2 45 -2 60 0 15 2 0 4 -33 4 -33 0 -45 -2 -27 -4z"/>
<path d="M2543 12273 c15 -2 37 -2 50 0 12 2 0 4 -28 4 -27 0 -38 -2 -22 -4z"/>
<path d="M2871 12094 c0 -11 3 -14 6 -6 3 7 2 16 -1 19 -3 4 -6 -2 -5 -13z"/>
<path d="M2139 12066 c-8 -7 -66 -34 -129 -60 -188 -77 -469 -200 -465 -204 2
-2 95 35 207 83 111 48 246 105 298 127 95 40 118 53 109 63 -3 2 -12 -1 -20
-9z"/>
<path d="M2865 12060 c3 -5 8 -10 11 -10 2 0 4 5 4 10 0 6 -5 10 -11 10 -5 0
-7 -4 -4 -10z"/>
<path d="M2990 12040 c19 -11 40 -19 45 -19 6 0 -6 8 -25 19 -19 11 -39 19
-45 19 -5 0 6 -8 25 -19z"/>
<path d="M2170 11996 c-61 -25 -234 -98 -293 -123 -20 -9 -36 -18 -34 -20 5
-4 201 75 287 116 36 17 70 31 77 31 6 0 15 5 18 10 8 13 9 13 -55 -14z"/>
<path d="M2848 12013 c6 -2 18 -2 25 0 6 3 1 5 -13 5 -14 0 -19 -2 -12 -5z"/>
<path d="M3051 12015 c9 -8 79 -35 79 -30 0 2 -16 12 -36 20 -37 15 -51 19
-43 10z"/>
<path d="M2920 11992 c8 -6 103 -47 210 -92 107 -45 211 -90 230 -100 19 -10
46 -20 60 -24 48 -13 -77 45 -280 130 -113 47 -212 88 -220 91 -13 4 -13 3 0
-5z"/>
<path d="M3238 11935 c30 -14 57 -25 60 -25 13 1 -83 49 -98 49 -8 1 9 -10 38
-24z"/>
<path d="M3365 11880 c33 -16 65 -29 70 -29 6 1 -17 14 -50 29 -33 16 -64 29
-70 29 -5 -1 17 -14 50 -29z"/>
<path d="M1742 11815 c-97 -46 -211 -86 -362 -130 -201 -59 -320 -147 -390
-290 -45 -90 -60 -190 -60 -393 0 -119 -5 -194 -14 -231 -8 -31 -27 -103 -42
-161 -39 -153 -54 -312 -54 -595 0 -137 -5 -283 -10 -323 -5 -40 -34 -148 -64
-240 -31 -92 -62 -199 -70 -239 -15 -72 -39 -322 -51 -528 -8 -140 -42 -482
-56 -559 -16 -90 -41 -129 -130 -202 -44 -37 -96 -88 -116 -113 -38 -49 -146
-267 -158 -316 -10 -45 -1 -29 38 69 68 166 148 279 259 363 90 69 117 130
133 308 3 33 10 92 15 130 5 39 14 140 20 225 6 85 12 178 15 205 2 28 7 91
10 140 14 216 31 303 111 541 57 173 63 224 64 529 0 298 15 434 70 660 37
154 39 168 43 365 6 295 35 381 166 502 79 73 131 99 321 157 175 53 447 164
394 160 -5 0 -42 -16 -82 -34z"/>
<path d="M3470 11836 c28 -17 50 -21 35 -7 -6 5 -21 12 -35 15 l-25 7 25 -15z"/>
<path d="M3520 11817 c0 -3 64 -27 143 -53 180 -60 232 -83 299 -132 82 -60
145 -136 189 -228 53 -110 69 -208 68 -428 0 -169 0 -173 39 -316 68 -247 82
-358 82 -670 0 -231 17 -367 61 -489 84 -235 98 -288 109 -423 10 -124 22
-302 35 -528 12 -210 31 -377 50 -446 13 -44 27 -61 109 -137 69 -64 106 -107
139 -164 75 -127 164 -350 153 -379 -4 -9 -2 -12 5 -8 18 11 4 62 -55 199 -86
199 -136 275 -235 359 -46 39 -90 85 -97 102 -19 45 -41 236 -59 509 -13 214
-21 315 -41 559 -6 76 -26 149 -85 306 -61 165 -69 219 -79 570 -10 349 -18
416 -80 643 -39 146 -40 152 -40 319 0 196 -11 287 -46 378 -46 118 -112 201
-225 286 -59 44 -93 60 -241 109 -95 32 -179 60 -185 63 -7 2 -13 2 -13 -1z"/>
<path d="M1425 11773 c-44 -13 -102 -30 -130 -38 -153 -44 -307 -172 -369
-306 -60 -130 -70 -184 -72 -379 -1 -196 -3 -217 -45 -385 -38 -151 -59 -298
-57 -400 l1 -80 8 106 c10 142 26 247 54 349 39 145 48 219 50 405 1 203 12
260 73 384 47 96 141 193 237 242 39 20 133 55 209 78 77 23 142 44 145 46 9
10 -26 2 -104 -22z"/>
<path d="M3490 11749 c25 -11 74 -29 110 -40 212 -66 301 -111 381 -196 70
-73 100 -126 133 -231 24 -78 26 -96 26 -285 1 -194 2 -206 31 -307 71 -248
79 -309 89 -655 12 -410 12 -410 90 -625 70 -193 78 -244 105 -645 41 -600 52
-696 86 -752 11 -18 55 -61 99 -97 101 -84 120 -109 208 -285 80 -160 88 -157
11 4 -73 153 -117 215 -200 279 -79 62 -113 102 -129 150 -16 51 -46 387 -65
746 -17 316 -31 396 -104 605 -81 229 -78 214 -91 640 -10 323 -23 427 -70
569 -40 124 -50 200 -50 399 0 185 -1 195 -29 274 -38 109 -73 166 -144 237
-68 67 -187 129 -327 169 -47 14 -109 35 -138 46 -67 26 -82 26 -22 0z"/>
<path d="M2757 11032 c2 -75 4 -234 6 -352 3 -180 6 -222 21 -255 26 -56 52
-91 89 -116 30 -21 29 -20 -7 16 -21 21 -51 64 -65 94 l-26 56 -5 342 c-3 188
-7 344 -10 346 -3 3 -4 -56 -3 -131z"/>
<path d="M2346 11113 c-3 -21 -5 -153 -4 -293 l2 -255 6 290 c3 160 4 291 4
293 -1 1 -4 -14 -8 -35z"/>
<path d="M2698 11103 c-9 -76 -8 -419 1 -523 6 -70 8 -7 9 238 0 182 0 332 -2
332 -2 0 -6 -21 -8 -47z"/>
<path d="M2398 10843 c1 -157 5 -283 8 -280 9 9 5 550 -3 558 -5 5 -7 -121 -5
-278z"/>
<path d="M3726 10787 c3 -10 9 -15 12 -12 3 3 0 11 -7 18 -10 9 -11 8 -5 -6z"/>
<path d="M3645 10648 c-15 -62 -49 -178 -76 -258 -26 -79 -47 -146 -45 -147
10 -10 132 375 151 480 15 77 -3 33 -30 -75z"/>
<path d="M1416 10695 c7 -47 98 -339 150 -482 112 -306 163 -522 187 -788 3
-35 4 -33 5 13 5 148 -62 444 -169 742 -54 152 -133 392 -160 490 -12 42 -17
51 -13 25z"/>
<path d="M1341 10684 c0 -11 3 -14 6 -6 3 7 2 16 -1 19 -3 4 -6 -2 -5 -13z"/>
<path d="M3732 10680 c0 -14 2 -19 5 -12 2 6 2 18 0 25 -3 6 -5 1 -5 -13z"/>
<path d="M1351 10644 c0 -11 3 -14 6 -6 3 7 2 16 -1 19 -3 4 -6 -2 -5 -13z"/>
<path d="M3699 10548 c-29 -125 -33 -153 -18 -118 13 32 52 210 46 216 -2 2
-14 -42 -28 -98z"/>
<path d="M1366 10595 c11 -48 25 -76 18 -35 -4 19 -10 42 -15 50 -6 10 -7 5
-3 -15z"/>
<path d="M2316 10484 c-17 -72 -58 -143 -105 -182 -14 -11 -13 -12 6 -2 48 23
106 126 118 213 11 71 1 57 -19 -29z"/>
<path d="M2392 10520 c0 -19 2 -27 5 -17 2 9 2 25 0 35 -3 9 -5 1 -5 -18z"/>
<path d="M1395 10500 c15 -78 16 -106 6 -186 -6 -49 -20 -127 -31 -174 -57
-253 -96 -483 -130 -778 -17 -144 -37 -290 -45 -325 -14 -60 -19 -105 -11 -96
11 11 38 175 61 374 34 292 59 451 107 680 69 334 78 416 52 490 -7 22 -11 29
-9 15z"/>
<path d="M2380 10462 c0 -27 -46 -115 -74 -141 -13 -13 -41 -29 -63 -36 -21
-8 -30 -14 -19 -15 35 0 97 44 126 91 31 52 54 119 39 119 -5 0 -9 -8 -9 -18z"/>
<path d="M2719 10432 c11 -29 27 -64 36 -78 22 -34 94 -84 119 -83 14 1 11 4
-12 10 -46 14 -106 77 -127 135 -10 27 -22 54 -27 59 -5 6 0 -14 11 -43z"/>
<path d="M3660 10384 c0 -35 39 -226 82 -399 11 -44 24 -105 29 -135 5 -30 13
-77 19 -105 28 -136 42 -235 55 -395 15 -186 34 -334 42 -326 3 3 0 40 -6 83
-6 43 -18 157 -26 253 -13 152 -33 288 -74 498 -6 29 -26 119 -45 200 -19 81
-42 187 -50 236 -13 76 -26 121 -26 90z"/>
<path d="M1471 10283 c-1 -12 4 -25 9 -28 12 -7 12 2 0 30 -8 19 -9 19 -9 -2z"/>
<path d="M3612 10260 c0 -14 2 -19 5 -12 2 6 2 18 0 25 -3 6 -5 1 -5 -13z"/>
<path d="M1491 10234 c-1 -6 26 -99 59 -205 61 -195 104 -383 116 -494 3 -33
7 -73 10 -90 2 -16 7 -124 10 -240 7 -234 -8 -414 -52 -630 -106 -524 -141
-912 -131 -1475 9 -512 49 -820 177 -1355 34 -144 66 -307 77 -395 13 -109 9
-365 -11 -575 -25 -264 -26 -674 -2 -865 15 -129 46 -302 86 -495 19 -88 67
-335 76 -385 3 -14 7 -31 9 -38 3 -8 17 -63 30 -124 62 -268 79 -449 51 -535
-20 -60 -71 -122 -136 -166 -110 -75 -160 -133 -160 -188 0 -96 50 -130 250
-169 249 -48 424 -51 500 -9 24 13 46 31 48 39 3 9 -5 6 -20 -8 -60 -55 -178
-64 -396 -32 -294 43 -372 80 -372 175 0 53 36 97 149 180 99 72 121 99 146
174 15 46 17 74 12 170 -6 109 -20 188 -92 511 -14 63 -30 138 -35 167 -5 28
-22 116 -39 195 -36 170 -66 333 -81 443 -6 44 -13 91 -15 105 -13 90 -17 201
-17 409 0 218 4 298 32 591 26 283 8 464 -85 851 -117 488 -163 843 -172 1340
-10 542 24 918 132 1464 47 240 59 383 52 648 -10 358 -42 528 -178 937 -15
47 -28 80 -28 74z"/>
<path d="M1448 10149 c-9 -46 -29 -140 -43 -209 -46 -220 -66 -349 -90 -586
-35 -339 -71 -494 -195 -846 -148 -416 -171 -503 -171 -648 0 -112 -14 -214
-45 -336 -14 -54 -33 -131 -43 -170 -10 -39 -32 -101 -49 -138 -17 -37 -26
-64 -21 -60 17 10 58 109 74 178 8 33 22 84 30 111 37 117 57 238 65 390 5 89
16 191 26 229 16 62 84 267 182 546 90 253 128 444 167 820 17 163 50 370 85
530 36 165 52 250 48 261 -2 6 -11 -27 -20 -72z"/>
<path d="M3472 10118 c-112 -308 -142 -517 -142 -1000 0 -253 9 -405 31 -501
18 -77 19 -49 3 43 -21 119 -30 572 -15 797 19 279 52 444 136 667 20 54 35
100 32 102 -2 2 -22 -46 -45 -108z"/>
<path d="M3621 10199 c1 -19 5 -45 9 -59 6 -16 7 -6 3 30 -7 63 -13 80 -12 29z"/>
<path d="M3541 10088 c-93 -254 -120 -410 -126 -708 l-3 -205 8 190 c13 302
48 492 131 719 22 60 38 111 35 113 -2 2 -22 -47 -45 -109z"/>
<path d="M744 10020 c0 -85 2 -120 3 -77 2 42 2 112 0 155 -1 42 -3 7 -3 -78z"/>
<path d="M3641 10105 c-1 -14 38 -196 45 -206 2 -4 11 -49 19 -101 8 -51 24
-143 35 -205 10 -61 24 -169 30 -240 15 -199 22 -264 27 -259 10 10 -37 482
-58 576 -6 25 -19 94 -29 155 -18 101 -68 304 -69 280z"/>
<path d="M738 9765 c-5 -84 -15 -127 -62 -270 -31 -93 -63 -198 -71 -232 -13
-54 -41 -356 -60 -628 -3 -49 -10 -124 -15 -165 -5 -41 -12 -109 -15 -150 -9
-115 -24 -209 -36 -233 -7 -12 -62 -71 -123 -132 -101 -100 -116 -120 -168
-222 -32 -62 -58 -118 -58 -125 0 -7 23 32 52 87 69 136 113 200 166 243 117
95 138 119 150 174 20 93 50 385 72 713 26 369 39 447 109 642 53 149 73 244
69 328 -3 69 -3 68 -10 -30z"/>
<path d="M2523 9815 c0 -27 2 -38 4 -22 2 15 2 37 0 50 -2 12 -4 0 -4 -28z"/>
<path d="M2575 9360 c0 -253 3 -451 7 -438 3 13 6 210 6 438 0 228 -3 425 -6
438 -4 13 -7 -184 -7 -438z"/>
<path d="M2512 9700 c0 -14 2 -19 5 -12 2 6 2 18 0 25 -3 6 -5 1 -5 -13z"/>
<path d="M2514 9585 c0 -49 1 -71 3 -48 2 23 2 64 0 90 -2 26 -3 8 -3 -42z"/>
<path d="M2510 9427 c0 -37 4 -67 9 -67 8 0 3 119 -5 129 -2 2 -4 -26 -4 -62z"/>
<path d="M1764 9120 c0 -170 1 -217 5 -140 3 63 3 178 0 255 -4 109 -5 84 -5
-115z"/>
<path d="M2511 9285 c0 -27 3 -56 8 -63 5 -8 6 8 4 40 -6 73 -11 83 -12 23z"/>
<path d="M3974 9296 c11 -9 27 -16 35 -15 14 0 14 1 1 6 -8 3 -24 10 -35 15
-20 9 -20 9 -1 -6z"/>
<path d="M1097 9284 c-3 -4 -44 -10 -89 -15 l-83 -8 80 3 c44 1 89 8 100 14
11 6 15 12 9 12 -6 0 -14 -3 -17 -6z"/>
<path d="M1129 9254 c-48 -52 -126 -68 -196 -39 -49 21 -55 18 -13 -5 70 -38
169 -20 218 41 29 36 24 38 -9 3z"/>
<path d="M4130 9270 l-75 -6 70 -1 c39 -1 79 2 90 7 11 5 13 8 5 7 -8 0 -49
-3 -90 -7z"/>
<path d="M3970 9246 c50 -58 140 -72 217 -35 24 11 43 25 43 29 0 5 -19 -2
-42 -15 -71 -41 -152 -32 -213 23 l-30 27 25 -29z"/>
<path d="M2524 9045 c0 -71 1 -99 3 -62 2 37 2 96 0 130 -2 34 -3 4 -3 -68z"/>
<path d="M3400 9104 c0 -105 19 -383 29 -434 5 -25 22 -110 39 -190 16 -80 38
-196 48 -258 10 -63 20 -108 22 -102 6 17 -25 203 -70 410 -35 166 -40 208
-49 410 -10 220 -19 301 -19 164z"/>
<path d="M3801 9062 c-2 -47 62 -274 151 -527 105 -302 145 -422 159 -485 6
-25 17 -133 24 -240 14 -198 29 -276 90 -476 14 -47 38 -111 52 -141 29 -60
82 -123 104 -122 8 0 5 5 -6 10 -27 13 -79 91 -104 157 -29 73 -87 274 -104
363 -9 41 -18 137 -22 214 -11 222 -15 239 -192 750 -69 199 -131 410 -146
495 -4 24 -4 24 -6 2z"/>
<path d="M3891 9000 c0 -8 6 -37 13 -65 8 -27 15 -43 15 -35 0 8 -6 38 -13 65
-8 28 -15 43 -15 35z"/>
<path d="M1162 8893 c-7 -21 -23 -76 -36 -123 -13 -47 -49 -155 -81 -240 -107
-292 -170 -512 -162 -567 4 -26 4 -26 6 5 3 78 67 289 174 577 47 125 121 374
114 381 -2 2 -9 -13 -15 -33z"/>
<path d="M3920 8872 c0 -6 43 -134 95 -284 156 -447 164 -471 176 -523 6 -27
15 -133 20 -235 6 -128 14 -207 28 -255 41 -150 71 -248 77 -254 4 -3 4 3 1
14 -3 11 -21 79 -41 150 -44 158 -56 230 -56 360 0 106 -19 240 -43 315 -9 25
-29 83 -45 130 -112 315 -147 415 -173 494 -28 87 -39 111 -39 88z"/>
<path d="M1745 8788 c-5 -50 -23 -161 -49 -295 0 -5 10 -9 24 -10 14 -1 18 0
8 3 -22 7 -22 10 1 119 19 91 37 245 28 245 -3 0 -8 -28 -12 -62z"/>
<path d="M3384 8523 c0 -24 4 -43 9 -43 9 0 8 27 -3 60 -6 20 -8 17 -6 -17z"/>
<path d="M1768 8473 c6 -2 18 -2 25 0 6 3 1 5 -13 5 -14 0 -19 -2 -12 -5z"/>
<path d="M3265 8470 l-30 -8 30 0 c17 0 44 4 60 8 l30 8 -30 0 c-16 0 -43 -4
-60 -8z"/>
<path d="M1840 8460 c44 -11 229 -30 279 -29 20 1 -18 7 -84 14 -246 26 -233
25 -195 15z"/>
<path d="M3045 8445 c-66 -7 -149 -14 -185 -15 -36 -2 -54 -5 -40 -7 27 -6
297 14 370 27 40 7 41 7 10 7 -19 0 -89 -6 -155 -12z"/>
<path d="M2198 8423 c23 -2 61 -2 85 0 23 2 4 4 -43 4 -47 0 -66 -2 -42 -4z"/>
<path d="M1661 8308 c-48 -260 -78 -616 -78 -923 l0 -210 7 240 c9 282 23 466
51 683 18 142 46 302 54 310 1 2 40 -4 85 -12 45 -9 92 -16 104 -15 21 1 -155
38 -185 38 -13 1 -21 -22 -38 -111z"/>
<path d="M2463 8413 c53 -2 141 -2 195 0 53 1 9 3 -98 3 -107 0 -151 -2 -97
-3z"/>
<path d="M3360 8411 c0 -4 11 -6 25 -3 14 2 25 6 25 8 0 2 -11 4 -25 4 -14 0
-25 -4 -25 -9z"/>
<path d="M3245 8394 c-153 -28 -338 -38 -675 -39 -190 0 -401 3 -470 7 -111 6
-117 5 -55 -4 119 -19 883 -15 1055 5 142 16 250 35 250 43 0 6 -25 3 -105
-12z"/>
<path d="M3411 8399 c-1 -3 8 -53 19 -112 37 -206 80 -691 80 -921 0 -66 5
-128 10 -136 31 -48 -23 714 -72 1010 -17 106 -35 180 -37 159z"/>
<path d="M1923 8373 c9 -2 25 -2 35 0 9 3 1 5 -18 5 -19 0 -27 -2 -17 -5z"/>
<path d="M3541 8090 c0 -8 5 -78 13 -155 66 -644 35 -1306 -89 -1870 -144
-659 -166 -821 -145 -1085 19 -230 37 -409 38 -365 1 22 -3 85 -8 140 -44 466
-40 512 90 1135 91 438 107 533 136 830 19 191 25 740 11 950 -15 221 -42 470
-46 420z"/>
<path d="M868 7815 c-9 -154 -39 -308 -92 -480 -14 -43 -23 -81 -21 -83 5 -6
60 178 84 283 26 115 43 263 39 340 -2 45 -5 31 -10 -60z"/>
<path d="M300 7575 c-46 -78 -107 -132 -135 -121 -8 3 -15 1 -15 -4 0 -17 36
-11 71 13 19 12 48 45 66 72 17 28 40 65 52 83 11 17 17 32 13 32 -4 0 -28
-34 -52 -75z"/>
<path d="M4745 7610 c53 -85 87 -131 92 -126 3 3 -8 22 -24 43 -17 21 -37 52
-46 69 -9 17 -23 37 -33 45 -10 8 -6 -4 11 -31z"/>
<path d="M4681 7629 c-1 -18 30 -112 35 -107 2 2 -5 31 -16 63 -10 33 -19 53
-19 44z"/>
<path d="M362 7537 c-35 -135 -82 -367 -82 -400 0 -29 28 -93 37 -84 3 3 -2
16 -11 29 -28 39 -24 63 56 406 35 151 35 188 0 49z"/>
<path d="M97 7522 c-15 -37 -27 -74 -27 -83 0 -19 47 -65 57 -56 3 4 1 7 -5 7
-6 0 -19 11 -28 25 -15 23 -14 29 10 96 33 92 28 101 -7 11z"/>
<path d="M2567 7545 c10 -84 25 -110 84 -139 30 -14 70 -28 89 -31 19 -4 4 5
-35 18 -77 28 -111 61 -121 117 -10 63 -24 90 -17 35z"/>
<path d="M2511 7564 c0 -11 3 -14 6 -6 3 7 2 16 -1 19 -3 4 -6 -2 -5 -13z"/>
<path d="M2498 7514 c-15 -71 -86 -118 -223 -147 -38 -9 -59 -16 -45 -16 37
-1 138 26 190 52 47 23 95 91 88 124 -3 12 -6 7 -10 -13z"/>
<path d="M4721 7510 c0 -3 6 -27 14 -55 8 -30 14 -40 14 -25 0 20 -26 97 -28
80z"/>
<path d="M1678 7463 c6 -2 18 -2 25 0 6 3 1 5 -13 5 -14 0 -19 -2 -12 -5z"/>
<path d="M3316 7424 c-49 -24 -84 -44 -77 -44 16 0 160 70 167 81 7 12 11 14
-90 -37z"/>
<path d="M1756 7429 c6 -11 64 -42 69 -37 2 2 -14 13 -36 25 -21 12 -37 17
-33 12z"/>
<path d="M3411 7416 c-32 -34 -129 -84 -209 -108 -86 -25 -274 -35 -368 -19
-38 7 -80 14 -94 16 -14 3 -5 -2 20 -11 28 -10 97 -18 187 -21 125 -5 150 -3
225 17 108 29 176 61 229 110 24 21 41 39 38 40 -3 0 -16 -11 -28 -24z"/>
<path d="M4817 7388 c3 -18 12 -50 20 -73 9 -26 11 -30 8 -10 -3 17 -8 49 -12
73 -3 23 -9 42 -14 42 -5 0 -6 -14 -2 -32z"/>
<path d="M225 7395 c-16 -8 -43 -15 -60 -16 -20 -1 -24 -3 -11 -6 21 -6 104
15 112 28 7 12 -5 10 -41 -6z"/>
<path d="M430 7400 c-9 -6 -10 -10 -3 -10 6 0 15 5 18 10 8 12 4 12 -15 0z"/>
<path d="M730 7362 l5 -47 3 39 c2 21 0 42 -5 47 -4 4 -6 -13 -3 -39z"/>
<path d="M1690 7407 c0 -14 47 -55 86 -75 163 -83 474 -84 649 -2 53 25 30 26
-26 1 -120 -53 -348 -67 -497 -31 -97 23 -135 41 -179 83 -18 17 -33 28 -33
24z"/>
<path d="M4620 7395 c-6 -8 -10 -19 -8 -24 1 -6 8 1 15 14 13 28 11 31 -7 10z"/>
<path d="M2522 7043 c0 -197 2 -349 4 -338 6 39 10 695 4 695 -4 0 -7 -161 -8
-357z"/>
<path d="M4396 7380 c4 -14 14 -45 21 -70 l13 -45 -5 44 c-3 24 -12 55 -21 70
l-15 26 7 -25z"/>
<path d="M4531 7380 c14 -31 19 -36 19 -24 0 6 -7 19 -16 30 -14 18 -14 18 -3
-6z"/>
<path d="M4751 7384 c-1 -11 8 -63 18 -115 11 -52 22 -107 24 -124 l4 -30 1
30 c1 17 -9 82 -22 145 -13 63 -25 106 -25 94z"/>
<path d="M4970 7390 c-9 -6 -10 -10 -3 -10 6 0 15 5 18 10 8 12 4 12 -15 0z"/>
<path d="M461 7375 c-1 -11 -4 -31 -6 -45 l-6 -25 11 25 c6 13 9 33 7 45 -4
19 -4 19 -6 0z"/>
<path d="M598 7355 c-4 -22 -10 -51 -13 -65 -3 -14 2 -7 10 15 9 22 14 51 13
65 -3 19 -5 16 -10 -15z"/>
<path d="M4885 7380 c19 -8 73 -14 64 -6 -2 2 -22 6 -44 9 -28 5 -34 4 -20 -3z"/>
<path d="M1882 7370 c9 -5 38 -12 65 -15 l48 -4 -44 9 c-23 5 -53 12 -65 15
-18 5 -18 4 -4 -5z"/>
<path d="M3198 7373 c7 -3 16 -2 19 1 4 3 -2 6 -13 5 -11 0 -14 -3 -6 -6z"/>
<path d="M4343 7365 c3 -11 11 -46 17 -78 7 -32 14 -57 16 -54 6 6 -22 137
-31 145 -4 4 -5 -2 -2 -13z"/>
<path d="M4674 7365 c3 -9 15 -47 27 -86 12 -38 23 -68 25 -66 6 6 -45 167
-53 167 -3 0 -2 -7 1 -15z"/>
<path d="M526 7304 c-9 -37 -15 -68 -13 -71 3 -2 12 26 21 63 9 37 15 68 13
71 -3 2 -12 -26 -21 -63z"/>
<path d="M672 7363 c1 -4 -2 -23 -6 -41 -4 -18 -6 -36 -3 -38 2 -3 9 13 15 36
6 24 6 42 1 46 -5 3 -9 2 -7 -3z"/>
<path d="M2788 7363 c7 -3 16 -2 19 1 4 3 -2 6 -13 5 -11 0 -14 -3 -6 -6z"/>
<path d="M3148 7363 c6 -2 18 -2 25 0 6 3 1 5 -13 5 -14 0 -19 -2 -12 -5z"/>
<path d="M2630 7341 c19 -10 46 -21 60 -25 14 -4 3 5 -25 18 -57 30 -88 36
-35 7z"/>
<path d="M2833 7353 c9 -2 23 -2 30 0 6 3 -1 5 -18 5 -16 0 -22 -2 -12 -5z"/>
<path d="M3093 7353 c9 -2 23 -2 30 0 6 3 -1 5 -18 5 -16 0 -22 -2 -12 -5z"/>
<path d="M4487 7330 c9 -50 32 -117 32 -100 1 19 -26 120 -33 128 -4 3 -3 -10
1 -28z"/>
<path d="M2048 7343 c28 -2 76 -2 105 0 28 2 5 3 -53 3 -58 0 -81 -1 -52 -3z"/>
<path d="M2933 7343 c26 -2 68 -2 95 0 26 2 4 3 -48 3 -52 0 -74 -1 -47 -3z"/>
<path d="M230 7298 c-7 -24 -14 -70 -15 -103 -1 -33 -1 -46 2 -30 2 17 10 61
19 99 17 78 14 98 -6 34z"/>
<path d="M4551 7335 c0 -5 6 -32 13 -60 8 -27 14 -41 14 -30 0 21 -25 107 -27
90z"/>
<path d="M381 7284 c-7 -25 -10 -48 -8 -51 3 -2 10 17 16 43 7 25 10 48 8 51
-3 2 -10 -17 -16 -43z"/>
<path d="M2452 7253 c-2 -77 -4 -83 -24 -87 -55 -12 -60 -15 -20 -12 24 3 46
6 48 9 3 2 3 42 1 88 l-3 84 -2 -82z"/>
<path d="M2608 7245 c3 -80 5 -85 25 -85 12 0 47 -2 77 -5 l55 -4 -50 9 c-102
19 -95 11 -95 95 0 41 -3 75 -7 75 -5 0 -7 -38 -5 -85z"/>
<path d="M4630 7305 c0 -5 5 -17 10 -25 5 -8 10 -10 10 -5 0 6 -5 17 -10 25
-5 8 -10 11 -10 5z"/>
<path d="M435 7270 c-4 -17 -5 -34 -2 -36 2 -3 7 10 11 27 8 42 0 50 -9 9z"/>
<path d="M4321 7284 c0 -11 3 -14 6 -6 3 7 2 16 -1 19 -3 4 -6 -2 -5 -13z"/>
<path d="M629 7195 c-14 -41 -22 -72 -18 -69 9 5 53 134 47 139 -2 2 -15 -29
-29 -70z"/>
<path d="M712 7250 c0 -14 2 -19 5 -12 2 6 2 18 0 25 -3 6 -5 1 -5 -13z"/>
<path d="M4858 7193 c3 -54 0 -93 -8 -112 -13 -31 -73 -86 -125 -114 -16 -9
-25 -16 -20 -17 25 -1 120 71 141 106 19 31 24 52 23 104 -1 36 -4 76 -9 90
-4 14 -5 -12 -2 -57z"/>
<path d="M571 7244 c0 -11 3 -14 6 -6 3 7 2 16 -1 19 -3 4 -6 -2 -5 -13z"/>
<path d="M4431 7255 c-2 -25 39 -135 60 -165 20 -27 66 -60 83 -60 2 0 2 9 -1
21 -4 15 -8 17 -14 8 -6 -10 -14 -8 -34 11 -34 32 -44 50 -71 130 -12 36 -23
61 -23 55z"/>
<path d="M4651 7244 c0 -11 3 -14 6 -6 3 7 2 16 -1 19 -3 4 -6 -2 -5 -13z"/>
<path d="M4340 7235 c0 -5 5 -17 10 -25 5 -8 10 -10 10 -5 0 6 -5 17 -10 25
-5 8 -10 11 -10 5z"/>
<path d="M361 7204 c0 -11 3 -14 6 -6 3 7 2 16 -1 19 -3 4 -6 -2 -5 -13z"/>
<path d="M416 7194 c-4 -14 -5 -28 -3 -31 3 -2 8 8 11 23 4 14 5 28 3 31 -3 2
-8 -8 -11 -23z"/>
<path d="M556 7194 c-4 -14 -5 -28 -3 -31 3 -2 8 8 11 23 4 14 5 28 3 31 -3 2
-8 -8 -11 -23z"/>
<path d="M701 7204 c0 -11 3 -14 6 -6 3 7 2 16 -1 19 -3 4 -6 -2 -5 -13z"/>
<path d="M4378 7195 c-3 -14 1 -33 9 -42 12 -16 13 -13 7 22 -8 50 -10 52 -16
20z"/>
<path d="M4581 7204 c0 -11 3 -14 6 -6 3 7 2 16 -1 19 -3 4 -6 -2 -5 -13z"/>
<path d="M4664 7205 c3 -11 12 -51 22 -89 14 -57 14 -70 3 -77 -28 -18 -43 -2
-67 69 -13 40 -26 71 -28 69 -4 -3 16 -72 38 -129 12 -32 47 -38 69 -12 10 13
9 28 -6 87 -10 40 -22 79 -27 87 -7 11 -8 10 -4 -5z"/>
<path d="M727 7203 c-4 -3 -7 -13 -7 -22 1 -13 3 -13 11 2 11 19 8 33 -4 20z"/>
<path d="M3506 7201 c-3 -4 -39 -14 -80 -22 -42 -7 -74 -15 -71 -17 2 -3 40 1
85 9 53 8 80 17 80 26 0 15 -6 17 -14 4z"/>
<path d="M4521 7208 c-2 -13 29 -121 35 -127 3 -3 3 10 -1 29 -8 38 -33 109
-34 98z"/>
<path d="M2542 7175 c0 -16 2 -22 5 -12 2 9 2 23 0 30 -3 6 -5 -1 -5 -18z"/>
<path d="M4735 7180 c3 -14 10 -46 16 -73 6 -27 15 -44 21 -41 6 4 6 10 -1 17
-6 6 -11 21 -11 33 0 12 -7 37 -16 55 -11 24 -13 27 -9 9z"/>
<path d="M1645 7175 c28 -7 64 -13 80 -13 29 0 29 0 -5 8 -19 5 -55 11 -80 14
l-45 5 50 -14z"/>
<path d="M338 7132 c-22 -60 -15 -67 7 -7 10 25 16 47 14 50 -3 2 -12 -17 -21
-43z"/>
<path d="M690 7159 c0 -11 4 -18 10 -14 5 3 7 12 3 20 -7 21 -13 19 -13 -6z"/>
<path d="M1788 7153 c12 -2 30 -2 40 0 9 3 -1 5 -23 4 -22 0 -30 -2 -17 -4z"/>
<path d="M3288 7153 c12 -2 30 -2 40 0 9 3 -1 5 -23 4 -22 0 -30 -2 -17 -4z"/>
<path d="M401 7134 c0 -11 3 -14 6 -6 3 7 2 16 -1 19 -3 4 -6 -2 -5 -13z"/>
<path d="M541 7134 c0 -11 3 -14 6 -6 3 7 2 16 -1 19 -3 4 -6 -2 -5 -13z"/>
<path d="M1878 7143 c17 -2 47 -2 65 0 17 2 3 4 -33 4 -36 0 -50 -2 -32 -4z"/>
<path d="M2130 7140 l-115 -6 105 -1 c58 0 137 3 175 7 l70 7 -60 -1 c-33 0
-112 -3 -175 -6z"/>
<path d="M2788 7143 c12 -2 32 -2 45 0 12 2 2 4 -23 4 -25 0 -35 -2 -22 -4z"/>
<path d="M3005 7140 l-140 -6 135 -1 c74 0 164 3 200 7 l65 7 -60 -1 c-33 0
-123 -3 -200 -6z"/>
<path d="M759 7123 c-8 -9 -27 -24 -44 -35 -36 -22 -26 -24 15 -3 16 8 34 24
40 35 13 24 7 26 -11 3z"/>
<path d="M466 7105 c-10 -41 -34 -75 -52 -75 -8 0 -19 10 -24 23 l-9 22 0 -23
c-1 -26 25 -40 48 -25 23 15 53 70 49 90 -3 13 -6 9 -12 -12z"/>
<path d="M1582 7020 c-2 -192 34 -581 73 -780 8 -41 19 -106 25 -144 6 -38 29
-143 51 -234 54 -223 79 -340 95 -442 l13 -85 -4 70 c-5 73 -39 243 -80 405
-86 337 -148 761 -164 1135 -7 163 -8 174 -9 75z"/>
<path d="M211 7088 c19 -69 132 -148 212 -148 50 0 147 42 209 91 64 50 53 51
-15 0 -59 -43 -152 -81 -200 -81 -73 1 -197 91 -197 143 0 15 -4 27 -9 27 -6
0 -6 -12 0 -32z"/>
<path d="M1601 7115 c11 -10 153 -35 231 -39 l83 -5 -105 14 c-58 8 -123 19
-145 24 -43 11 -71 14 -64 6z"/>
<path d="M3512 7060 c-3 -88 -38 -461 -57 -610 -14 -107 -43 -257 -159 -810
-19 -91 -40 -213 -46 -271 -15 -130 -8 -445 15 -674 9 -88 19 -212 22 -275 11
-236 -55 -807 -123 -1070 -8 -30 -14 -63 -13 -75 3 -97 84 344 124 680 22 176
30 480 16 605 -6 58 -13 137 -17 175 -3 39 -10 106 -15 150 -14 121 -11 386 6
515 17 123 39 241 79 416 42 185 114 563 130 689 23 180 48 494 43 561 l-3 59
-2 -65z"/>
<path d="M573 7083 c-12 -13 -19 -23 -14 -23 10 0 46 39 40 43 -2 2 -14 -7
-26 -20z"/>
<path d="M2615 6784 c4 -181 11 -369 15 -419 l8 -90 -4 110 c-2 61 -7 247 -11
414 -6 281 -5 304 11 298 98 -38 540 -46 736 -13 63 11 109 21 102 24 -6 2
-53 -4 -104 -13 -138 -26 -462 -31 -603 -11 -60 8 -121 19 -134 22 l-24 7 8
-329z"/>
<path d="M531 7084 c0 -11 3 -14 6 -6 3 7 2 16 -1 19 -3 4 -6 -2 -5 -13z"/>
<path d="M2400 7088 c-25 -5 -144 -13 -265 -17 l-220 -9 225 4 c124 2 244 6
267 10 l42 6 4 -44 4 -43 1 47 c1 26 -1 48 -5 51 -5 2 -28 -1 -53 -5z"/>
<path d="M4440 7062 c0 -22 83 -92 109 -92 9 1 2 7 -14 14 -17 7 -45 30 -63
50 -17 20 -32 33 -32 28z"/>
<path d="M2542 6990 c0 -19 2 -27 5 -17 2 9 2 25 0 35 -3 9 -5 1 -5 -18z"/>
<path d="M2441 6760 c-1 -216 -24 -773 -35 -880 -4 -35 -3 -39 4 -20 19 54 52
1031 37 1110 -2 14 -5 -81 -6 -210z"/>
<path d="M4580 6960 c8 -5 22 -10 30 -10 13 0 13 1 0 10 -8 5 -22 10 -30 10
-13 0 -13 -1 0 -10z"/>
<path d="M4653 6943 c9 -2 23 -2 30 0 6 3 -1 5 -18 5 -16 0 -22 -2 -12 -5z"/>
<path d="M2546 6620 c4 -297 9 -379 64 -1058 15 -184 12 -494 -6 -648 -8 -74
-14 -143 -12 -152 2 -9 12 56 22 144 15 133 17 208 13 425 -3 145 -10 314 -16
374 -6 61 -15 182 -21 270 -6 88 -13 170 -15 181 -3 20 -22 438 -29 644 -2 52
-2 -29 0 -180z"/>
<path d="M2512 6480 c-1 -69 -11 -264 -22 -435 -31 -491 -41 -788 -33 -930 8
-116 9 -100 9 145 1 151 6 349 13 440 19 259 19 272 31 510 7 124 10 263 8
310 -3 75 -4 70 -6 -40z"/>
<path d="M2641 6214 c0 -23 3 -99 9 -170 5 -71 12 -163 15 -204 3 -41 11 -124
17 -185 18 -182 16 -669 -4 -805 -55 -368 -53 -874 6 -1615 22 -271 20 -464
-8 -807 -5 -61 -5 -61 4 -14 15 82 30 326 30 486 0 126 -19 457 -35 605 -26
252 -30 1039 -6 1215 41 287 50 553 31 830 -35 487 -56 731 -59 664z"/>
<path d="M2393 5733 c-12 -141 -8 -795 5 -868 l11 -60 -4 70 c-14 201 -16 516
-6 719 6 127 9 231 7 234 -2 2 -8 -41 -13 -95z"/>
<path d="M1848 5203 c3 -72 -1 -181 -7 -241 -6 -60 -14 -145 -17 -188 -3 -44
-9 -134 -15 -202 -11 -152 -11 -386 1 -512 24 -265 31 -309 80 -545 16 -77 38
-187 50 -245 26 -138 74 -359 105 -490 32 -140 49 -286 42 -385 -3 -45 -1 -69
3 -55 23 71 0 317 -46 495 -23 90 -61 267 -106 495 -22 113 -46 234 -54 270
-35 164 -63 405 -70 605 -6 156 13 530 36 706 11 83 11 348 1 394 -4 17 -5
-29 -3 -102z"/>
<path d="M2085 5294 c-22 -8 -44 -19 -49 -24 -5 -5 15 0 45 11 52 20 77 21
149 4 14 -3 10 1 -10 9 -45 18 -85 18 -135 0z"/>
<path d="M2913 5303 c9 -2 25 -2 35 0 9 3 1 5 -18 5 -19 0 -27 -2 -17 -5z"/>
<path d="M2858 5293 c7 -3 16 -2 19 1 4 3 -2 6 -13 5 -11 0 -14 -3 -6 -6z"/>
<path d="M3091 5243 c0 -4 4 -17 9 -28 8 -19 9 -19 9 2 1 12 -3 25 -9 28 -5 3
-10 3 -9 -2z"/>
<path d="M2065 5225 c-35 -10 -40 -13 -15 -9 108 14 171 16 201 5 27 -9 31 -9
21 1 -18 18 -147 20 -207 3z"/>
<path d="M2877 5233 c18 -2 50 -2 70 0 21 2 7 4 -32 4 -38 0 -55 -2 -38 -4z"/>
<path d="M2808 5223 c6 -2 18 -2 25 0 6 3 1 5 -13 5 -14 0 -19 -2 -12 -5z"/>
<path d="M3030 5215 c46 -18 64 -17 25 0 -16 8 -37 14 -45 14 -8 0 1 -7 20
-14z"/>
<path d="M2473 4925 c0 -33 2 -45 4 -27 2 18 2 45 0 60 -2 15 -4 0 -4 -33z"/>
<path d="M2480 4849 c0 -8 9 -113 20 -234 29 -324 27 -712 -6 -1115 -32 -383
-37 -756 -14 -945 7 -49 15 -119 19 -155 6 -50 8 -56 9 -25 1 22 -5 92 -14
155 -27 197 -19 663 17 1010 5 52 12 264 15 470 5 329 3 404 -15 609 -12 129
-23 237 -26 239 -3 3 -5 -1 -5 -9z"/>
<path d="M2416 4740 c33 -458 32 -796 -1 -1271 -14 -195 -24 -417 -23 -494 1
-94 3 -111 5 -50 3 99 21 444 28 533 35 430 32 1080 -5 1297 -9 48 -9 47 -4
-15z"/>
<path d="M2575 4588 c-10 -228 -12 -508 -4 -508 4 0 7 80 7 178 1 97 4 246 8
330 4 83 4 152 1 152 -3 0 -8 -69 -12 -152z"/>
<path d="M3364 4360 c-1 -415 -49 -745 -205 -1405 -70 -295 -83 -383 -77 -519
3 -80 9 -110 27 -145 30 -57 104 -136 157 -167 65 -38 108 -91 115 -144 l6
-45 2 39 c1 47 -25 91 -74 126 -92 65 -136 104 -168 153 -49 74 -61 137 -53
276 7 130 12 158 84 461 43 181 105 460 118 535 65 374 98 802 75 985 -4 33
-7 -26 -7 -150z"/>
<path d="M2576 3735 c2 -110 8 -243 13 -295 29 -294 34 -399 28 -641 -3 -140
-13 -303 -22 -364 -8 -60 -14 -128 -13 -150 1 -30 3 -24 8 25 4 36 14 110 21
165 22 169 18 643 -9 985 -12 162 -24 336 -26 385 -2 50 -2 0 0 -110z"/>
<path d="M3111 3099 c-19 -82 -32 -152 -29 -154 3 -3 20 63 37 146 18 83 31
152 29 154 -2 3 -19 -63 -37 -146z"/>
<path d="M3046 2823 c-36 -154 -49 -272 -44 -393 5 -89 10 -115 35 -170 33
-72 69 -119 116 -152 21 -14 11 0 -29 43 -43 45 -67 82 -83 124 -44 117 -38
319 15 544 14 57 23 105 21 108 -3 2 -16 -44 -31 -104z"/>
<path d="M2393 2730 c0 -36 2 -50 4 -32 2 17 2 47 0 65 -2 17 -4 3 -4 -33z"/>
<path d="M2402 2615 c-3 -70 33 -323 45 -312 2 3 -5 65 -16 139 -12 73 -22
151 -24 173 l-4 40 -1 -40z"/>
<path d="M2361 2415 c-1 -26 28 -177 35 -184 6 -6 3 15 -20 134 -8 39 -15 61
-15 50z"/>
<path d="M2657 2298 c-17 -165 -17 -175 -7 -138 11 39 25 200 18 200 -3 0 -8
-28 -11 -62z"/>
<path d="M2061 2277 c-15 -44 -112 -146 -211 -222 -46 -36 -66 -58 -68 -76 -3
-27 20 -59 41 -59 6 0 1 7 -11 16 -42 29 -29 58 56 121 128 96 222 207 209
246 -2 7 -9 -5 -16 -26z"/>
<path d="M2506 2224 c-4 -47 -5 -88 -3 -91 3 -2 8 34 12 82 4 47 5 88 3 91 -3
2 -8 -34 -12 -82z"/>
<path d="M2570 2215 c0 -14 2 -25 4 -25 2 0 6 11 8 25 3 14 1 25 -3 25 -5 0
-9 -11 -9 -25z"/>
<path d="M2402 2205 c0 -11 4 -33 8 -50 7 -27 8 -27 8 -5 0 14 -4 36 -8 50 -6
20 -8 21 -8 5z"/>
<path d="M2555 2137 c-4 -26 -5 -50 -2 -53 8 -8 20 60 15 83 -3 10 -8 -4 -13
-30z"/>
<path d="M2421 2104 c0 -11 3 -14 6 -6 3 7 2 16 -1 19 -3 4 -6 -2 -5 -13z"/>
<path d="M2632 2080 c0 -14 2 -19 5 -12 2 6 2 18 0 25 -3 6 -5 1 -5 -13z"/>
<path d="M3215 2065 c17 -15 43 -38 58 -52 23 -19 28 -31 25 -54 -3 -16 -1
-29 4 -29 4 0 8 14 8 31 0 32 -31 68 -94 110 l-31 21 30 -27z"/>
<path d="M2431 2064 c0 -11 3 -14 6 -6 3 7 2 16 -1 19 -3 4 -6 -2 -5 -13z"/>
<path d="M2538 2037 c-5 -10 -8 -35 -8 -55 -1 -20 -7 -55 -15 -77 -17 -47 -18
-52 -6 -39 16 18 43 120 39 155 -2 26 -5 30 -10 16z"/>
<path d="M2441 1980 c-1 -43 -7 -74 -18 -90 -17 -25 -17 -25 4 -7 26 22 33 59
23 117 -7 44 -8 44 -9 -20z"/>
<path d="M2623 1990 c0 -30 2 -43 4 -27 2 15 2 39 0 55 -2 15 -4 2 -4 -28z"/>
<path d="M2550 1924 c0 -35 55 -109 96 -129 31 -16 64 -20 164 -21 l125 -2
-125 7 c-88 5 -134 12 -157 24 -35 18 -83 75 -83 98 0 8 -5 21 -10 29 -8 12
-10 11 -10 -6z"/>
<path d="M2630 1925 c0 -18 24 -47 48 -59 40 -21 136 -28 212 -17 l65 10 -92
-3 c-126 -5 -171 5 -205 43 -15 17 -28 29 -28 26z"/>
<path d="M3248 1925 c-6 -6 -239 -55 -270 -56 -20 -1 -20 -2 -4 -6 25 -6 286
47 286 59 0 9 -4 10 -12 3z"/>
<path d="M3363 1908 c-19 -43 -53 -54 -303 -102 -69 -14 -116 -25 -105 -25 39
-1 334 58 362 72 36 19 66 52 61 68 -2 6 -9 0 -15 -13z"/>
<path d="M1850 1912 c17 -11 243 -53 275 -51 19 1 -37 13 -185 39 -36 7 -74
14 -85 16 -16 4 -17 3 -5 -4z"/>
<path d="M2213 1853 c32 -2 81 -2 110 0 29 2 3 3 -58 3 -60 0 -84 -1 -52 -3z"/>
</g>
</svg>
