<?xml version="1.0" standalone="no"?>
<!DOCTYPE svg PUBLIC "-//W3C//DTD SVG 20010904//EN"
 "http://www.w3.org/TR/2001/REC-SVG-20010904/DTD/svg10.dtd">
<svg version="1.0" xmlns="http://www.w3.org/2000/svg"
 width="512.000000pt" height="1536.000000pt" viewBox="0 0 512.000000 1536.000000"
 preserveAspectRatio="xMidYMid meet">

<g transform="translate(0.000000,1536.000000) scale(0.100000,-0.100000)"
fill="#000000" stroke="none">
<path d="M2568 13723 c7 -3 16 -2 19 1 4 3 -2 6 -13 5 -11 0 -14 -3 -6 -6z"/>
<path d="M2382 13705 c-98 -23 -214 -89 -275 -154 -83 -90 -139 -225 -136
-326 1 -32 3 -26 10 25 34 265 215 428 514 463 19 3 13 4 -15 5 -25 0 -69 -5
-98 -13z"/>
<path d="M2623 13713 c9 -2 25 -2 35 0 9 3 1 5 -18 5 -19 0 -27 -2 -17 -5z"/>
<path d="M2688 13703 c7 -3 16 -2 19 1 4 3 -2 6 -13 5 -11 0 -14 -3 -6 -6z"/>
<path d="M2721 13696 c2 -2 18 -6 34 -10 22 -5 26 -4 15 4 -14 9 -59 15 -49 6z"/>
<path d="M2830 13655 c25 -13 50 -24 55 -24 6 0 -10 11 -35 24 -25 13 -49 24
-55 24 -5 0 10 -11 35 -24z"/>
<path d="M2517 13653 c18 -2 50 -2 70 0 21 2 7 4 -32 4 -38 0 -55 -2 -38 -4z"/>
<path d="M2443 13643 c9 -2 23 -2 30 0 6 3 -1 5 -18 5 -16 0 -22 -2 -12 -5z"/>
<path d="M2648 13643 c6 -2 18 -2 25 0 6 3 1 5 -13 5 -14 0 -19 -2 -12 -5z"/>
<path d="M2369 13630 c-14 -4 -55 -21 -91 -39 -108 -51 -204 -173 -222 -281
-3 -20 4 -6 17 32 28 79 40 99 100 160 46 48 113 87 202 119 49 17 45 25 -6 9z"/>
<path d="M2746 13617 c74 -29 125 -59 184 -111 l45 -40 -44 46 c-45 47 -159
112 -216 123 -16 3 -3 -5 31 -18z"/>
<path d="M2951 13582 c79 -72 128 -148 155 -239 13 -43 23 -69 23 -57 1 36
-38 136 -74 190 -33 50 -110 130 -143 148 -10 5 8 -14 39 -42z"/>
<path d="M3002 13409 c14 -24 31 -63 38 -87 7 -23 15 -40 17 -38 11 11 -47
149 -68 162 -6 4 0 -13 13 -37z"/>
<path d="M2783 13403 c9 -2 25 -2 35 0 9 3 1 5 -18 5 -19 0 -27 -2 -17 -5z"/>
<path d="M2278 13393 c7 -3 16 -2 19 1 4 3 -2 6 -13 5 -11 0 -14 -3 -6 -6z"/>
<path d="M2433 13393 c15 -2 37 -2 50 0 12 2 0 4 -28 4 -27 0 -38 -2 -22 -4z"/>
<path d="M2683 13393 c9 -2 23 -2 30 0 6 3 -1 5 -18 5 -16 0 -22 -2 -12 -5z"/>
<path d="M2858 13393 c7 -3 16 -2 19 1 4 3 -2 6 -13 5 -11 0 -14 -3 -6 -6z"/>
<path d="M2167 13360 c-26 -16 -47 -32 -47 -35 0 -7 19 3 42 22 9 8 34 21 55
29 24 8 30 13 17 14 -11 0 -41 -13 -67 -30z"/>
<path d="M2782 13331 c109 -7 138 -21 175 -87 13 -21 23 -34 23 -28 0 18 -43
76 -73 98 -24 18 -44 21 -125 22 l-97 2 97 -7z"/>
<path d="M2628 13323 c12 -2 30 -2 40 0 9 3 -1 5 -23 4 -22 0 -30 -2 -17 -4z"/>
<path d="M2094 13285 c-9 -14 -15 -28 -12 -30 2 -2 12 9 22 25 21 36 13 40
-10 5z"/>
<path d="M2179 13289 l-24 -20 28 17 c15 9 27 18 27 20 0 8 -8 4 -31 -17z"/>
<path d="M2042 13250 c0 -14 2 -19 5 -12 2 6 2 18 0 25 -3 6 -5 1 -5 -13z"/>
<path d="M3132 13240 c0 -14 2 -19 5 -12 2 6 2 18 0 25 -3 6 -5 1 -5 -13z"/>
<path d="M3058 13233 c-3 -13 -2 -26 3 -29 5 -3 7 -10 3 -15 -8 -14 -11 -179
-2 -179 8 0 15 178 8 216 -5 27 -6 28 -12 7z"/>
<path d="M2066 13225 c-3 -9 -6 -24 -5 -33 0 -9 5 -4 10 12 9 32 6 48 -5 21z"/>
<path d="M3143 13140 c0 -41 2 -58 4 -37 2 20 2 54 0 75 -2 20 -4 3 -4 -38z"/>
<path d="M2992 13150 c0 -14 2 -19 5 -12 2 6 2 18 0 25 -3 6 -5 1 -5 -13z"/>
<path d="M1973 13085 c0 -44 2 -61 4 -37 2 23 2 59 0 80 -2 20 -4 1 -4 -43z"/>
<path d="M2052 13095 c0 -16 2 -22 5 -12 2 9 2 23 0 30 -3 6 -5 -1 -5 -18z"/>
<path d="M3126 13024 c-4 -20 -5 -38 -2 -41 2 -3 8 11 12 31 3 21 4 39 1 42
-2 3 -8 -11 -11 -32z"/>
<path d="M2051 13024 c0 -16 4 -38 9 -49 6 -13 7 -5 3 25 -7 53 -13 66 -12 24z"/>
<path d="M2408 13043 c7 -3 16 -2 19 1 4 3 -2 6 -13 5 -11 0 -14 -3 -6 -6z"/>
<path d="M2480 13016 c0 -2 8 -10 18 -17 15 -13 16 -12 3 4 -13 16 -21 21 -21
13z"/>
<path d="M1942 12935 c-34 -38 -46 -80 -39 -140 3 -35 4 -34 5 13 2 65 21 112
57 140 15 12 23 22 17 22 -5 0 -24 -16 -40 -35z"/>
<path d="M3160 12966 c0 -2 8 -10 18 -17 15 -13 16 -12 3 4 -13 16 -21 21 -21
13z"/>
<path d="M2062 12925 c0 -16 2 -22 5 -12 2 9 2 23 0 30 -3 6 -5 -1 -5 -18z"/>
<path d="M1990 12903 c0 -4 5 -15 10 -23 8 -13 10 -13 10 2 0 9 -4 20 -10 23
-5 3 -10 3 -10 -2z"/>
<path d="M3120 12900 c0 -5 5 -10 11 -10 5 0 7 5 4 10 -3 6 -8 10 -11 10 -2 0
-4 -4 -4 -10z"/>
<path d="M3211 12884 c0 -11 3 -14 6 -6 3 7 2 16 -1 19 -3 4 -6 -2 -5 -13z"/>
<path d="M1975 12869 c-4 -6 -5 -12 -2 -15 2 -3 7 2 10 11 7 17 1 20 -8 4z"/>
<path d="M2072 12860 c0 -14 2 -19 5 -12 2 6 2 18 0 25 -3 6 -5 1 -5 -13z"/>
<path d="M2382 12835 c0 -16 2 -22 5 -12 2 9 2 23 0 30 -3 6 -5 -1 -5 -18z"/>
<path d="M3222 12825 c0 -16 2 -22 5 -12 2 9 2 23 0 30 -3 6 -5 -1 -5 -18z"/>
<path d="M1961 12824 c-2 -41 31 -126 60 -157 l31 -32 -25 35 c-24 34 -38 68
-56 140 -6 21 -10 27 -10 14z"/>
<path d="M2012 12815 c0 -16 2 -22 5 -12 2 9 2 23 0 30 -3 6 -5 -1 -5 -18z"/>
<path d="M3096 12779 c-4 -23 -5 -44 -2 -46 2 -2 7 14 11 37 4 23 5 43 2 46
-2 3 -7 -14 -11 -37z"/>
<path d="M2081 12774 c0 -11 3 -14 6 -6 3 7 2 16 -1 19 -3 4 -6 -2 -5 -13z"/>
<path d="M3211 12764 c0 -11 3 -14 6 -6 3 7 2 16 -1 19 -3 4 -6 -2 -5 -13z"/>
<path d="M3122 12719 c-12 -22 -17 -37 -12 -34 13 8 43 65 38 71 -3 2 -14 -14
-26 -37z"/>
<path d="M1910 12738 c0 -27 41 -95 78 -130 19 -18 51 -49 70 -68 20 -19 31
-26 25 -15 -6 11 -35 40 -63 64 -36 30 -61 63 -81 105 -16 34 -29 54 -29 44z"/>
<path d="M3196 12725 c-9 -26 -7 -32 5 -12 6 10 9 21 6 23 -2 3 -7 -2 -11 -11z"/>
<path d="M3011 12704 c0 -11 3 -14 6 -6 3 7 2 16 -1 19 -3 4 -6 -2 -5 -13z"/>
<path d="M2101 12694 c0 -11 3 -14 6 -6 3 7 2 16 -1 19 -3 4 -6 -2 -5 -13z"/>
<path d="M3059 12635 c-9 -30 -12 -55 -8 -55 5 0 9 6 9 13 0 6 6 23 13 37 8
14 11 33 8 43 -4 11 -12 -2 -22 -38z"/>
<path d="M3175 12671 c-3 -11 -25 -39 -48 -62 -23 -24 -31 -37 -18 -28 28 18
87 96 79 105 -4 3 -9 -4 -13 -15z"/>
<path d="M2997 12661 c-4 -17 -3 -21 5 -13 5 5 8 16 6 23 -3 8 -7 3 -11 -10z"/>
<path d="M2121 12624 c0 -11 3 -14 6 -6 3 7 2 16 -1 19 -3 4 -6 -2 -5 -13z"/>
<path d="M2980 12590 c-6 -23 -9 -44 -7 -46 2 -3 9 14 15 38 6 23 9 44 7 46
-2 2 -9 -15 -15 -38z"/>
<path d="M3059 12553 c-13 -16 -12 -17 4 -4 16 13 21 21 13 21 -2 0 -10 -8
-17 -17z"/>
<path d="M2150 12535 c0 -11 69 -123 80 -130 5 -3 -9 25 -32 62 -45 76 -48 80
-48 68z"/>
<path d="M2942 12487 c-20 -45 -94 -127 -162 -181 -20 -16 -25 -23 -12 -16 64
32 219 217 199 237 -3 2 -14 -16 -25 -40z"/>
<path d="M3026 12493 c-6 -14 -5 -15 5 -6 7 7 10 15 7 18 -3 3 -9 -2 -12 -12z"/>
<path d="M2096 12487 c3 -10 9 -15 12 -12 3 3 0 11 -7 18 -10 9 -11 8 -5 -6z"/>
<path d="M2468 12463 c18 -2 45 -2 60 0 15 2 0 4 -33 4 -33 0 -45 -2 -27 -4z"/>
<path d="M3001 12443 c-10 -26 -10 -27 4 -9 8 11 15 23 15 28 0 15 -7 8 -19
-19z"/>
<path d="M2110 12455 c0 -12 48 -85 56 -85 3 0 -3 12 -14 28 -10 15 -24 36
-30 47 -6 11 -12 15 -12 10z"/>
<path d="M2973 12398 c-20 -26 -26 -41 -15 -34 12 7 36 46 29 46 -3 0 -9 -6
-14 -12z"/>
<path d="M2280 12356 c26 -29 103 -86 117 -86 4 0 -10 12 -32 26 -22 15 -56
41 -75 58 -33 30 -34 30 -10 2z"/>
<path d="M2932 12220 c-1 -63 1 -125 4 -138 6 -21 80 -70 90 -59 3 2 -9 10
-25 17 -51 21 -56 34 -62 169 l-5 126 -2 -115z"/>
<path d="M2173 12275 c0 -27 2 -38 4 -22 2 15 2 37 0 50 -2 12 -4 0 -4 -28z"/>
<path d="M2233 12285 c0 -22 2 -30 4 -17 2 12 2 30 0 40 -3 9 -5 -1 -4 -23z"/>
<path d="M2849 12273 c-13 -16 -17 -22 -9 -15 19 16 28 15 33 -5 3 -10 5 -3 6
15 0 17 0 32 -2 32 -2 0 -14 -12 -28 -27z"/>
<path d="M2700 12265 c-14 -8 -20 -14 -15 -14 6 0 21 6 35 14 14 8 21 14 15
14 -5 0 -21 -6 -35 -14z"/>
<path d="M2468 12243 c7 -3 16 -2 19 1 4 3 -2 6 -13 5 -11 0 -14 -3 -6 -6z"/>
<path d="M2790 12229 c-22 -18 -22 -19 -3 -10 12 6 25 16 28 21 9 15 3 12 -25
-11z"/>
<path d="M2320 12235 c0 -7 81 -47 86 -43 2 3 -17 14 -41 26 -25 12 -45 20
-45 17z"/>
<path d="M2543 12223 c9 -2 25 -2 35 0 9 3 1 5 -18 5 -19 0 -27 -2 -17 -5z"/>
<path d="M2872 12139 c-2 -92 -1 -96 26 -121 26 -25 112 -73 112 -63 0 2 -22
16 -48 29 -71 36 -76 46 -83 155 l-5 96 -2 -96z"/>
<path d="M2730 12200 c-8 -5 -10 -10 -5 -10 6 0 17 5 25 10 8 5 11 10 5 10 -5
0 -17 -5 -25 -10z"/>
<path d="M2171 12150 c0 -19 -5 -50 -10 -68 -6 -18 -6 -30 -1 -27 11 7 23 87
17 111 -3 11 -5 3 -6 -16z"/>
<path d="M2465 12170 c11 -5 29 -8 40 -8 16 0 15 2 -5 8 -34 11 -60 11 -35 0z"/>
<path d="M2620 12170 l-25 -8 25 0 c14 0 34 3 45 8 l20 9 -20 -1 c-11 0 -31
-4 -45 -8z"/>
<path d="M2229 12112 c-3 -20 -2 -29 4 -23 5 5 7 19 5 32 -3 20 -5 19 -9 -9z"/>
<path d="M2221 12054 c0 -11 3 -14 6 -6 3 7 2 16 -1 19 -3 4 -6 -2 -5 -13z"/>
<path d="M2194 12008 l-19 -23 23 19 c12 11 22 21 22 23 0 8 -8 2 -26 -19z"/>
<path d="M2045 12010 c-3 -6 1 -7 9 -4 18 7 21 14 7 14 -6 0 -13 -4 -16 -10z"/>
<path d="M1927 11968 c-43 -17 -76 -33 -74 -35 2 -2 44 12 93 31 49 19 82 35
74 34 -8 0 -50 -14 -93 -30z"/>
<path d="M3100 11985 c14 -8 30 -14 35 -14 6 0 -1 6 -15 14 -14 8 -29 14 -35
14 -5 0 1 -6 15 -14z"/>
<path d="M2051 11939 c-52 -22 -163 -65 -248 -96 -84 -31 -152 -58 -150 -60 9
-8 471 168 492 188 14 13 9 12 -94 -32z"/>
<path d="M1730 11891 c-52 -20 -104 -40 -114 -44 -10 -4 -17 -10 -14 -12 4 -4
227 81 237 91 11 10 -21 0 -109 -35z"/>
<path d="M3289 11909 c24 -11 46 -18 48 -15 4 4 -73 36 -85 35 -4 0 13 -9 37
-20z"/>
<path d="M3090 11917 c0 -5 216 -94 263 -108 16 -5 25 -4 22 2 -4 5 -10 9 -15
9 -8 0 -53 17 -257 97 -7 3 -13 3 -13 0z"/>
<path d="M3379 11875 c18 -8 36 -15 40 -15 13 1 -45 29 -59 29 -8 0 0 -6 19
-14z"/>
<path d="M3430 11858 c10 -10 200 -91 205 -87 2 3 -35 21 -83 41 -101 43 -129
53 -122 46z"/>
<path d="M1492 11795 c-35 -12 -114 -37 -175 -55 -209 -59 -335 -157 -421
-328 -30 -60 -56 -153 -55 -197 1 -18 6 -4 14 37 25 125 84 236 172 320 81 78
166 122 320 167 126 36 243 79 218 80 -5 0 -38 -11 -73 -24z"/>
<path d="M1590 11759 c-10 -6 0 -9 34 -9 54 0 57 4 11 13 -17 3 -37 2 -45 -4z"/>
<path d="M2082 11755 c48 -8 111 -21 140 -30 54 -16 75 -19 66 -9 -11 11 -165
44 -228 49 -59 4 -57 3 22 -10z"/>
<path d="M3460 11760 c-7 -5 3 -9 26 -12 49 -6 53 -3 16 10 -16 5 -35 6 -42 2z"/>
<path d="M3658 11763 c6 -2 18 -2 25 0 6 3 1 5 -13 5 -14 0 -19 -2 -12 -5z"/>
<path d="M1693 11753 c9 -2 25 -2 35 0 9 3 1 5 -18 5 -19 0 -27 -2 -17 -5z"/>
<path d="M3068 11753 c23 -2 61 -2 85 0 23 2 4 4 -43 4 -47 0 -66 -2 -42 -4z"/>
<path d="M3373 11753 c15 -2 37 -2 50 0 12 2 0 4 -28 4 -27 0 -38 -2 -22 -4z"/>
<path d="M3708 11753 c7 -3 16 -2 19 1 4 3 -2 6 -13 5 -11 0 -14 -3 -6 -6z"/>
<path d="M2983 11743 c9 -2 23 -2 30 0 6 3 -1 5 -18 5 -16 0 -22 -2 -12 -5z"/>
<path d="M3820 11724 c120 -36 174 -68 260 -154 84 -84 128 -157 161 -270 19
-66 22 -101 23 -290 2 -214 2 -215 40 -353 20 -76 41 -163 45 -195 8 -52 9
-54 10 -16 1 40 -15 114 -60 269 -21 71 -23 98 -21 245 1 91 -3 200 -8 242
-29 211 -132 375 -295 469 -51 30 -192 79 -223 78 -9 0 21 -11 68 -25z"/>
<path d="M2900 11730 c-20 -6 -21 -8 -5 -8 11 0 31 4 45 8 20 6 21 8 5 8 -11
0 -31 -4 -45 -8z"/>
<path d="M2798 11702 c-26 -9 -50 -20 -54 -25 -6 -6 60 14 116 36 38 14 -18 4
-62 -11z"/>
<path d="M3135 11707 c-93 -12 -339 -63 -395 -81 -61 -20 -27 -20 40 0 80 24
235 54 325 64 44 4 91 13 105 19 29 11 19 11 -75 -2z"/>
<path d="M1500 11700 c-125 -9 -244 -42 -325 -91 -119 -72 -219 -211 -255
-354 -13 -55 -15 -349 -3 -383 5 -12 7 57 5 152 -4 191 6 251 58 361 49 101
170 213 275 253 102 39 182 52 330 53 107 1 139 4 110 10 -44 9 -47 9 -195 -1z"/>
<path d="M1750 11700 c-8 -5 -10 -10 -5 -10 6 0 17 5 25 10 8 5 11 10 5 10 -5
0 -17 -5 -25 -10z"/>
<path d="M1933 11703 c9 -2 25 -2 35 0 9 3 1 5 -18 5 -19 0 -27 -2 -17 -5z"/>
<path d="M2343 11685 c27 -13 56 -30 65 -37 15 -11 15 -11 4 4 -13 16 -94 59
-109 57 -5 0 14 -11 40 -24z"/>
<path d="M3650 11700 c8 -5 22 -10 30 -10 13 0 13 1 0 10 -8 5 -22 10 -30 10
-13 0 -13 -1 0 -10z"/>
<path d="M2050 11689 c57 -6 183 -32 275 -54 17 -4 27 -5 24 -1 -12 13 -272
66 -317 65 -44 -2 -43 -2 18 -10z"/>
<path d="M3398 11693 c46 -2 118 -2 160 0 42 1 5 3 -83 3 -88 0 -123 -2 -77
-3z"/>
<path d="M3701 11686 c2 -2 33 -12 68 -21 92 -24 170 -66 239 -130 78 -72 115
-128 149 -228 26 -77 27 -93 28 -249 0 -96 4 -163 9 -158 5 5 6 84 4 177 -6
196 -21 255 -94 365 -55 83 -113 135 -202 181 -71 38 -224 85 -201 63z"/>
<path d="M2370 11620 c8 -5 20 -10 25 -10 6 0 3 5 -5 10 -8 5 -19 10 -25 10
-5 0 -3 -5 5 -10z"/>
<path d="M2560 11580 c0 -5 7 -7 15 -4 8 4 15 8 15 10 0 2 -7 4 -15 4 -8 0
-15 -4 -15 -10z"/>
<path d="M2581 10967 c0 -129 4 -247 8 -263 5 -17 8 78 6 229 -2 142 -6 261
-8 264 -3 3 -6 -101 -6 -230z"/>
<path d="M2524 10910 c0 -157 2 -221 3 -142 2 78 2 206 0 285 -1 78 -3 14 -3
-143z"/>
<path d="M834 11095 c0 -49 1 -71 3 -48 2 23 2 64 0 90 -2 26 -3 8 -3 -42z"/>
<path d="M841 10974 c0 -11 3 -14 6 -6 3 7 2 16 -1 19 -3 4 -6 -2 -5 -13z"/>
<path d="M842 10905 c-2 -53 -17 -140 -52 -295 -33 -147 -50 -286 -48 -395 1
-99 1 -98 9 40 5 104 19 199 54 368 31 153 45 244 42 280 l-3 52 -2 -50z"/>
<path d="M907 10805 c-4 -22 -11 -60 -17 -85 -47 -203 -61 -318 -76 -585 -21
-408 -38 -496 -143 -744 -43 -101 -39 -114 5 -16 116 259 122 295 154 855 10
175 18 233 69 479 12 57 20 111 19 120 -2 9 -7 -2 -11 -24z"/>
<path d="M4191 10798 c0 -15 12 -74 28 -130 60 -210 78 -356 85 -723 5 -254
16 -317 82 -504 112 -312 125 -393 154 -926 6 -110 20 -261 31 -335 23 -149
44 -198 105 -247 135 -108 183 -172 248 -328 54 -129 57 -136 49 -100 -13 63
-98 237 -149 306 -18 25 -63 68 -98 95 -137 104 -142 128 -186 809 -20 313
-47 460 -121 665 -93 260 -103 325 -108 700 -3 236 -27 411 -86 605 -13 44
-26 94 -28 110 -4 29 -4 30 -6 3z"/>
<path d="M3756 10777 c3 -10 9 -15 12 -12 3 3 0 11 -7 18 -10 9 -11 8 -5 -6z"/>
<path d="M1400 10749 c0 -11 31 -158 39 -186 15 -51 61 -121 94 -145 31 -21
31 -21 -7 21 -50 57 -82 128 -101 225 -8 44 -17 81 -20 84 -3 3 -5 3 -5 1z"/>
<path d="M3762 10715 c0 -16 2 -22 5 -12 2 9 2 23 0 30 -3 6 -5 -1 -5 -18z"/>
<path d="M1341 10677 c-1 -10 9 -55 20 -100 27 -103 27 -175 0 -304 -11 -55
-21 -109 -20 -120 2 -48 50 221 50 282 0 62 -47 290 -50 242z"/>
<path d="M3660 10609 c-37 -129 -101 -202 -214 -246 -33 -13 -47 -21 -31 -18
86 17 199 104 227 175 17 42 49 162 45 166 -2 3 -15 -32 -27 -77z"/>
<path d="M3742 10622 c-24 -98 -24 -98 -14 -82 12 19 36 120 30 125 -3 3 -10
-16 -16 -43z"/>
<path d="M2583 10610 c0 -30 2 -43 4 -27 2 15 2 39 0 55 -2 15 -4 2 -4 -28z"/>
<path d="M1790 10586 c0 -3 9 -10 20 -16 11 -6 20 -8 20 -6 0 3 -9 10 -20 16
-11 6 -20 8 -20 6z"/>
<path d="M2532 10570 c0 -14 2 -19 5 -12 2 6 2 18 0 25 -3 6 -5 1 -5 -13z"/>
<path d="M3712 10485 c0 -22 3 -62 8 -90 6 -40 7 -43 8 -15 0 19 -3 60 -8 90
-6 48 -7 50 -8 15z"/>
<path d="M1709 10478 c7 -10 23 -17 35 -17 20 1 20 2 1 6 -11 3 -27 10 -35 17
-13 10 -13 9 -1 -6z"/>
<path d="M1804 10475 c-10 -8 -14 -15 -8 -15 6 0 17 7 24 15 16 19 9 19 -16 0z"/>
<path d="M1574 10391 c10 -15 104 -61 126 -61 8 0 -11 11 -43 24 -32 13 -65
30 -74 37 -14 12 -16 12 -9 0z"/>
<path d="M4365 10325 c3 -44 7 -188 11 -320 8 -321 20 -382 129 -670 58 -153
77 -288 109 -755 25 -353 43 -490 74 -542 9 -15 47 -53 85 -84 38 -31 82 -75
99 -98 54 -74 167 -317 187 -404 6 -26 9 -30 10 -14 2 37 -82 243 -142 352
-44 78 -74 114 -139 166 -32 25 -69 60 -83 78 -39 52 -56 178 -85 636 -25 392
-46 508 -140 770 -85 235 -84 225 -95 675 -3 116 -10 228 -15 250 -7 32 -8 24
-5 -40z"/>
<path d="M2245 10379 c-16 -6 -64 -16 -105 -24 -74 -14 -74 -14 -15 -9 59 5
210 43 170 42 -11 0 -33 -4 -50 -9z"/>
<path d="M2870 10370 c25 -10 52 -19 60 -19 8 0 -7 9 -35 19 -64 25 -85 25
-25 0z"/>
<path d="M3607 10376 c-3 -8 -24 -26 -46 -40 -107 -68 -308 -97 -489 -72 -61
8 -134 24 -164 34 -101 37 -95 36 -75 19 26 -22 157 -55 269 -68 162 -19 358
13 458 74 19 12 38 21 42 20 8 -3 22 36 15 43 -2 3 -7 -2 -10 -10z"/>
<path d="M1497 10339 c4 -13 8 -16 13 -9 5 7 11 6 21 -6 37 -45 194 -85 322
-83 l82 2 -106 8 c-160 11 -267 44 -309 94 -18 21 -29 18 -23 -6z"/>
<path d="M2975 10340 c17 -4 44 -8 60 -8 25 0 24 2 -10 9 -51 10 -92 10 -50
-1z"/>
<path d="M2023 10333 c9 -2 23 -2 30 0 6 3 -1 5 -18 5 -16 0 -22 -2 -12 -5z"/>
<path d="M2245 10314 c-51 -21 -122 -36 -280 -57 -29 -4 -28 -4 5 -5 88 -4
296 46 335 80 13 12 6 10 -60 -18z"/>
<path d="M3348 10333 c6 -2 18 -2 25 0 6 3 1 5 -13 5 -14 0 -19 -2 -12 -5z"/>
<path d="M3735 10285 c3 -33 12 -85 20 -115 12 -44 13 -47 10 -15 -3 22 -12
74 -20 115 l-15 75 5 -60z"/>
<path d="M1743 10323 c15 -2 37 -2 50 0 12 2 0 4 -28 4 -27 0 -38 -2 -22 -4z"/>
<path d="M1878 10323 c23 -2 61 -2 85 0 23 2 4 4 -43 4 -47 0 -66 -2 -42 -4z"/>
<path d="M3133 10323 c37 -2 97 -2 135 0 37 2 6 3 -68 3 -74 0 -105 -1 -67 -3z"/>
<path d="M3585 10308 c-41 -111 -144 -435 -142 -442 3 -9 35 83 122 352 18 56
31 102 29 102 -3 0 -7 -6 -9 -12z"/>
<path d="M3655 10306 c-5 -11 -3 -26 3 -37 7 -10 12 -40 12 -66 0 -27 5 -55
10 -63 10 -15 5 63 -10 145 -6 32 -9 36 -15 21z"/>
<path d="M1436 10264 c-4 -20 -5 -38 -3 -40 3 -3 8 11 11 32 4 20 5 38 3 40
-3 3 -8 -11 -11 -32z"/>
<path d="M3641 10244 c0 -11 3 -14 6 -6 3 7 2 16 -1 19 -3 4 -6 -2 -5 -13z"/>
<path d="M1531 10241 c-1 -8 17 -69 38 -136 57 -174 108 -373 128 -500 14 -90
17 -183 17 -500 1 -394 -1 -424 -40 -607 -6 -26 -4 -28 22 -27 25 2 26 2 6 6
-16 3 -22 9 -18 20 24 62 39 233 43 504 7 433 -12 640 -85 904 -37 135 -110
355 -111 336z"/>
<path d="M1460 10222 c0 -7 18 -72 39 -145 132 -440 132 -440 138 -904 6 -411
4 -439 -48 -721 -17 -90 -28 -169 -27 -174 5 -14 66 316 78 417 13 119 19 487
9 675 -9 188 -29 329 -63 445 -13 44 -29 103 -36 132 -14 64 -89 293 -90 275z"/>
<path d="M1406 10124 c-10 -47 -16 -88 -13 -90 2 -2 12 34 22 81 10 47 16 88
13 90 -2 2 -12 -34 -22 -81z"/>
<path d="M3558 9981 c-81 -249 -95 -304 -108 -452 -17 -190 -23 -563 -12 -724
9 -126 63 -449 78 -464 9 -9 3 31 -20 145 -46 221 -50 275 -49 584 1 317 12
498 38 625 9 44 46 169 81 278 36 109 64 201 62 206 -2 4 -33 -85 -70 -198z"/>
<path d="M2274 10151 c-71 -52 -184 -185 -184 -215 0 -5 18 18 41 52 40 59
118 139 169 174 14 9 22 17 19 17 -3 1 -24 -12 -45 -28z"/>
<path d="M2810 10163 c14 -9 40 -30 57 -46 18 -17 35 -28 38 -25 6 6 -97 88
-111 88 -4 0 3 -7 16 -17z"/>
<path d="M2795 10113 c91 -87 159 -170 204 -248 23 -38 41 -65 41 -59 0 20
-93 160 -146 221 -30 34 -78 80 -107 103 l-52 42 60 -59z"/>
<path d="M2274 10088 c-33 -35 -74 -81 -91 -103 -36 -49 -105 -166 -100 -171
2 -2 14 15 27 39 46 83 131 196 186 246 30 28 52 51 47 51 -5 0 -36 -28 -69
-62z"/>
<path d="M1317 10065 c-42 -178 -92 -506 -102 -665 -7 -122 -31 -292 -56 -399
-20 -88 -20 -126 0 -45 41 163 56 261 71 486 9 132 65 491 96 611 8 33 13 64
11 70 -2 7 -11 -20 -20 -58z"/>
<path d="M3690 10116 c0 -4 16 -91 36 -194 37 -199 56 -337 74 -547 22 -261
53 -396 175 -755 158 -466 205 -597 205 -575 0 11 -16 65 -36 120 -274 772
-307 890 -334 1215 -6 69 -17 179 -25 245 -19 159 -95 550 -95 491z"/>
<path d="M3770 10104 c0 -4 18 -103 39 -219 36 -190 50 -296 82 -625 19 -203
94 -467 247 -875 89 -238 122 -352 122 -419 0 -19 4 -37 8 -40 13 -8 -7 132
-29 209 -12 39 -52 151 -89 250 -161 427 -231 677 -250 898 -16 184 -48 446
-65 537 -37 196 -56 284 -60 288 -3 3 -5 1 -5 -4z"/>
<path d="M734 9975 c0 -66 1 -92 3 -57 2 34 2 88 0 120 -2 31 -3 3 -3 -63z"/>
<path d="M2937 10048 c17 -18 47 -60 67 -93 20 -33 36 -56 36 -51 0 23 -108
176 -124 176 -5 0 4 -15 21 -32z"/>
<path d="M2575 9635 c0 -228 3 -407 7 -397 8 23 9 772 0 794 -4 10 -7 -169 -7
-397z"/>
<path d="M2532 10020 c0 -14 2 -19 5 -12 2 6 2 18 0 25 -3 6 -5 1 -5 -13z"/>
<path d="M1358 9885 c-35 -178 -63 -390 -78 -574 -13 -160 -33 -288 -55 -352
-8 -23 -15 -49 -14 -58 1 -29 29 62 49 159 10 52 26 181 35 285 16 188 53 447
82 577 8 37 13 76 11 85 -2 10 -16 -45 -30 -122z"/>
<path d="M2524 9655 c0 -176 2 -247 3 -157 2 90 2 234 0 320 -1 86 -3 13 -3
-163z"/>
<path d="M2056 9865 c-3 -9 -6 -22 -5 -28 0 -7 5 -1 10 12 5 13 8 26 5 28 -2
2 -6 -3 -10 -12z"/>
<path d="M712 9771 c-15 -94 -36 -163 -110 -358 -27 -73 -47 -133 -43 -133 5
0 17 28 29 63 11 34 39 111 62 171 44 115 83 273 78 315 -2 14 -9 -12 -16 -58z"/>
<path d="M3411 9763 c-28 -122 -41 -221 -39 -313 l2 -75 3 65 c5 102 22 228
44 314 11 43 18 83 16 90 -2 6 -14 -31 -26 -81z"/>
<path d="M3357 9198 c-3 -84 -3 -209 2 -278 7 -111 8 -93 9 153 1 152 0 277
-2 277 -2 0 -6 -69 -9 -152z"/>
<path d="M2532 9290 c0 -14 4 -36 8 -50 l8 -25 0 25 c0 14 -4 36 -8 50 l-8 25
0 -25z"/>
<path d="M615 9228 c-28 -96 -44 -229 -55 -468 -21 -475 -49 -696 -98 -765
-15 -22 -43 -49 -62 -60 -87 -51 -162 -155 -247 -344 -66 -145 -50 -123 34 48
79 161 112 203 243 311 24 19 51 53 61 75 37 86 62 304 79 705 12 270 21 358
50 470 22 86 19 107 -5 28z"/>
<path d="M535 9218 c-25 -84 -34 -159 -45 -363 -5 -105 -13 -244 -16 -310 -4
-66 -4 -117 -1 -114 4 3 13 142 22 310 14 281 31 431 56 496 5 14 7 28 5 30
-3 3 -12 -19 -21 -49z"/>
<path d="M1106 8813 c-15 -48 -66 -187 -113 -308 -155 -400 -151 -385 -163
-628 -7 -123 -16 -214 -25 -240 -8 -23 -14 -51 -14 -62 1 -11 10 6 20 39 14
43 22 111 29 255 11 235 15 250 146 587 100 259 157 421 152 436 -2 5 -16 -30
-32 -79z"/>
<path d="M1146 8707 c-32 -94 -82 -234 -112 -310 -99 -252 -134 -400 -134
-573 0 -135 -20 -231 -90 -444 -84 -254 -94 -271 -195 -321 -33 -16 -73 -41
-90 -55 -27 -23 -27 -24 -5 -13 14 6 38 21 55 33 16 12 52 32 79 46 64 33 91
81 162 290 73 213 94 316 94 460 1 190 18 254 190 725 63 172 113 326 107 331
-2 2 -29 -74 -61 -169z"/>
<path d="M3372 8730 c-1 -30 7 -98 17 -150 14 -70 16 -97 7 -102 -7 -5 -4 -8
8 -8 14 0 17 5 13 23 -9 36 -36 208 -40 252 -3 32 -4 29 -5 -15z"/>
<path d="M1780 8455 c30 -8 84 -16 120 -19 l65 -5 -80 13 c-142 24 -165 27
-105 11z"/>
<path d="M3290 8459 c-78 -13 -86 -20 -15 -12 62 6 128 22 90 21 -11 0 -45 -4
-75 -9z"/>
<path d="M3050 8424 l-105 -13 95 5 c94 6 210 22 145 21 -16 0 -77 -6 -135
-13z"/>
<path d="M2020 8420 c45 -9 147 -13 139 -6 -2 2 -44 6 -94 9 -63 4 -77 3 -45
-3z"/>
<path d="M460 8379 c0 -24 -9 -102 -20 -173 -11 -71 -20 -131 -20 -134 0 -3
-51 -55 -114 -116 l-114 -111 -75 -155 c-41 -85 -78 -166 -81 -180 l-6 -25 12
25 c7 14 40 84 73 155 74 156 132 237 220 306 36 28 72 64 80 79 27 52 69 349
52 366 -4 4 -7 -13 -7 -37z"/>
<path d="M1716 8395 c126 -40 516 -75 831 -76 204 0 532 17 543 28 3 3 -26 3
-65 -1 -38 -3 -209 -8 -380 -12 -243 -5 -348 -3 -487 10 -196 17 -378 42 -422
56 -16 6 -36 10 -45 9 -9 -1 3 -7 25 -14z"/>
<path d="M2223 8403 c20 -2 54 -2 75 0 20 2 3 4 -38 4 -41 0 -58 -2 -37 -4z"/>
<path d="M2550 8400 l-185 -6 170 -1 c94 0 222 3 285 7 l115 7 -100 -1 c-55 0
-183 -3 -285 -6z"/>
<path d="M3411 8398 c21 -16 50 -164 84 -423 14 -104 27 -199 29 -211 2 -11 9
-96 16 -190 23 -339 27 -388 29 -339 5 190 -62 811 -117 1085 -14 70 -21 85
-37 88 -18 3 -18 3 -4 -10z"/>
<path d="M3235 8375 c-77 -13 -126 -23 -110 -24 39 -1 253 34 262 42 8 8 20
10 -152 -18z"/>
<path d="M1645 8335 c-4 -25 -5 -48 -2 -51 2 -3 8 16 12 41 3 26 4 49 2 52 -3
3 -9 -16 -12 -42z"/>
<path d="M3520 8318 c0 -7 7 -49 15 -93 75 -387 118 -1023 97 -1432 -20 -376
-53 -582 -175 -1088 -30 -126 -61 -261 -68 -300 -20 -99 -17 -416 5 -575 34
-253 39 -320 39 -565 0 -176 -5 -290 -16 -384 -30 -234 -133 -718 -252 -1181
-25 -97 -38 -220 -33 -309 7 -117 32 -165 139 -261 91 -83 146 -159 159 -223
l8 -42 1 38 c1 54 -48 126 -162 239 -52 51 -102 108 -111 126 -23 45 -31 188
-17 282 6 41 30 149 52 240 150 607 213 929 236 1208 15 175 15 234 5 430 -6
125 -21 297 -33 382 -15 109 -22 209 -23 335 0 192 6 242 63 477 124 512 140
594 177 923 13 113 18 235 18 500 0 403 -18 660 -69 1010 -28 189 -55 318 -55
263z"/>
<path d="M1630 8264 c0 -5 -9 -72 -19 -149 -38 -269 -61 -529 -68 -756 l-6
-228 24 -9 c40 -15 104 -22 313 -32 183 -9 319 -5 534 16 l62 6 0 214 c0 118
-3 214 -7 214 -5 0 -7 -91 -5 -202 2 -110 -1 -205 -6 -210 -36 -36 -736 -38
-877 -2 l-28 7 7 221 c8 250 33 521 76 829 6 44 9 82 6 85 -3 3 -6 1 -6 -4z"/>
<path d="M1542 8185 c-22 -143 -62 -509 -61 -555 2 -47 2 -44 29 210 6 58 20
169 31 248 11 79 19 151 17 160 -2 9 -9 -19 -16 -63z"/>
<path d="M4186 7893 c8 -237 12 -288 34 -367 34 -128 81 -268 87 -262 3 3 -1
25 -10 48 -9 24 -33 99 -53 168 -34 119 -36 135 -43 327 -4 112 -10 206 -13
209 -3 3 -4 -52 -2 -123z"/>
<path d="M4264 7844 c-10 -52 1 -176 24 -269 24 -99 102 -348 107 -343 2 2
-14 60 -35 128 -37 117 -55 185 -81 320 -6 30 -9 88 -6 128 6 78 2 94 -9 36z"/>
<path d="M550 7789 c-25 -22 -69 -54 -97 -71 -29 -16 -53 -32 -53 -35 0 -12
110 58 154 99 62 58 59 63 -4 7z"/>
<path d="M4492 7810 c0 -14 2 -19 5 -12 2 6 2 18 0 25 -3 6 -5 1 -5 -13z"/>
<path d="M4530 7827 c-1 -44 122 -141 238 -188 51 -20 16 4 -65 45 -83 41
-136 85 -161 131 -6 11 -12 16 -12 12z"/>
<path d="M591 7768 c-14 -37 -80 -96 -138 -124 -30 -15 -52 -29 -49 -31 2 -2
27 7 56 22 54 28 135 104 143 136 7 26 -2 24 -12 -3z"/>
<path d="M4518 7744 c18 -36 95 -98 174 -142 73 -40 77 -44 97 -97 12 -31 21
-61 21 -68 0 -7 12 -64 26 -127 18 -81 24 -131 21 -170 -5 -54 -5 -54 5 -15
14 52 -4 166 -59 373 -16 58 -33 74 -145 136 -37 20 -85 57 -108 84 -23 26
-37 38 -32 26z"/>
<path d="M2720 7663 c-55 -43 -81 -54 -145 -63 l-50 -7 44 -2 c53 -1 111 25
167 74 51 45 41 44 -16 -2z"/>
<path d="M318 7645 c-26 -19 -65 -61 -87 -94 -56 -82 -120 -126 -122 -83 0 14
-2 14 -9 -3 -13 -31 -12 -34 13 -28 39 10 77 44 129 114 30 42 67 79 94 95 24
14 44 28 44 30 0 10 -19 1 -62 -31z"/>
<path d="M2354 7671 c7 -11 46 -35 46 -28 0 3 -12 12 -26 22 -15 9 -23 12 -20
6z"/>
<path d="M2766 7626 c-8 -14 -42 -40 -73 -59 l-58 -33 0 -167 -1 -167 3 165 3
165 48 24 c48 24 110 81 100 91 -3 3 -13 -6 -22 -19z"/>
<path d="M2424 7626 c11 -9 24 -16 30 -16 12 0 7 5 -24 19 -24 11 -24 11 -6
-3z"/>
<path d="M4827 7588 c36 -57 104 -128 122 -128 8 0 -3 13 -25 30 -23 16 -57
54 -77 85 -43 64 -60 75 -20 13z"/>
<path d="M344 7574 l-39 -36 43 32 c37 28 49 40 39 40 -2 0 -21 -16 -43 -36z"/>
<path d="M2340 7606 c0 -9 81 -66 94 -66 6 0 -2 9 -19 20 -16 11 -40 27 -52
36 -13 9 -23 14 -23 10z"/>
<path d="M1465 7323 c-19 -632 22 -1022 174 -1671 61 -260 74 -374 69 -587 -3
-99 -2 -153 3 -120 24 204 3 444 -66 730 -68 280 -127 610 -144 800 -6 61 -14
144 -18 185 -5 41 -7 265 -6 498 1 232 0 422 -1 422 -2 0 -7 -116 -11 -257z"/>
<path d="M768 7502 c-9 -26 -19 -63 -22 -82 l-5 -35 10 35 c6 19 18 54 26 78
8 24 13 45 11 47 -2 3 -12 -17 -20 -43z"/>
<path d="M301 7514 c0 -11 3 -14 6 -6 3 7 2 16 -1 19 -3 4 -6 -2 -5 -13z"/>
<path d="M21 7464 c0 -11 3 -14 6 -6 3 7 2 16 -1 19 -3 4 -6 -2 -5 -13z"/>
<path d="M2540 7433 c0 -27 -2 -93 -5 -148 -3 -72 -2 -86 4 -50 10 59 14 245
6 245 -3 0 -5 -21 -5 -47z"/>
<path d="M271 7423 c-16 -58 -12 -75 5 -19 9 26 13 50 10 53 -2 3 -9 -12 -15
-34z"/>
<path d="M2565 7020 c0 -245 1 -345 2 -222 2 122 2 322 0 445 -1 122 -2 22 -2
-223z"/>
<path d="M4968 7443 c7 -3 16 -2 19 1 4 3 -2 6 -13 5 -11 0 -14 -3 -6 -6z"/>
<path d="M160 7399 c-19 -10 -30 -18 -23 -19 18 0 63 22 63 32 0 4 -1 8 -2 7
-2 -1 -19 -9 -38 -20z"/>
<path d="M506 7402 c-3 -5 1 -9 9 -9 8 0 12 4 9 9 -3 4 -7 8 -9 8 -2 0 -6 -4
-9 -8z"/>
<path d="M4604 7356 c11 -30 22 -53 24 -51 6 6 -21 85 -33 95 -7 6 -3 -14 9
-44z"/>
<path d="M4893 7393 c23 -81 31 -141 32 -220 0 -77 -3 -96 -21 -119 -28 -39
-59 -60 -129 -90 -41 -17 -49 -23 -26 -18 18 3 60 22 93 41 46 27 64 45 79 77
20 45 24 119 9 201 -5 28 -13 71 -16 98 -4 26 -11 47 -16 47 -5 0 -7 -8 -5
-17z"/>
<path d="M5040 7395 c-11 -13 -10 -14 4 -9 9 3 16 10 16 15 0 13 -6 11 -20 -6z"/>
<path d="M672 7380 c0 -14 2 -19 5 -12 2 6 2 18 0 25 -3 6 -5 1 -5 -13z"/>
<path d="M4938 7388 c6 -6 18 -8 28 -6 14 3 12 5 -9 10 -19 3 -25 2 -19 -4z"/>
<path d="M4541 7379 c-1 -18 20 -82 25 -77 2 2 -3 24 -11 48 -7 25 -14 38 -14
29z"/>
<path d="M4681 7380 c0 -8 4 -24 9 -35 5 -13 9 -14 9 -5 0 8 -4 24 -9 35 -5
13 -9 14 -9 5z"/>
<path d="M83 7373 c9 -2 23 -2 30 0 6 3 -1 5 -18 5 -16 0 -22 -2 -12 -5z"/>
<path d="M471 7368 c0 -9 -4 -25 -7 -35 -5 -17 -5 -17 6 0 6 10 9 25 7 35 -4
15 -5 15 -6 0z"/>
<path d="M611 7349 c-6 -18 -11 -37 -10 -43 0 -6 7 7 15 28 8 22 12 41 10 43
-2 2 -9 -10 -15 -28z"/>
<path d="M712 7313 c-12 -37 -20 -69 -18 -71 2 -2 14 27 26 63 12 36 20 68 18
70 -2 3 -14 -26 -26 -62z"/>
<path d="M4400 7366 c0 -16 33 -136 37 -133 4 5 -24 127 -31 135 -3 3 -6 2 -6
-2z"/>
<path d="M4461 7360 c0 -8 4 -24 9 -35 5 -13 9 -14 9 -5 0 8 -4 24 -9 35 -5
13 -9 14 -9 5z"/>
<path d="M172 7340 c0 -14 2 -19 5 -12 2 6 2 18 0 25 -3 6 -5 1 -5 -13z"/>
<path d="M512 7278 c-26 -101 -35 -152 -23 -123 13 31 52 197 48 201 -2 3 -13
-33 -25 -78z"/>
<path d="M241 7303 c-6 -21 -10 -58 -10 -83 1 -42 2 -40 10 18 4 34 11 72 14
82 4 11 4 20 1 20 -3 0 -10 -17 -15 -37z"/>
<path d="M4764 7305 c11 -51 65 -221 65 -206 1 15 -59 223 -66 231 -3 3 -2 -8
1 -25z"/>
<path d="M310 7280 c-6 -23 -9 -44 -7 -46 2 -3 9 14 15 38 6 23 9 44 7 46 -2
2 -9 -15 -15 -38z"/>
<path d="M4701 7304 c0 -11 3 -14 6 -6 3 7 2 16 -1 19 -3 4 -6 -2 -5 -13z"/>
<path d="M156 7273 c-19 -118 1 -216 51 -251 13 -9 37 -27 53 -40 15 -12 43
-25 62 -28 32 -5 32 -5 -6 10 -21 8 -42 20 -46 26 -4 6 -22 19 -40 29 -58 31
-72 70 -67 189 3 56 4 102 2 102 -1 0 -5 -17 -9 -37z"/>
<path d="M661 7284 c0 -11 3 -14 6 -6 3 7 2 16 -1 19 -3 4 -6 -2 -5 -13z"/>
<path d="M451 7274 c0 -11 3 -14 6 -6 3 7 2 16 -1 19 -3 4 -6 -2 -5 -13z"/>
<path d="M580 7233 c-7 -32 -23 -79 -35 -106 -13 -26 -19 -45 -14 -42 21 14
79 188 67 201 -3 2 -11 -22 -18 -53z"/>
<path d="M4571 7274 c0 -11 3 -14 6 -6 3 7 2 16 -1 19 -3 4 -6 -2 -5 -13z"/>
<path d="M4631 7280 c0 -8 4 -24 9 -35 5 -13 9 -14 9 -5 0 8 -4 24 -9 35 -5
13 -9 14 -9 5z"/>
<path d="M4496 7240 c4 -19 11 -44 15 -55 6 -14 7 -9 3 15 -4 19 -11 44 -15
55 -6 14 -7 9 -3 -15z"/>
<path d="M646 7234 c-4 -14 -5 -28 -3 -31 3 -2 8 8 11 23 4 14 5 28 3 31 -3 2
-8 -8 -11 -23z"/>
<path d="M4310 7246 c0 -16 51 -113 71 -135 20 -21 58 -43 104 -61 46 -18 26
0 -27 24 -61 26 -68 34 -114 118 -18 35 -34 59 -34 54z"/>
<path d="M4721 7245 c1 -19 18 -51 18 -35 0 8 -4 22 -9 30 -5 8 -9 11 -9 5z"/>
<path d="M672 7205 c-17 -37 -14 -45 4 -12 9 16 14 31 11 33 -2 2 -9 -7 -15
-21z"/>
<path d="M291 7204 c0 -11 3 -14 6 -6 3 7 2 16 -1 19 -3 4 -6 -2 -5 -13z"/>
<path d="M336 7173 c-17 -50 -16 -72 2 -26 16 42 24 73 19 73 -3 0 -12 -21
-21 -47z"/>
<path d="M426 7189 c-8 -42 0 -50 9 -9 4 17 5 34 2 36 -2 3 -7 -10 -11 -27z"/>
<path d="M4406 7207 c3 -10 9 -15 12 -12 3 3 0 11 -7 18 -10 9 -11 8 -5 -6z"/>
<path d="M4444 7183 c2 -45 10 -61 21 -44 3 6 1 11 -5 11 -6 0 -9 4 -6 8 3 5
1 22 -4 38 -8 26 -8 25 -6 -13z"/>
<path d="M4591 7212 c-1 -19 32 -148 36 -137 1 6 -6 42 -16 80 -11 39 -20 64
-20 57z"/>
<path d="M4662 7175 c0 -11 3 -29 8 -40 11 -25 11 1 0 35 -6 20 -8 21 -8 5z"/>
<path d="M4741 7174 c0 -11 3 -14 6 -6 3 7 2 16 -1 19 -3 4 -6 -2 -5 -13z"/>
<path d="M271 7149 c-6 -18 -9 -34 -7 -36 2 -2 9 10 15 28 6 18 9 34 7 36 -2
2 -9 -10 -15 -28z"/>
<path d="M626 7155 c-9 -26 -7 -32 5 -12 6 10 9 21 6 23 -2 3 -7 -2 -11 -11z"/>
<path d="M2527 6760 c-4 -244 -15 -529 -27 -690 -45 -613 -52 -771 -45 -965 4
-104 11 -212 15 -240 5 -31 6 -14 2 45 -12 161 -6 544 12 780 9 124 23 320 32
435 15 196 32 986 22 1030 -2 11 -7 -167 -11 -395z"/>
<path d="M2642 7139 l-2 -36 98 -6 c53 -4 176 -6 272 -5 l175 2 -230 7 c-126
3 -247 7 -267 8 -34 1 -37 4 -41 34 l-4 32 -1 -36z"/>
<path d="M3570 7162 c0 -6 -8 -13 -17 -15 -16 -4 -16 -5 -1 -6 18 -1 34 16 24
26 -3 4 -6 1 -6 -5z"/>
<path d="M4520 7155 c0 -21 41 -76 72 -95 48 -29 59 -24 12 6 -21 14 -49 42
-61 62 -12 20 -22 33 -23 27z"/>
<path d="M232 7124 c-1 -18 5 -37 13 -44 12 -10 15 -9 15 4 0 10 -4 15 -9 11
-5 -3 -12 9 -14 27 l-4 33 -1 -31z"/>
<path d="M4752 7140 c0 -8 4 -26 8 -40 6 -20 8 -21 8 -5 0 11 -3 29 -8 40 -5
12 -8 14 -8 5z"/>
<path d="M3450 7130 l-45 -7 40 -1 c22 0 51 4 65 8 32 10 5 10 -60 0z"/>
<path d="M471 7104 c0 -11 3 -14 6 -6 3 7 2 16 -1 19 -3 4 -6 -2 -5 -13z"/>
<path d="M3255 7110 l-70 -6 60 -1 c33 -1 83 2 110 7 47 7 47 7 10 7 -22 0
-71 -3 -110 -7z"/>
<path d="M4681 7102 c-1 -8 6 -29 15 -48 12 -24 23 -34 40 -34 12 0 25 4 28 9
3 4 -5 6 -17 4 -26 -5 -39 8 -55 52 -6 17 -11 24 -11 17z"/>
<path d="M3520 7070 c-108 -26 -354 -41 -595 -37 -137 2 -259 6 -270 8 -20 4
-20 -1 -17 -281 3 -328 14 -560 43 -885 11 -126 24 -302 29 -390 l9 -160 -5
175 c-3 96 -13 272 -24 390 -21 230 -37 597 -43 933 l-4 207 61 -5 c233 -18
536 -10 738 20 54 8 103 15 109 15 18 0 3 -380 -22 -570 -6 -41 -13 -93 -15
-115 -12 -102 -71 -416 -95 -509 -6 -21 -8 -40 -6 -42 13 -14 87 360 122 621
25 191 46 636 29 634 -5 -1 -25 -5 -44 -9z"/>
<path d="M4830 7069 c0 -5 5 -7 10 -4 6 3 10 8 10 11 0 2 -4 4 -10 4 -5 0 -10
-5 -10 -11z"/>
<path d="M489 7053 c-13 -16 -12 -17 4 -4 16 13 21 21 13 21 -2 0 -10 -8 -17
-17z"/>
<path d="M1537 7053 c-4 -3 -7 -16 -6 -27 0 -19 1 -19 10 3 10 24 8 36 -4 24z"/>
<path d="M380 7041 c0 -9 -9 -12 -25 -9 -13 3 -22 1 -19 -3 7 -13 42 -11 49 2
4 6 4 13 1 16 -3 4 -6 1 -6 -6z"/>
<path d="M1590 7040 c115 -30 680 -37 780 -10 l35 10 -40 -5 c-160 -19 -541
-14 -770 10 l-40 4 35 -9z"/>
<path d="M2416 7041 c-3 -4 6 -6 21 -3 l25 5 -6 -224 c-3 -123 -11 -335 -18
-472 -6 -136 -8 -250 -4 -254 3 -3 7 23 7 58 1 35 3 76 4 91 5 35 25 646 25
738 0 68 -1 70 -24 70 -14 0 -27 -4 -30 -9z"/>
<path d="M4520 7033 c0 -22 132 -84 147 -69 3 2 -11 8 -31 11 -20 4 -54 20
-76 36 -22 16 -40 26 -40 22z"/>
<path d="M1545 6815 c7 -299 56 -655 144 -1035 69 -298 80 -353 92 -497 13
-148 12 -179 -26 -628 -8 -93 -12 -171 -10 -173 10 -10 55 535 55 663 0 161
-44 434 -109 675 -11 41 -23 98 -27 125 -3 28 -12 77 -20 110 -39 177 -82 527
-94 770 l-9 180 4 -190z"/>
<path d="M423 6966 c-28 -6 -54 -14 -58 -17 -8 -9 97 11 115 22 18 10 11 10
-57 -5z"/>
<path d="M2575 6365 c3 -115 13 -322 24 -460 48 -596 50 -767 12 -1120 -54
-503 -56 -844 -6 -1350 37 -377 44 -638 24 -825 -21 -198 -24 -237 -18 -310 4
-65 5 -58 7 50 0 69 7 150 14 180 9 39 13 140 12 350 -1 243 -6 342 -28 560
-49 477 -47 910 5 1345 39 321 36 566 -12 1140 -11 132 -24 332 -29 445 l-9
205 4 -210z"/>
<path d="M2420 6015 c0 -35 -4 -108 -10 -162 -17 -171 -19 -212 -26 -533 -7
-326 -5 -351 46 -810 6 -47 10 -211 10 -365 0 -267 -15 -491 -50 -770 -16
-123 -27 -465 -21 -610 5 -107 7 -71 13 200 4 237 12 375 26 490 38 301 45
435 39 765 -3 173 -8 333 -11 355 -47 323 -57 674 -31 1055 22 313 29 450 21
450 -3 0 -6 -29 -6 -65z"/>
<path d="M3367 5663 c-61 -254 -71 -322 -71 -508 0 -115 7 -225 22 -340 64
-507 56 -760 -38 -1280 -5 -27 -22 -106 -39 -175 -17 -68 -31 -134 -30 -145 2
-47 76 287 113 510 57 347 60 655 10 1055 -29 242 -35 475 -15 605 7 44 31
156 53 248 22 93 38 170 35 173 -3 3 -21 -61 -40 -143z"/>
<path d="M2722 5240 c0 -19 2 -27 5 -17 2 9 2 25 0 35 -3 9 -5 1 -5 -18z"/>
<path d="M1950 5247 c0 -3 15 -10 32 -16 18 -6 28 -7 23 -2 -12 10 -55 25 -55
18z"/>
<path d="M2242 5233 c-24 -8 -41 -17 -39 -19 4 -5 97 26 97 32 0 6 -11 4 -58
-13z"/>
<path d="M3105 5225 c-40 -14 -40 -14 -5 -9 19 4 39 10 45 15 11 11 10 11 -40
-6z"/>
<path d="M3173 5206 c-4 -7 -19 -19 -31 -25 -13 -7 -21 -15 -19 -18 8 -7 54
26 61 43 7 18 0 18 -11 0z"/>
<path d="M2078 5203 c18 -2 45 -2 60 0 15 2 0 4 -33 4 -33 0 -45 -2 -27 -4z"/>
<path d="M2928 5203 c7 -3 16 -2 19 1 4 3 -2 6 -13 5 -11 0 -14 -3 -6 -6z"/>
<path d="M3023 5203 c9 -2 23 -2 30 0 6 3 -1 5 -18 5 -16 0 -22 -2 -12 -5z"/>
<path d="M1954 5191 c7 -11 46 -35 46 -28 0 3 -12 12 -26 22 -15 9 -23 12 -20
6z"/>
<path d="M2274 5189 c-3 -6 -25 -20 -48 -30 -22 -10 -35 -19 -27 -19 18 0 91
41 91 52 0 11 -8 10 -16 -3z"/>
<path d="M2718 5141 c-5 -35 -7 -89 -7 -120 l2 -56 9 70 c5 39 7 93 6 120 l-3
50 -7 -64z"/>
<path d="M2820 5196 c0 -3 19 -18 42 -33 55 -34 164 -44 218 -19 19 9 24 13
10 9 -14 -4 -61 -7 -105 -8 -65 0 -86 4 -110 21 -42 29 -55 36 -55 30z"/>
<path d="M2024 5149 c11 -7 51 -13 90 -15 l71 -3 -65 8 c-36 4 -76 11 -90 15
-22 6 -23 6 -6 -5z"/>
<path d="M2700 4894 c0 -19 -4 -65 -9 -102 -9 -60 -24 -191 -36 -297 -2 -22
-7 -141 -11 -265 -6 -230 -3 -293 45 -860 11 -129 21 -268 23 -308 1 -41 6
-76 11 -79 5 -3 6 14 3 38 -3 24 -8 96 -11 159 -3 63 -12 183 -20 265 -8 83
-17 188 -20 235 -3 47 -8 117 -11 156 -3 39 -5 180 -5 315 0 227 6 342 31 544
16 133 23 235 16 235 -3 0 -6 -16 -6 -36z"/>
<path d="M1682 4763 c-47 -463 -14 -875 119 -1478 21 -99 46 -211 54 -250 8
-38 30 -140 49 -225 52 -238 59 -289 54 -397 -6 -125 -24 -165 -115 -256 -37
-37 -70 -67 -75 -67 -4 0 -28 -30 -54 -66 -59 -83 -71 -147 -33 -184 33 -31
81 -60 99 -60 8 1 -1 8 -20 16 -19 8 -47 27 -62 41 -61 58 -26 138 122 283
127 125 143 155 148 289 6 141 4 154 -158 881 -41 185 -102 544 -119 695 -25
223 -22 550 8 828 4 37 4 67 1 67 -3 0 -11 -53 -18 -117z"/>
<path d="M2480 4802 c0 -6 9 -119 21 -249 28 -320 23 -707 -15 -1014 -49 -405
-57 -788 -20 -1004 7 -44 11 -57 9 -30 -29 338 -26 613 11 932 50 439 58 778
24 1147 -11 121 -22 222 -25 224 -3 3 -5 0 -5 -6z"/>
<path d="M1741 4315 c2 -160 18 -368 40 -500 48 -304 124 -664 136 -651 3 2
-6 51 -20 108 -87 358 -141 743 -146 1035 -1 87 -5 160 -7 163 -3 2 -4 -67 -3
-155z"/>
<path d="M3196 3160 c-4 -19 -32 -133 -62 -252 -64 -258 -84 -374 -84 -489 0
-152 32 -221 161 -344 111 -106 128 -127 140 -162 6 -18 15 -31 20 -27 19 11
-37 87 -127 169 -220 203 -232 310 -94 868 34 136 60 253 57 260 -2 6 -7 -4
-11 -23z"/>
<path d="M1921 3105 c0 -11 4 -38 9 -60 34 -139 82 -365 96 -455 20 -125 14
-235 -17 -336 -20 -65 -27 -75 -133 -179 -119 -116 -136 -139 -136 -178 0 -30
19 -47 57 -50 23 -2 29 2 31 23 2 14 13 38 24 55 l20 30 -26 -28 c-14 -15 -26
-39 -26 -53 0 -27 -8 -29 -46 -12 -23 11 -25 16 -20 47 4 28 29 59 120 151
137 137 162 185 172 328 8 108 -5 204 -62 472 -48 221 -62 277 -63 245z"/>
<path d="M2713 2783 c-2 -106 -9 -226 -18 -280 -9 -53 -14 -98 -11 -100 6 -6
24 107 35 212 11 119 14 342 4 348 -4 3 -9 -78 -10 -180z"/>
<path d="M2386 2553 c3 -40 12 -92 19 -115 l15 -43 -7 40 c-3 22 -12 74 -19
115 l-13 75 5 -72z"/>
<path d="M2481 2414 c0 -11 3 -14 6 -6 3 7 2 16 -1 19 -3 4 -6 -2 -5 -13z"/>
<path d="M2707 2392 c-10 -10 -17 -32 -16 -48 l1 -29 8 32 c4 18 13 40 20 48
18 21 6 19 -13 -3z"/>
<path d="M2346 2329 c8 -41 14 -78 14 -83 0 -5 3 -7 6 -3 7 7 -16 138 -27 151
-4 4 -1 -25 7 -65z"/>
<path d="M2418 2356 c-3 -13 -2 -43 2 -67 7 -41 8 -40 9 24 1 69 -3 85 -11 43z"/>
<path d="M2491 2364 c0 -11 3 -14 6 -6 3 7 2 16 -1 19 -3 4 -6 -2 -5 -13z"/>
<path d="M2751 2365 c-1 -11 -4 -31 -6 -45 l-6 -25 11 25 c6 13 9 33 7 45 -4
19 -4 19 -6 0z"/>
<path d="M2478 2241 c-1 -32 0 -72 3 -87 4 -17 7 8 8 59 1 99 -5 117 -11 28z"/>
<path d="M2732 2270 c0 -14 2 -19 5 -12 2 6 2 18 0 25 -3 6 -5 1 -5 -13z"/>
<path d="M2702 2139 c-13 -55 -22 -103 -19 -105 6 -6 50 181 46 195 -2 6 -15
-35 -27 -90z"/>
<path d="M2371 2215 c0 -11 8 -47 19 -80 22 -65 19 -31 -4 50 -8 28 -15 41
-15 30z"/>
<path d="M2612 2176 c-1 -28 -7 -87 -14 -133 -14 -97 -3 -156 38 -210 27 -36
72 -63 101 -62 11 0 7 5 -12 12 -59 23 -77 39 -101 90 -26 57 -30 100 -13 175
5 27 8 78 6 113 -3 57 -3 59 -5 15z"/>
<path d="M2498 2018 c5 -91 3 -100 -22 -153 -36 -73 -64 -87 -191 -95 -83 -5
-94 -7 -63 -14 50 -11 170 10 210 37 49 34 71 79 75 161 2 39 0 91 -5 116 -8
35 -9 23 -4 -52z"/>
<path d="M2415 1982 c0 -87 -2 -95 -24 -113 -13 -10 -31 -19 -40 -19 -22 0
-94 -20 -89 -25 2 -2 31 2 63 10 82 19 105 47 104 123 -1 31 -4 71 -8 87 -4
17 -7 -10 -6 -63z"/>
<path d="M2671 1979 c0 -25 4 -60 10 -77 10 -31 47 -62 71 -62 7 0 -1 8 -19
16 -38 19 -43 30 -53 109 -7 58 -7 59 -9 14z"/>
<path d="M2938 1963 c7 -3 16 -2 19 1 4 3 -2 6 -13 5 -11 0 -14 -3 -6 -6z"/>
<path d="M3081 1967 c2 -1 13 -9 24 -17 19 -14 19 -14 6 3 -7 9 -18 17 -24 17
-6 0 -8 -1 -6 -3z"/>
<path d="M3240 1966 c0 -2 8 -10 18 -17 15 -13 16 -12 3 4 -13 16 -21 21 -21
13z"/>
<path d="M1997 1938 c-14 -13 -30 -38 -35 -55 -15 -44 -6 -42 13 3 8 19 25 44
37 54 13 11 20 19 16 20 -4 0 -18 -10 -31 -22z"/>
<path d="M2140 1939 c-7 -11 -10 -23 -7 -25 2 -2 9 7 15 21 14 30 7 33 -8 4z"/>
<path d="M2192 1930 c0 -14 2 -19 5 -12 2 6 2 18 0 25 -3 6 -5 1 -5 -13z"/>
<path d="M2977 1929 c4 -13 8 -18 11 -10 2 7 -1 18 -6 23 -8 8 -9 4 -5 -13z"/>
<path d="M1896 1923 c-6 -14 -5 -15 5 -6 7 7 10 15 7 18 -3 3 -9 -2 -12 -12z"/>
<path d="M3060 1937 c0 -2 7 -18 16 -36 13 -25 13 -35 4 -46 -20 -25 -49 -17
-70 18 -23 38 -27 29 -5 -13 17 -33 48 -39 79 -17 16 12 17 18 7 50 -10 30
-31 60 -31 44z"/>
<path d="M3126 1917 c3 -10 9 -15 12 -12 3 3 0 11 -7 18 -10 9 -11 8 -5 -6z"/>
<path d="M2020 1890 c-10 -24 -10 -33 0 -45 7 -8 17 -15 23 -15 6 0 2 6 -8 14
-17 12 -18 17 -7 41 7 15 11 29 9 32 -2 2 -10 -10 -17 -27z"/>
<path d="M3297 1899 c4 -13 8 -18 11 -10 2 7 -1 18 -6 23 -8 8 -9 4 -5 -13z"/>
<path d="M3250 1905 c0 -5 5 -17 10 -25 5 -8 10 -10 10 -5 0 6 -5 17 -10 25
-5 8 -10 11 -10 5z"/>
<path d="M2175 1881 c-3 -5 -1 -12 5 -16 5 -3 10 1 10 9 0 18 -6 21 -15 7z"/>
<path d="M3335 1871 c-3 -6 -11 -9 -16 -6 -5 4 -9 1 -9 -4 0 -13 10 -14 30 -1
8 5 12 12 8 15 -3 4 -9 1 -13 -4z"/>
<path d="M3151 1848 c-1 -24 3 -28 27 -27 26 0 26 1 5 11 -12 6 -24 18 -26 27
-3 9 -5 4 -6 -11z"/>
<path d="M3230 1844 c-17 -9 -20 -14 -9 -14 9 0 22 7 29 15 15 18 13 18 -20
-1z"/>
<path d="M3391 1822 c-18 -19 -25 -30 -15 -24 22 12 59 51 53 56 -2 2 -19 -12
-38 -32z"/>
<path d="M1880 1842 c0 -12 19 -26 26 -19 2 2 -2 10 -11 17 -9 8 -15 8 -15 2z"/>
<path d="M2078 1833 c7 -3 16 -2 19 1 4 3 -2 6 -13 5 -11 0 -14 -3 -6 -6z"/>
<path d="M2783 1833 c9 -2 23 -2 30 0 6 3 -1 5 -18 5 -16 0 -22 -2 -12 -5z"/>
<path d="M2860 1830 c-21 -7 -21 -8 -5 -9 11 0 27 4 35 9 18 11 5 11 -30 0z"/>
<path d="M2945 1779 c-16 -6 -13 -8 15 -9 19 -1 44 -5 54 -9 11 -4 41 -4 68 0
27 5 60 4 73 -1 23 -9 182 13 194 27 3 3 -5 3 -19 -1 -41 -11 -314 -18 -341
-8 -13 5 -33 6 -44 1z"/>
<path d="M1843 1764 c36 -12 58 -13 85 -6 37 9 37 9 -13 8 -27 0 -66 2 -85 6
-21 4 -16 1 13 -8z"/>
<path d="M1989 1767 c14 -14 99 -14 156 1 27 6 32 10 17 11 -13 0 -43 -4 -66
-10 -31 -7 -54 -8 -81 0 -30 8 -36 8 -26 -2z"/>
<path d="M2802 1758 c32 -7 60 -7 85 0 34 9 28 10 -47 10 -81 0 -83 -1 -38
-10z"/>
</g>
</svg>
