<?xml version="1.0" standalone="no"?>
<!DOCTYPE svg PUBLIC "-//W3C//DTD SVG 20010904//EN"
 "http://www.w3.org/TR/2001/REC-SVG-20010904/DTD/svg10.dtd">
<svg version="1.0" xmlns="http://www.w3.org/2000/svg"
 width="200.000000pt" height="600.000000pt" viewBox="0 0 200.000000 600.000000"
 preserveAspectRatio="xMidYMid meet">
<g transform="translate(0.000000,600.000000) scale(0.100000,-0.100000)"
fill="#000000" stroke="none">
<path d="M1 4453 c0 -1266 3 -1541 13 -1508 21 68 56 126 106 179 l47 51 12
135 c24 265 31 321 52 373 16 41 22 88 29 222 5 105 17 205 29 262 12 51 21
124 21 162 0 153 71 247 222 292 37 11 114 40 171 64 l102 43 3 43 c4 46 -21
114 -44 123 -36 14 -71 144 -45 171 5 6 12 41 15 78 13 142 103 234 241 244
153 12 274 -97 275 -248 1 -24 7 -55 15 -69 29 -51 13 -118 -46 -184 -27 -32
-34 -48 -37 -96 l-4 -57 111 -47 c62 -26 136 -56 165 -66 75 -25 107 -44 142
-82 58 -61 76 -111 84 -238 4 -63 14 -142 23 -175 9 -35 17 -121 20 -205 4
-128 8 -156 35 -235 26 -77 32 -115 42 -263 15 -234 18 -247 73 -305 43 -46
107 -172 107 -212 0 -9 -11 -27 -25 -41 -16 -16 -25 -36 -25 -57 0 -44 -19
-77 -60 -105 -42 -28 -82 -24 -142 17 -63 43 -74 57 -103 145 -25 74 -29 99
-39 226 -2 30 -25 116 -51 190 -65 188 -74 221 -85 335 -6 55 -18 143 -27 195
-16 92 -17 94 -29 65 -41 -100 -46 -377 -10 -558 38 -192 49 -338 43 -551 -7
-200 -15 -265 -67 -511 -27 -131 -31 -166 -28 -275 2 -69 2 -213 2 -320 -1
-186 -3 -203 -39 -365 -81 -371 -81 -368 -5 -438 57 -53 68 -82 46 -125 -17
-34 -44 -45 -149 -63 -81 -13 -151 -8 -175 15 -17 14 -20 14 -35 -2 -39 -38
-270 -12 -314 36 -40 43 -31 78 33 138 l56 51 -4 89 c-3 49 -21 164 -41 255
-20 91 -40 193 -44 225 -8 56 -10 272 -5 522 2 97 -2 133 -33 266 -53 235 -68
392 -62 636 6 192 17 294 52 467 17 81 20 297 6 384 -12 72 -31 142 -37 136
-8 -7 -33 -149 -39 -222 -11 -124 -26 -187 -81 -350 -44 -127 -57 -181 -64
-260 -9 -97 -37 -210 -66 -268 -17 -33 -107 -94 -150 -103 -36 -7 -85 14 -108
48 -9 12 -16 41 -16 64 0 34 -6 49 -30 72 l-30 30 0 -1449 0 -1449 1000 0
1000 0 0 3000 0 3000 -1000 0 -1000 0 1 -1547z"/>
<path d="M911 5346 c-48 -16 -104 -64 -129 -111 -9 -18 -16 -57 -16 -97 -1
-38 -4 -68 -7 -68 -3 0 -11 -11 -17 -24 -15 -33 1 -88 36 -123 43 -43 71 -119
63 -172 l-6 -44 -115 -49 c-63 -26 -140 -56 -170 -64 -157 -46 -210 -115 -215
-283 -2 -53 -11 -127 -20 -166 -9 -40 -19 -136 -22 -225 -5 -127 -10 -168 -30
-225 -18 -51 -29 -124 -43 -275 -11 -113 -20 -215 -20 -228 0 -13 -23 -47 -56
-83 -50 -54 -90 -123 -108 -185 -9 -31 17 -50 50 -35 14 6 23 7 20 2 -4 -5
-11 -33 -16 -61 -12 -61 -3 -83 41 -105 36 -19 57 -14 125 31 39 25 55 43 67
76 29 79 38 122 47 223 7 79 18 127 54 229 62 172 72 217 91 375 8 73 24 175
35 225 10 50 20 105 22 121 2 24 8 13 27 -50 70 -238 81 -427 37 -641 -66
-321 -61 -701 14 -1025 39 -170 51 -276 40 -369 -5 -41 -9 -143 -10 -227 0
-136 4 -172 39 -355 22 -112 47 -232 55 -268 31 -131 19 -179 -61 -238 -38
-29 -44 -38 -41 -65 3 -27 9 -34 43 -45 58 -19 195 -31 228 -19 16 5 32 20 37
32 8 21 -1 227 -16 341 -3 27 0 120 6 205 16 199 16 439 0 609 -7 79 -10 183
-6 250 3 63 9 259 12 434 4 175 10 313 14 305 4 -8 10 -138 13 -289 3 -151 11
-335 18 -409 10 -105 10 -157 1 -240 -15 -135 -15 -522 -1 -687 10 -107 9
-155 -6 -310 -20 -203 -17 -226 32 -245 27 -10 66 -7 178 12 80 14 95 24 95
59 0 22 -9 35 -38 56 -66 48 -77 70 -76 154 1 41 11 109 22 150 64 232 100
518 83 670 -21 189 -15 287 29 501 50 245 60 334 60 539 0 191 -11 312 -41
448 -12 56 -23 152 -26 228 -8 195 12 334 68 469 l12 30 7 -40 c4 -22 16 -85
28 -140 12 -55 26 -149 32 -210 11 -123 18 -152 85 -345 36 -105 48 -157 55
-235 13 -148 62 -285 103 -285 6 0 20 -8 31 -19 35 -31 69 -34 107 -8 29 20
34 29 34 63 -1 21 -4 54 -9 72 -8 32 -7 32 18 21 36 -17 59 2 46 37 -31 81
-68 144 -107 180 -52 50 -57 71 -73 319 -9 138 -16 185 -39 255 -24 71 -29
109 -35 236 -3 84 -13 175 -22 205 -8 30 -19 108 -23 175 -10 138 -26 181 -90
236 -21 18 -65 42 -97 52 -89 30 -308 126 -316 139 -14 23 -6 82 18 135 14 28
29 52 33 52 5 0 19 15 30 34 24 38 28 98 8 118 -8 8 -14 38 -15 75 -1 92 -39
156 -116 195 -51 26 -138 32 -195 14z m175 -32 c17 -7 47 -31 67 -53 54 -59
60 -140 22 -277 -20 -68 -94 -150 -147 -159 -82 -15 -172 47 -209 143 -30 80
-37 207 -14 253 33 66 72 94 148 108 46 9 86 4 133 -15z m-282 -379 c4 -11 -4
-2 -18 20 -26 39 -33 75 -19 89 4 4 13 -15 19 -41 6 -26 15 -57 18 -68z m426
82 c0 -20 -34 -87 -44 -87 -3 0 2 16 10 35 7 19 14 46 14 60 0 15 4 24 10 20
6 -3 10 -16 10 -28z m-293 -208 c19 -6 58 -9 86 -6 44 4 56 10 94 50 49 52 51
52 22 3 -16 -28 -20 -49 -17 -91 2 -42 0 -55 -12 -58 -11 -3 -10 -6 5 -12 11
-4 83 -33 160 -65 77 -31 162 -65 189 -75 111 -40 155 -112 156 -250 0 -61 7
-112 21 -160 15 -51 22 -111 26 -220 4 -126 10 -164 33 -240 31 -99 34 -121
50 -340 6 -82 13 -163 17 -180 3 -18 27 -50 57 -80 34 -33 60 -71 78 -112 39
-93 11 -85 -59 16 -2 2 -6 2 -9 -2 -3 -3 0 -22 6 -43 23 -69 38 -159 29 -174
-5 -8 -9 -13 -9 -10 -1 3 -3 13 -5 22 -3 15 -16 60 -31 107 -3 9 -8 11 -14 5
-6 -6 -2 -33 10 -73 19 -60 19 -81 1 -81 -5 0 -17 30 -26 68 -18 66 -30 91
-40 81 -4 -5 13 -81 30 -134 5 -16 1 -14 -19 8 -14 15 -29 46 -32 67 -4 22
-13 48 -21 57 -13 16 -14 15 -9 -17 3 -19 8 -46 12 -60 5 -18 4 -22 -4 -15
-20 19 -62 187 -68 274 -5 65 -18 120 -55 226 -58 169 -76 243 -89 367 -5 52
-23 162 -40 246 -30 146 -30 153 -15 204 16 56 20 108 7 108 -5 0 -20 -42 -35
-92 -14 -51 -42 -138 -62 -193 -32 -89 -38 -117 -47 -256 -11 -149 -4 -275 17
-345 6 -20 1 -22 -82 -33 -115 -14 -381 -14 -496 0 -83 11 -88 13 -82 33 30
103 30 353 0 481 -9 39 -39 140 -67 225 -28 85 -52 161 -55 169 -2 10 -7 11
-14 4 -7 -7 -5 -29 5 -71 21 -79 20 -95 -9 -247 -13 -72 -31 -184 -40 -250
-16 -131 -43 -235 -99 -392 -26 -72 -39 -131 -46 -200 -10 -101 -43 -240 -62
-258 -7 -7 -9 -1 -4 19 16 67 18 86 9 86 -5 0 -17 -26 -26 -57 -16 -58 -41
-103 -51 -93 -3 3 4 34 14 69 23 73 24 84 9 79 -7 -2 -20 -35 -29 -72 -10 -38
-23 -73 -29 -79 -21 -21 -24 3 -7 61 9 32 16 66 16 76 0 25 -17 11 -24 -21
-20 -81 -28 -103 -36 -103 -16 0 -11 49 14 143 15 59 19 87 11 87 -6 0 -19
-15 -28 -34 -9 -19 -26 -40 -38 -46 -19 -11 -20 -10 -14 12 17 59 58 127 103
171 58 55 57 48 77 306 12 161 20 209 45 287 27 84 30 108 30 222 0 92 6 153
22 222 11 53 21 135 22 185 3 147 49 212 181 250 33 9 112 39 175 65 63 27
129 54 145 61 17 6 24 13 18 16 -8 3 -13 24 -13 56 0 33 -7 66 -20 90 -28 52
-25 53 16 8 19 -22 51 -45 71 -52z m-145 -1540 c118 -14 430 -7 492 11 21 7
42 8 47 3 10 -10 35 -217 44 -364 6 -97 5 -107 -12 -114 -28 -11 -223 -19
-286 -11 l-57 7 0 39 0 38 33 -16 c39 -20 166 -22 217 -4 39 14 86 49 77 58
-3 3 -24 -5 -48 -17 -54 -27 -150 -36 -217 -19 -57 13 -71 26 -82 73 -7 33
-13 27 -24 -24 -8 -36 -47 -51 -141 -56 -71 -4 -86 -2 -130 21 -52 27 -67 27
-45 1 46 -55 186 -70 283 -30 15 6 17 1 17 -34 l0 -41 -152 3 c-84 2 -161 7
-170 11 -16 7 -18 23 -18 110 0 92 23 331 35 365 3 7 11 11 19 8 8 -3 61 -11
118 -18z m52 -504 l119 1 -7 -176 c-3 -96 -11 -258 -17 -360 -8 -143 -8 -215
2 -320 14 -147 15 -414 2 -663 -8 -146 -5 -249 11 -322 l6 -30 -11 28 c-6 15
-15 27 -20 27 -12 0 -12 5 11 -92 24 -101 24 -102 3 -123 -14 -14 -28 -16 -87
-10 -84 8 -154 24 -162 37 -4 5 19 32 50 59 74 67 83 98 63 215 -9 49 -32 163
-51 254 -38 181 -59 371 -50 441 4 24 7 127 8 229 1 176 -1 191 -31 315 -36
147 -63 332 -63 436 l0 70 53 -8 c28 -4 105 -8 171 -8z m381 -1 c55 3 112 8
127 12 25 6 26 5 22 -32 -2 -22 -8 -91 -15 -154 -6 -63 -26 -187 -46 -275 -42
-194 -49 -298 -34 -476 17 -186 3 -338 -54 -595 -67 -299 -62 -373 28 -434 20
-14 37 -32 37 -41 0 -18 -70 -37 -171 -46 -63 -5 -68 -4 -83 19 -13 20 -14 34
-6 83 26 161 30 299 15 505 -19 260 -19 375 1 552 14 135 14 160 -5 426 -12
156 -21 325 -21 376 l0 93 53 -9 c28 -6 97 -8 152 -4z"/>
<path d="M930 5291 c-42 -13 -70 -34 -92 -69 -18 -29 -20 -44 -15 -115 10
-145 54 -220 145 -248 50 -14 99 5 137 55 41 54 54 102 55 202 0 79 -3 95 -22
119 -41 53 -135 78 -208 56z"/>
<path d="M903 4741 c5 -38 2 -52 -11 -64 -22 -20 -222 -106 -329 -141 -139
-46 -159 -73 -166 -222 -3 -54 -13 -126 -22 -159 -12 -40 -20 -119 -24 -235
-4 -96 -10 -181 -15 -188 -14 -23 -46 -146 -51 -197 -2 -27 -9 -115 -15 -195
-15 -193 -21 -212 -81 -269 l-50 -47 21 -19 c17 -15 20 -27 15 -52 -3 -20 -2
-33 5 -34 38 -5 78 -6 92 -2 21 5 34 52 42 155 4 56 22 125 66 257 33 99 60
193 60 209 0 26 -3 29 -25 24 -38 -7 -73 6 -91 33 -21 33 -5 55 41 55 18 0 46
3 63 6 28 6 30 10 37 63 3 31 18 112 32 181 24 123 25 140 7 268 -5 33 -2 47
12 63 17 19 18 19 41 -3 13 -12 23 -28 23 -36 0 -7 24 -89 54 -180 30 -92 60
-194 67 -227 14 -67 18 -313 6 -392 l-8 -52 38 -8 c42 -9 484 -10 523 -1 19 4
25 11 23 29 -23 303 -13 413 61 632 30 89 57 176 61 193 3 18 15 40 27 50 19
18 20 18 39 -5 23 -28 23 -38 4 -115 -14 -55 -14 -69 0 -136 8 -41 25 -130 37
-197 l23 -122 55 -6 c30 -3 63 -10 73 -16 22 -12 22 4 1 62 -11 30 -19 98 -25
209 -5 120 -13 184 -28 235 -14 47 -21 98 -21 156 0 133 -33 187 -137 224 -83
29 -347 138 -361 148 -9 7 -10 24 -6 60 7 49 7 50 -17 43 -56 -16 -87 -16
-128 -2 l-44 16 6 -49z m192 -364 c11 -18 15 -54 14 -156 0 -128 1 -134 26
-167 40 -53 12 -94 -41 -60 -55 37 -64 68 -64 225 0 120 3 147 17 163 21 24
29 23 48 -5z m-141 -9 c19 -27 22 -219 5 -281 -12 -45 -64 -107 -90 -107 -35
0 -40 33 -11 76 25 37 27 47 30 169 3 100 7 134 19 148 21 22 29 22 47 -5z
m81 -702 c0 -178 -2 -196 -20 -215 l-19 -22 -18 23 c-15 20 -18 47 -18 213 0
160 3 194 16 214 l16 23 22 -21 c20 -20 21 -31 21 -215z"/>
<path d="M1063 4359 c-7 -16 -10 -64 -8 -125 2 -54 4 -113 4 -131 1 -36 44
-93 69 -93 15 1 15 2 2 13 -42 34 -45 47 -50 206 -4 129 -7 152 -17 130z"/>
<path d="M918 4233 c-5 -141 -19 -196 -54 -210 -7 -3 -14 -9 -14 -14 0 -19 56
20 70 48 17 34 28 313 12 313 -5 0 -11 -59 -14 -137z"/>
<path d="M986 3834 c-12 -85 0 -378 15 -368 11 6 10 358 0 394 -7 21 -9 17
-15 -26z"/>
<path d="M434 3629 c-4 -7 -25 -9 -58 -6 l-51 6 24 -19 c13 -11 30 -20 38 -20
20 0 73 29 73 40 0 14 -17 13 -26 -1z"/>
<path d="M1540 3631 c0 -6 11 -18 25 -27 20 -13 33 -15 57 -8 46 13 46 30 -1
26 -21 -2 -48 1 -60 7 -13 8 -21 8 -21 2z"/>
<path d="M1657 3584 c-30 -26 -66 -31 -99 -13 -20 11 -21 9 -14 -30 3 -23 31
-115 62 -204 46 -133 58 -183 68 -281 14 -128 27 -153 73 -141 12 3 25 0 28
-5 14 -23 37 12 30 47 -5 26 -2 35 15 45 11 7 20 16 20 20 0 4 -20 26 -45 49
-60 56 -58 50 -80 330 -8 106 -18 196 -22 200 -4 4 -21 -3 -36 -17z"/>
<path d="M676 3222 c-10 -49 -26 -196 -26 -239 0 -35 4 -43 18 -43 10 0 28 -7
41 -16 30 -21 134 -29 188 -15 33 9 45 19 60 49 25 51 47 52 69 3 15 -35 23
-41 67 -52 62 -14 141 -7 201 20 44 19 46 21 46 63 0 44 -16 195 -25 235 -5
21 -9 22 -63 15 -73 -9 -451 -9 -519 0 -50 7 -52 6 -57 -20z"/>
<path d="M650 2846 c0 -10 8 -16 22 -16 12 0 19 1 17 3 -2 1 -12 9 -21 16 -15
12 -18 11 -18 -3z"/>
<path d="M1310 2845 l-25 -14 28 -1 c17 0 27 5 27 15 0 18 1 18 -30 0z"/>
<path d="M650 2690 c0 -114 26 -274 78 -490 12 -52 16 -133 17 -405 l1 -340
43 -190 c44 -192 58 -307 47 -368 -4 -19 -23 -51 -47 -76 -23 -23 -39 -44 -37
-46 8 -9 150 -25 160 -19 7 4 8 26 3 63 -10 71 -10 59 -2 596 6 412 1 564 -19
584 -3 3 -31 8 -61 11 -39 4 -59 10 -67 23 -25 41 86 91 122 55 9 -9 12 -4 13
23 0 18 2 41 3 49 12 58 23 557 14 565 -2 2 -63 5 -135 7 l-133 4 0 -46z"/>
<path d="M794 2055 c-18 -14 -16 -15 26 -13 25 2 55 -1 68 -5 32 -12 29 11 -4
23 -36 14 -67 12 -90 -5z"/>
<path d="M1053 2600 c3 -74 11 -219 18 -321 l13 -186 41 5 c44 5 104 -18 106
-41 1 -6 7 22 15 63 7 41 25 131 39 200 29 136 54 312 55 375 l0 40 -146 0
-147 0 6 -135z"/>
<path d="M1093 2058 c-13 -6 -23 -15 -23 -20 0 -5 10 -6 23 -1 31 11 85 7 103
-8 8 -6 18 -9 22 -5 4 4 -4 16 -17 27 -25 21 -73 24 -108 7z"/>
<path d="M1227 2013 c-5 -4 -39 -8 -75 -8 l-67 0 -13 -130 c-9 -88 -11 -190
-7 -315 12 -361 14 -586 4 -660 -12 -87 -14 -139 -5 -148 7 -6 165 14 174 23
3 2 -7 14 -22 26 -78 61 -84 155 -27 416 55 250 64 318 63 478 0 167 -14 330
-25 318z"/>
</g>
</svg>
