<?xml version="1.0" standalone="no"?>
<!DOCTYPE svg PUBLIC "-//W3C//DTD SVG 20010904//EN"
 "http://www.w3.org/TR/2001/REC-SVG-20010904/DTD/svg10.dtd">
<svg version="1.0" xmlns="http://www.w3.org/2000/svg"
 width="200.000000pt" height="600.000000pt" viewBox="0 0 200.000000 600.000000"
 preserveAspectRatio="xMidYMid meet">
<g transform="translate(0.000000,600.000000) scale(0.100000,-0.100000)"
fill="#000000" stroke="none">
<path d="M920 5381 c-114 -37 -170 -114 -178 -244 -3 -42 -9 -80 -13 -83 -19
-12 -9 -91 16 -125 67 -92 75 -109 75 -153 0 -26 -5 -46 -12 -49 -124 -51
-271 -107 -282 -107 -30 0 -136 -63 -161 -95 -50 -66 -65 -113 -65 -210 0 -49
-7 -119 -16 -155 -8 -36 -18 -132 -23 -215 -8 -134 -13 -160 -44 -245 -40
-110 -44 -129 -52 -265 -4 -55 -11 -138 -16 -184 -8 -82 -10 -86 -53 -130 -62
-65 -96 -137 -96 -206 0 -40 4 -57 15 -61 10 -4 15 -20 15 -44 0 -52 36 -102
85 -119 35 -12 44 -12 75 3 96 45 113 63 143 149 35 101 45 151 51 237 3 56
15 105 49 195 74 199 88 255 102 405 4 53 12 113 20 155 2 11 4 26 4 33 2 29
20 8 31 -35 20 -78 20 -81 20 -263 1 -132 -4 -203 -19 -290 -30 -176 -32 -192
-40 -385 -11 -278 0 -393 70 -720 18 -88 20 -119 14 -260 -14 -351 -10 -391
61 -718 22 -101 34 -185 34 -233 l0 -75 -44 -46 c-58 -60 -73 -95 -55 -129 27
-51 63 -59 241 -55 55 1 71 5 97 26 l30 26 25 -26 c24 -24 29 -25 156 -25
l132 0 29 29 c45 45 38 77 -36 159 -46 51 -48 56 -47 111 0 31 18 134 40 227
68 284 76 352 67 543 -16 328 -13 389 27 556 20 83 41 194 47 247 24 213 7
506 -45 763 -23 118 -25 145 -21 295 5 156 28 300 48 300 7 0 23 -90 34 -185
3 -27 7 -72 10 -98 8 -74 21 -123 66 -253 73 -211 79 -234 79 -302 1 -73 35
-209 66 -264 23 -38 105 -95 150 -104 37 -7 85 15 108 48 9 13 16 43 16 69 0
39 4 47 25 57 20 9 25 19 25 47 0 52 -51 157 -104 213 l-46 49 -10 104 c-5 57
-10 118 -11 134 -4 88 -23 193 -51 272 -27 77 -31 107 -38 248 -5 96 -15 186
-25 225 -10 36 -21 115 -24 176 -6 101 -10 117 -37 160 -36 59 -100 110 -157
124 -23 6 -103 35 -177 64 l-135 53 -3 46 c-3 50 10 79 61 134 38 40 50 127
23 164 -10 15 -16 44 -16 77 0 92 -49 170 -135 214 -43 23 -152 33 -195 19z
m188 -45 c76 -39 114 -105 116 -203 2 -44 7 -68 20 -82 26 -28 15 -85 -22
-125 -55 -59 -77 -108 -74 -165 4 -49 5 -52 45 -69 86 -38 254 -101 299 -112
57 -15 121 -67 150 -123 16 -32 22 -70 28 -167 5 -69 13 -141 20 -160 6 -19
15 -109 19 -200 7 -140 13 -176 35 -240 39 -110 45 -144 61 -347 8 -102 19
-190 24 -197 5 -6 29 -31 53 -56 51 -53 109 -183 90 -202 -9 -9 -18 -8 -38 1
-25 11 -26 10 -20 -11 24 -90 16 -127 -33 -152 -22 -12 -37 -13 -64 -5 -20 5
-39 14 -43 20 -3 6 -17 14 -30 19 -13 5 -33 24 -43 41 -30 49 -61 178 -61 253
0 57 -9 96 -55 230 -73 213 -84 255 -100 410 -8 72 -21 160 -29 196 -9 36 -16
82 -16 103 0 20 -4 37 -10 37 -5 0 -10 -9 -10 -19 0 -11 -16 -70 -36 -133 -32
-104 -36 -126 -41 -278 -5 -157 -4 -173 25 -320 39 -198 56 -411 49 -610 -7
-178 -16 -236 -60 -410 -30 -119 -32 -132 -28 -275 2 -82 4 -233 4 -335 l1
-185 -48 -210 c-82 -356 -82 -350 -6 -424 55 -54 71 -94 47 -119 -13 -12 -43
-16 -139 -19 -182 -4 -178 -11 -165 271 8 156 7 251 -3 380 -9 118 -10 228 -5
356 12 281 10 500 -7 895 l-15 360 -2 -200 c0 -110 -8 -306 -17 -435 -16 -237
-15 -327 6 -589 9 -110 9 -173 0 -260 -26 -268 -29 -338 -20 -441 5 -58 11
-147 14 -198 6 -88 5 -94 -18 -117 -22 -22 -31 -23 -136 -24 -156 -1 -198 24
-153 89 10 14 30 36 46 49 66 56 70 97 27 302 -17 79 -39 186 -50 237 -33 158
-43 305 -31 453 19 226 18 233 -45 519 -7 36 -21 137 -30 225 -14 135 -14 189
-5 345 11 172 29 323 50 423 16 71 22 247 12 352 -7 81 -68 342 -77 333 -8
-10 -46 -228 -55 -316 -13 -140 -32 -226 -75 -342 -63 -169 -75 -213 -83 -310
-11 -131 -68 -290 -103 -290 -6 0 -21 -9 -35 -20 -37 -29 -93 -26 -128 6 -24
22 -27 31 -22 72 2 26 8 55 12 66 7 16 6 17 -14 6 -27 -14 -51 -7 -51 15 0 36
71 164 111 200 51 46 55 61 69 285 10 165 13 182 52 295 37 108 41 133 48 260
5 77 15 171 24 208 9 38 16 110 16 161 0 79 4 99 26 144 29 59 88 107 149 123
38 9 198 69 298 111 l47 20 0 59 c0 60 -25 120 -62 147 -44 32 -60 124 -24
138 9 3 11 21 8 57 -10 120 44 201 158 238 38 13 142 4 178 -15z m-111 -3348
c-2 -35 -3 -9 -3 57 0 66 1 94 3 63 2 -32 2 -86 0 -120z m0 -930 c-1 -40 -3
-8 -3 72 0 80 2 112 3 73 2 -40 2 -106 0 -145z"/>
<path d="M950 5325 c-68 -14 -95 -30 -122 -74 -40 -63 -41 -106 -6 -281 22
-115 79 -179 167 -188 57 -5 95 12 139 62 34 39 59 131 69 256 5 68 3 84 -17
125 -40 82 -129 121 -230 100z m115 -37 l40 -11 -35 -9 c-31 -7 -180 -7 -180
0 0 2 15 9 33 17 39 17 89 19 142 3z m63 -57 c7 -1 24 -12 37 -26 21 -20 25
-33 24 -82 l-1 -58 -13 53 c-22 88 -26 90 -175 90 -148 0 -152 -3 -175 -85
l-13 -48 -1 50 c-1 60 17 91 59 102 24 6 190 9 258 4z m3 -72 c15 -24 10 -29
-31 -29 -23 0 -54 -7 -70 -15 -27 -14 -33 -14 -61 0 -17 9 -48 17 -70 17 -31
0 -39 4 -37 17 4 21 40 26 161 25 72 -1 102 -6 108 -15z m-157 -80 c18 -16 -2
-21 -38 -8 -26 10 -44 10 -71 2 -35 -11 -46 -4 -22 15 26 21 105 16 131 -9z
m186 6 c16 -19 5 -34 -12 -17 -16 16 -61 15 -103 -2 -39 -17 -47 -5 -13 18 29
21 111 21 128 1z m-200 -50 c19 -21 21 -25 7 -25 -9 0 -17 5 -17 10 0 6 -4 10
-10 10 -5 0 -10 -9 -10 -20 0 -29 -30 -38 -47 -14 -8 10 -21 18 -29 16 -12 -3
-13 1 -5 17 21 38 77 42 111 6z m188 9 c12 -8 22 -22 22 -31 0 -15 -2 -14 -18
0 -24 22 -30 21 -34 -5 -4 -31 -39 -30 -54 0 -8 16 -13 19 -16 10 -3 -7 -9 -9
-14 -5 -13 13 34 47 65 47 15 0 37 -7 49 -16z m-83 -80 c32 -17 34 -17 60 0
l27 18 -7 -34 c-18 -85 -82 -143 -152 -135 -72 8 -121 56 -138 137 -7 34 -7
35 12 18 11 -10 28 -18 37 -18 25 0 96 58 96 78 0 10 7 4 16 -14 8 -17 30 -40
49 -50z"/>
<path d="M951 4934 c-49 -72 -38 -94 50 -94 80 0 90 15 55 85 -35 72 -61 75
-105 9z m73 8 c9 -14 -12 -35 -28 -29 -23 9 -20 37 3 37 11 0 22 -4 25 -8z
m36 -62 c0 -6 -27 -10 -60 -10 -33 0 -60 4 -60 10 0 6 27 10 60 10 33 0 60 -4
60 -10z"/>
<path d="M770 5006 c0 -19 9 -44 20 -57 l20 -24 -10 28 c-5 16 -10 42 -10 58
0 16 -4 29 -10 29 -5 0 -10 -15 -10 -34z"/>
<path d="M1217 5024 c-15 -53 -19 -89 -8 -78 17 15 30 69 21 84 -6 9 -9 8 -13
-6z"/>
<path d="M871 4760 c2 -68 -7 -76 -147 -127 l-107 -38 47 -3 c74 -5 53 -22
-27 -22 -190 0 -282 -82 -279 -249 1 -42 -7 -123 -18 -181 -10 -58 -23 -166
-28 -240 -8 -112 -14 -146 -36 -199 -36 -84 -56 -178 -56 -267 0 -95 -19 -273
-31 -295 -5 -10 -31 -40 -57 -66 -44 -45 -112 -173 -92 -173 5 0 25 20 45 43
20 24 54 52 76 61 21 10 48 29 59 43 11 14 23 23 26 20 12 -11 -38 -68 -77
-87 -21 -11 -42 -28 -48 -38 -15 -29 -33 -125 -29 -157 3 -25 7 -19 26 43 12
39 27 72 32 72 13 0 13 -5 -10 -79 -14 -43 -17 -68 -10 -75 14 -14 20 -4 41
70 10 37 21 69 24 72 14 15 14 -12 0 -68 -9 -34 -13 -65 -10 -69 12 -11 34 30
46 86 7 30 16 56 21 59 11 7 10 -34 -2 -75 -14 -49 -3 -52 16 -5 31 74 56 179
64 274 6 79 17 118 60 230 59 155 76 223 85 335 4 44 20 149 36 233 31 166 34
208 19 262 -10 36 -5 74 9 65 5 -2 11 -23 15 -46 10 -63 31 -95 79 -118 55
-27 162 -25 267 5 22 7 23 6 12 -8 -13 -16 -70 -32 -152 -43 -54 -8 -137 9
-164 33 -18 16 -19 16 -12 -3 72 -195 80 -242 81 -460 0 -110 -3 -214 -7 -231
l-7 -31 57 -12 c88 -18 363 -25 481 -12 153 17 150 15 140 59 -15 68 -20 236
-11 343 8 80 20 137 53 236 43 127 43 130 19 112 -39 -29 -129 -42 -201 -29
-66 12 -109 28 -109 42 0 10 -1 11 67 -7 74 -19 138 -19 197 1 54 19 78 50 96
126 16 64 35 64 25 1 -13 -75 -9 -150 13 -258 11 -55 25 -147 32 -205 16 -154
36 -236 97 -404 48 -133 56 -164 63 -261 8 -103 37 -220 63 -253 17 -22 18 -7
2 38 -17 48 -19 70 -7 70 5 0 16 -27 25 -59 15 -54 43 -99 54 -87 2 2 -4 34
-15 70 -11 37 -16 68 -11 72 11 6 17 -8 39 -90 17 -62 40 -87 40 -44 0 14 -7
46 -16 72 -11 33 -13 51 -6 58 7 7 15 -6 26 -43 9 -29 16 -61 16 -71 0 -10 5
-18 11 -18 8 0 10 17 6 58 -12 102 -24 130 -70 158 -51 31 -67 51 -66 78 0 21
0 21 11 0 5 -12 28 -32 50 -45 22 -13 58 -42 79 -64 21 -22 41 -37 44 -33 12
12 -52 134 -87 164 -62 54 -67 68 -78 219 -17 238 -21 267 -56 371 -30 90 -34
119 -40 245 -4 86 -14 176 -25 223 -11 44 -19 115 -19 160 0 44 -5 98 -11 119
-18 67 -91 132 -170 150 -15 4 -78 7 -140 8 -122 1 -222 -17 -288 -50 -36 -19
-51 -19 -51 1 0 4 7 8 17 8 9 0 41 12 71 27 49 24 70 28 180 31 l125 5 -85 32
c-47 18 -104 43 -128 55 l-42 22 4 53 5 54 -29 -24 c-54 -46 -153 -40 -210 12
-17 15 -18 13 -17 -37z m111 -37 c26 -3 60 -1 76 5 28 10 30 8 36 -19 3 -19
19 -37 47 -56 l42 -27 -54 -17 c-30 -9 -74 -26 -98 -39 -35 -19 -47 -21 -60
-12 -51 38 -78 51 -113 57 -21 4 -38 10 -38 13 1 4 15 16 33 27 19 12 36 33
42 53 7 24 13 31 25 26 8 -4 36 -9 62 -11z m-90 -149 c25 -8 52 -22 58 -30 15
-17 12 -17 -39 0 -22 8 -69 18 -103 22 -71 8 -81 11 -72 26 8 13 91 3 156 -18z
m-37 -50 c55 -10 106 -24 113 -31 17 -17 31 -16 74 1 75 32 173 47 287 45 217
-3 280 -59 281 -245 0 -53 6 -111 15 -140 9 -28 20 -121 25 -217 9 -152 14
-179 45 -273 32 -94 37 -125 50 -305 17 -223 26 -255 90 -303 20 -16 34 -30
32 -33 -8 -7 -49 17 -74 43 -40 43 -77 1 -48 -55 8 -17 33 -41 55 -53 22 -13
38 -27 37 -33 -5 -13 -106 -10 -120 4 -5 5 -14 59 -18 118 -7 94 -14 126 -59
247 -57 155 -86 267 -95 371 -3 39 -20 148 -37 243 -28 159 -30 178 -18 228
15 62 4 104 -29 104 -23 0 -37 -16 -47 -55 -4 -17 -13 -43 -21 -59 l-15 -28
-19 31 c-25 41 -43 47 -75 26 -23 -15 -26 -22 -21 -57 l5 -40 -51 6 c-29 4
-69 12 -91 18 -35 11 -40 10 -57 -11 -15 -18 -17 -27 -8 -37 9 -11 8 -19 -5
-32 -23 -26 -21 -33 25 -77 22 -22 50 -56 61 -75 29 -48 48 -63 65 -49 30 25
6 97 -54 161 l-25 26 38 -8 c21 -5 73 -7 115 -5 l76 3 -31 -91 -31 -92 0 -232
0 -232 -65 -8 c-84 -10 -432 -8 -489 3 l-43 9 -2 215 c-1 118 -5 228 -9 243
-4 16 -15 54 -23 85 -30 108 -33 99 33 94 32 -2 82 0 111 6 28 5 52 6 52 2 0
-3 -11 -17 -24 -29 -50 -47 -71 -126 -41 -151 11 -10 19 -4 42 30 15 22 47 62
71 87 37 40 53 73 36 73 -14 0 -96 -94 -116 -133 -11 -23 -23 -37 -25 -30 -8
22 28 82 75 125 26 24 47 48 47 53 0 6 4 16 8 23 11 16 0 49 -18 56 -8 3 -45
-1 -82 -9 -102 -22 -102 -22 -96 24 5 34 2 41 -20 56 -20 13 -30 14 -46 5 -27
-14 -44 -47 -36 -68 5 -13 2 -13 -14 3 -12 11 -29 45 -38 74 -23 69 -46 85
-74 52 -13 -16 -18 -32 -14 -45 18 -62 16 -128 -9 -256 -14 -74 -30 -181 -36
-237 -13 -138 -31 -209 -91 -366 -41 -109 -52 -150 -60 -232 -10 -110 -24
-164 -42 -166 -57 -6 -98 -6 -102 2 -3 4 12 20 34 33 64 41 91 97 58 124 -10
9 -25 3 -62 -23 -64 -46 -81 -44 -29 3 45 40 60 63 69 108 12 58 25 201 25
271 0 90 14 157 52 253 26 65 32 98 43 245 8 94 21 199 29 235 9 36 16 102 16
147 0 96 10 127 53 165 38 35 87 49 192 58 90 7 84 8 220 -16z m-145 -399 c16
-19 4 -35 -26 -35 -38 0 -31 44 7 49 4 1 12 -6 19 -14z m625 -10 c0 -22 -31
-33 -48 -16 -7 7 -6 15 3 26 17 21 45 15 45 -10z m-216 -161 c53 -46 101 -134
72 -134 -5 0 -12 12 -15 26 -4 15 -33 53 -66 85 -64 65 -58 80 9 23z"/>
<path d="M976 4401 c-13 -14 -16 -43 -16 -148 0 -116 2 -133 20 -154 l20 -24
20 25 c17 22 20 40 20 148 0 68 -4 131 -10 141 -14 27 -36 32 -54 12z m34
-151 c0 -87 -4 -140 -10 -140 -6 0 -10 53 -10 140 0 87 4 140 10 140 6 0 10
-53 10 -140z"/>
<path d="M973 3940 c-9 -13 -13 -68 -13 -174 0 -137 2 -156 19 -177 19 -23 20
-23 38 -6 16 15 18 38 21 170 2 110 -1 159 -11 177 -16 32 -39 36 -54 10z m37
-175 c0 -110 -4 -175 -10 -175 -6 0 -10 65 -10 175 0 110 4 175 10 175 6 0 10
-65 10 -175z"/>
<path d="M962 3487 c-28 -30 -28 -42 3 -72 30 -31 39 -31 65 -3 26 28 25 49
-3 76 -29 28 -38 28 -65 -1z m56 -35 c3 -16 -2 -22 -17 -22 -24 0 -35 15 -27
36 9 23 40 13 44 -14z"/>
<path d="M646 3272 c-10 -32 -36 -263 -42 -376 l-6 -113 38 -6 c47 -8 281 -9
309 -1 18 5 20 13 18 85 -1 73 -4 83 -25 97 -29 20 -38 33 -31 45 3 5 15 -1
27 -12 30 -28 94 -28 129 -1 32 26 41 25 27 0 -6 -12 -22 -26 -36 -32 -23 -11
-24 -16 -24 -100 l0 -88 118 0 c102 0 240 13 246 22 6 8 -14 246 -29 348 -22
154 -21 151 -51 139 -14 -5 -94 -14 -177 -21 -152 -12 -376 -1 -454 21 -26 8
-33 6 -37 -7z m331 -51 c73 -1 178 4 233 10 56 6 104 9 106 6 10 -9 34 -194
41 -304 5 -96 4 -113 -9 -118 -9 -4 -76 -7 -149 -8 l-134 -2 -3 56 c-3 52 0
59 28 87 34 35 37 52 12 75 -16 15 -20 15 -47 -3 -37 -24 -74 -25 -113 -3 -25
14 -32 15 -46 4 -23 -19 -20 -44 9 -75 20 -22 25 -37 25 -80 0 -47 -3 -54 -22
-60 -30 -8 -207 -8 -247 0 -30 6 -31 8 -31 58 0 50 25 291 36 351 l5 31 87
-12 c48 -7 146 -13 219 -13z"/>
<path d="M1360 2758 c-19 -5 -101 -9 -182 -10 l-148 -2 0 -115 c0 -64 7 -192
15 -286 19 -223 19 -377 -2 -555 -15 -137 -15 -159 2 -384 11 -148 16 -290 13
-375 -3 -75 -3 -125 -1 -111 5 25 23 53 23 34 0 -5 -9 -52 -20 -102 -23 -105
-18 -126 31 -136 38 -7 59 7 52 34 -8 31 16 23 29 -10 10 -23 16 -27 28 -20
12 7 12 12 2 22 -16 16 -15 28 2 28 8 0 17 -14 21 -30 7 -32 25 -39 44 -16 8
10 9 16 1 21 -5 3 -10 11 -10 16 0 16 21 -1 29 -23 6 -17 9 -18 20 -4 11 13 5
22 -37 63 -27 26 -55 58 -61 70 -21 41 -12 152 24 298 80 319 95 484 65 718
-15 124 -9 231 19 332 35 124 62 287 70 420 4 72 8 130 7 131 -1 0 -17 -3 -36
-8z m0 -105 c0 -87 -22 -230 -59 -391 -16 -70 -32 -142 -36 -160 -4 -18 -10
-30 -14 -27 -5 2 -23 0 -41 -5 -18 -5 -51 -7 -74 -4 l-42 6 -17 232 c-10 127
-17 270 -17 318 l0 87 118 4 c64 1 132 4 150 5 l32 2 0 -67z m-203 -620 c12
-3 37 0 54 6 39 13 50 6 23 -14 -23 -17 -105 -20 -122 -3 -18 18 -15 31 6 23
9 -4 27 -10 39 -12z m123 -364 c0 -159 -13 -246 -74 -502 -52 -213 -48 -294
17 -364 11 -13 15 -23 9 -23 -6 0 -14 5 -18 11 -4 7 -9 8 -17 0 -7 -7 -16 -7
-30 1 -17 9 -24 6 -43 -16 -13 -14 -27 -26 -32 -26 -14 0 -20 56 -8 77 13 22
10 303 -5 499 -11 134 -7 482 7 616 l6 56 34 -14 c38 -16 106 -5 121 19 13 20
32 -180 33 -334z"/>
<path d="M600 2691 c0 -91 33 -315 67 -452 25 -106 27 -126 23 -274 -9 -379
-1 -501 45 -685 21 -82 53 -239 60 -291 10 -72 -9 -127 -67 -186 -34 -34 -49
-57 -45 -67 9 -22 20 -20 32 6 12 26 42 40 32 14 -4 -9 -10 -23 -13 -31 -4
-10 0 -15 10 -15 9 0 21 11 26 24 10 27 28 42 38 31 4 -4 1 -10 -5 -12 -16 -6
-17 -43 -3 -43 6 0 19 13 28 30 20 36 35 39 26 6 -6 -27 15 -37 60 -29 37 7
40 34 17 143 -24 110 -24 107 -10 93 6 -6 15 -26 20 -45 5 -22 6 -13 1 27 -11
96 -8 356 7 531 12 144 12 182 -4 361 -16 188 -16 217 -1 459 19 314 22 470 8
467 -43 -10 -211 -13 -274 -6 l-78 9 0 -65z m330 -81 c0 -86 -11 -293 -24
-460 -3 -30 -5 -58 -5 -62 -2 -16 -78 -28 -110 -17 -24 8 -35 8 -46 -1 -12
-10 -15 -7 -19 12 -2 12 -16 79 -30 148 -41 194 -56 287 -62 390 l-7 95 152
-3 151 -3 0 -99z m-105 -573 c17 -1 44 3 60 8 l30 8 -19 -22 c-22 -25 -99 -29
-128 -7 -25 19 -22 30 5 21 12 -4 36 -8 52 -8z m-3 -61 c18 0 43 3 55 7 19 7
22 3 28 -43 13 -96 20 -335 13 -455 -21 -355 -25 -591 -12 -645 17 -69 17 -90
2 -90 -7 0 -22 12 -33 27 -14 17 -26 23 -35 18 -12 -8 -80 -13 -80 -7 0 2 12
20 28 39 44 58 43 156 -2 358 -58 261 -69 340 -70 485 -1 104 5 248 14 348 0
1 13 -7 30 -19 16 -13 44 -23 62 -23z"/>
</g>
</svg>
