<?xml version="1.0" standalone="no"?>
<!DOCTYPE svg PUBLIC "-//W3C//DTD SVG 20010904//EN"
 "http://www.w3.org/TR/2001/REC-SVG-20010904/DTD/svg10.dtd">
<svg version="1.0" xmlns="http://www.w3.org/2000/svg"
 width="200.000000pt" height="600.000000pt" viewBox="0 0 200.000000 600.000000"
 preserveAspectRatio="xMidYMid meet">
<g transform="translate(0.000000,600.000000) scale(0.100000,-0.100000)"
fill="#000000" stroke="none">
<path d="M920 5381 c-68 -21 -132 -75 -164 -138 -8 -17 -19 -62 -22 -100 -3
-37 -10 -72 -15 -77 -26 -28 9 -158 45 -172 23 -9 48 -77 44 -123 l-3 -43
-102 -43 c-57 -24 -134 -53 -171 -64 -151 -45 -222 -139 -222 -292 0 -38 -9
-111 -21 -162 -12 -57 -24 -157 -29 -262 -7 -134 -13 -181 -29 -222 -21 -52
-28 -108 -52 -373 l-12 -135 -47 -51 c-50 -53 -91 -123 -108 -188 -10 -36 -9
-40 18 -68 24 -23 30 -38 30 -72 0 -23 7 -52 16 -64 23 -34 72 -55 108 -48 43
9 133 70 150 103 29 58 57 171 66 268 7 79 20 133 64 260 55 163 70 226 81
350 6 73 31 215 39 222 6 6 25 -64 37 -136 14 -87 11 -303 -6 -384 -35 -173
-46 -275 -52 -467 -6 -244 9 -401 62 -636 31 -133 35 -169 33 -266 -5 -250 -3
-466 5 -522 4 -32 24 -134 44 -225 20 -91 38 -206 41 -255 l4 -89 -56 -51
c-64 -60 -73 -95 -33 -138 44 -48 272 -74 314 -36 17 16 20 16 35 2 22 -23 94
-28 175 -15 105 18 132 29 149 63 22 43 11 72 -46 125 -76 70 -76 67 5 438 36
162 38 179 39 365 0 107 0 251 -2 320 -3 109 1 144 28 275 52 246 60 311 67
511 6 213 -5 359 -43 551 -36 181 -31 458 10 558 12 29 13 27 29 -65 9 -52 21
-140 27 -195 11 -114 20 -147 85 -335 26 -74 49 -160 51 -190 10 -127 14 -152
39 -226 29 -88 40 -102 103 -145 60 -41 100 -45 142 -17 41 28 60 61 60 105 0
21 9 41 25 57 14 14 25 32 25 41 0 40 -64 166 -107 212 -55 58 -58 71 -73 305
-10 148 -16 186 -42 263 -27 79 -31 107 -35 235 -3 84 -11 170 -20 205 -9 33
-19 112 -23 175 -8 127 -26 177 -84 238 -35 38 -67 57 -142 82 -29 10 -103 40
-165 66 l-111 47 4 57 c3 48 10 64 37 96 59 66 75 133 46 184 -8 14 -14 45
-15 69 -1 106 -60 195 -156 230 -55 21 -128 26 -174 12z m186 -49 c77 -39 115
-103 116 -195 1 -37 7 -67 15 -75 20 -20 16 -80 -8 -118 -11 -19 -25 -34 -30
-34 -4 0 -19 -24 -33 -52 -24 -53 -32 -112 -18 -135 8 -13 227 -109 316 -139
32 -10 76 -34 97 -52 64 -55 80 -98 90 -236 4 -67 15 -145 23 -175 9 -30 19
-121 22 -205 6 -127 11 -165 35 -236 23 -70 30 -117 39 -255 16 -248 21 -269
73 -319 39 -36 76 -99 107 -180 13 -35 -10 -54 -46 -37 -25 11 -26 11 -18 -21
5 -18 8 -51 9 -72 0 -34 -5 -43 -34 -63 -38 -26 -72 -23 -107 8 -11 11 -25 19
-31 19 -41 0 -90 137 -103 285 -7 78 -19 130 -55 235 -67 193 -74 222 -85 345
-6 61 -20 155 -32 210 -12 55 -24 118 -28 140 l-7 40 -12 -30 c-56 -135 -76
-274 -68 -469 3 -76 14 -172 26 -228 30 -136 41 -257 41 -448 0 -205 -10 -294
-60 -539 -44 -214 -50 -312 -29 -501 17 -152 -19 -438 -83 -670 -11 -41 -21
-109 -22 -150 -1 -84 10 -106 76 -154 29 -21 38 -34 38 -56 0 -35 -15 -45 -95
-59 -112 -19 -151 -22 -178 -12 -49 19 -52 42 -32 245 15 155 16 203 6 310
-14 165 -14 552 1 687 9 83 9 135 -1 240 -7 74 -15 258 -18 409 -3 151 -9 281
-13 289 -4 8 -10 -130 -14 -305 -3 -175 -9 -371 -12 -434 -4 -67 -1 -171 6
-250 16 -170 16 -410 0 -609 -6 -85 -9 -178 -6 -205 15 -114 24 -320 16 -341
-5 -12 -21 -27 -37 -32 -33 -12 -170 0 -228 19 -34 11 -40 18 -43 45 -3 27 3
36 41 65 80 59 92 107 61 238 -8 36 -33 156 -55 268 -35 183 -39 219 -39 355
1 84 5 186 10 227 11 93 -1 199 -40 369 -75 324 -80 704 -14 1025 44 214 33
403 -37 641 -19 63 -25 74 -27 50 -2 -16 -12 -71 -22 -121 -11 -50 -27 -152
-35 -225 -19 -158 -29 -203 -91 -375 -36 -102 -47 -150 -54 -229 -9 -101 -18
-144 -47 -223 -12 -33 -28 -51 -67 -76 -68 -45 -89 -50 -125 -31 -44 22 -53
44 -41 105 5 28 12 56 16 61 3 5 -6 4 -20 -2 -33 -15 -59 4 -50 35 18 62 58
131 108 185 33 36 56 70 56 83 0 13 9 115 20 228 14 151 25 224 43 275 20 57
25 98 30 225 3 89 13 185 22 225 9 39 18 113 20 166 5 168 58 237 215 283 30
8 107 38 170 64 l115 49 6 44 c8 53 -20 129 -63 172 -35 35 -51 90 -36 123 6
13 14 24 17 24 3 0 6 30 7 68 1 76 15 111 67 160 65 62 188 78 273 34z"/>
<path d="M953 5329 c-76 -14 -115 -42 -148 -108 -23 -46 -16 -173 14 -253 37
-96 127 -158 209 -143 53 9 127 91 147 159 38 137 32 218 -22 277 -54 60 -122
83 -200 68z m123 -48 c70 -32 84 -59 84 -165 -1 -100 -14 -148 -55 -202 -38
-50 -87 -69 -137 -55 -91 28 -135 103 -145 248 -5 71 -3 86 15 115 45 72 150
99 238 59z"/>
<path d="M767 5044 c-14 -14 -7 -50 19 -89 14 -22 22 -31 18 -20 -3 11 -12 42
-18 68 -6 26 -15 45 -19 41z"/>
<path d="M1210 5025 c0 -14 -7 -41 -14 -60 -19 -44 -12 -45 14 -2 22 35 26 72
10 82 -6 4 -10 -5 -10 -20z"/>
<path d="M830 4895 c0 -3 9 -22 20 -42 13 -24 20 -57 20 -90 0 -32 5 -53 13
-56 6 -3 -1 -10 -18 -16 -16 -7 -82 -34 -145 -61 -63 -26 -142 -56 -175 -65
-132 -38 -178 -103 -181 -250 -1 -50 -11 -132 -22 -185 -16 -69 -22 -130 -22
-222 0 -114 -3 -138 -30 -222 -25 -78 -33 -126 -45 -287 -20 -258 -19 -251
-77 -306 -45 -44 -86 -112 -103 -171 -6 -22 -5 -23 14 -12 12 6 29 27 38 46 9
19 22 34 28 34 8 0 4 -28 -11 -87 -25 -94 -30 -143 -14 -143 8 0 16 22 36 103
7 32 24 46 24 21 0 -10 -7 -44 -16 -76 -17 -58 -14 -82 7 -61 6 6 19 41 29 79
9 37 22 70 29 72 15 5 14 -6 -9 -79 -10 -35 -17 -66 -14 -69 10 -10 35 35 51
93 9 31 21 57 26 57 9 0 7 -19 -9 -86 -5 -20 -3 -26 4 -19 19 18 52 157 62
258 7 69 20 128 46 200 56 157 83 261 99 392 9 66 27 178 40 250 29 152 30
168 9 247 -10 42 -12 64 -5 71 7 7 12 6 14 -4 3 -8 27 -84 55 -169 28 -85 58
-186 67 -225 30 -128 30 -378 0 -481 -6 -20 -1 -22 82 -33 115 -14 381 -14
496 0 83 11 88 13 82 33 -21 70 -28 196 -17 345 9 139 15 167 47 256 20 55 48
142 62 193 15 50 30 92 35 92 13 0 9 -52 -7 -108 -15 -51 -15 -58 15 -204 17
-84 35 -194 40 -246 13 -124 31 -198 89 -367 37 -106 50 -161 55 -226 6 -87
48 -255 68 -274 8 -7 9 -3 4 15 -4 14 -9 41 -12 60 -5 32 -4 33 9 17 8 -9 17
-35 21 -57 3 -21 18 -52 32 -67 20 -22 24 -24 19 -8 -17 53 -34 129 -30 134
10 10 22 -15 40 -81 9 -38 21 -68 26 -68 18 0 18 21 -1 81 -12 40 -16 67 -10
73 6 6 11 4 14 -5 15 -47 28 -92 31 -107 2 -9 4 -19 5 -22 0 -3 4 2 9 10 9 15
-6 105 -29 174 -6 21 -9 40 -6 43 3 4 7 4 9 2 70 -101 98 -109 59 -16 -18 41
-44 79 -78 112 -30 30 -54 62 -57 80 -4 17 -11 98 -17 180 -16 219 -19 241
-50 340 -23 76 -29 114 -33 240 -4 109 -11 169 -26 220 -14 48 -21 99 -21 160
-1 138 -45 210 -156 250 -27 10 -112 44 -189 75 -77 32 -149 61 -160 65 -15 6
-16 9 -5 12 12 3 14 16 12 58 -3 42 1 63 17 91 29 49 27 49 -22 -3 -38 -40
-50 -46 -94 -50 -68 -7 -114 10 -157 58 -20 21 -36 37 -36 34z m185 -131 c17
3 41 8 54 12 24 7 24 6 17 -43 -4 -36 -3 -53 6 -60 14 -10 278 -119 361 -148
104 -37 137 -91 137 -224 0 -58 7 -109 21 -156 15 -51 23 -115 28 -235 6 -111
14 -179 25 -209 21 -58 21 -74 -1 -62 -10 6 -43 13 -73 16 l-55 6 -23 122
c-12 67 -29 156 -37 197 -14 67 -14 81 0 136 19 77 19 87 -4 115 -19 23 -20
23 -39 5 -12 -10 -24 -32 -27 -50 -4 -17 -31 -104 -61 -193 -74 -219 -84 -329
-61 -632 2 -18 -4 -25 -23 -29 -39 -9 -481 -8 -523 1 l-38 8 8 52 c12 79 8
325 -6 392 -7 33 -37 135 -67 227 -30 91 -54 173 -54 180 0 8 -10 24 -23 36
-23 22 -24 22 -41 3 -14 -16 -17 -30 -12 -63 18 -128 17 -145 -7 -268 -14 -69
-29 -150 -32 -181 -7 -53 -9 -57 -37 -63 -17 -3 -45 -6 -63 -6 -46 0 -62 -22
-41 -55 18 -27 53 -40 91 -33 22 5 25 2 25 -24 0 -16 -27 -110 -60 -209 -44
-132 -62 -201 -66 -257 -8 -103 -21 -150 -42 -155 -14 -4 -54 -3 -92 2 -7 1
-8 14 -5 34 5 25 2 37 -15 52 l-21 19 50 47 c60 57 66 76 81 269 6 80 13 168
15 195 5 51 37 174 51 197 5 7 11 92 15 188 4 116 12 195 24 235 9 33 19 105
22 159 7 149 27 176 166 222 107 35 307 121 329 141 13 12 16 26 11 64 l-6 49
44 -16 c24 -8 58 -13 74 -10z m-555 -1134 c0 -11 -53 -40 -73 -40 -8 0 -25 9
-38 20 l-24 19 51 -6 c33 -3 54 -1 58 6 9 14 26 15 26 1z m1161 -8 c47 4 47
-13 1 -26 -24 -7 -37 -5 -57 8 -31 20 -34 42 -4 25 12 -6 39 -9 60 -7z m94
-221 c22 -280 20 -274 80 -330 25 -23 45 -45 45 -49 0 -4 -9 -13 -20 -20 -17
-10 -20 -19 -15 -45 7 -35 -16 -70 -30 -47 -3 5 -16 8 -28 5 -46 -12 -59 13
-73 141 -10 98 -22 148 -68 281 -31 89 -59 181 -62 204 -7 39 -6 41 14 30 33
-18 69 -13 99 13 15 14 32 21 36 17 4 -4 14 -94 22 -200z"/>
<path d="M1047 4382 c-14 -16 -17 -43 -17 -163 0 -157 9 -188 64 -225 53 -34
81 7 41 60 -25 33 -26 39 -26 167 1 102 -3 138 -14 156 -19 28 -27 29 -48 5z
m53 -328 c8 -10 22 -24 30 -31 13 -11 13 -12 -2 -13 -25 0 -68 57 -69 93 0 18
-2 77 -4 131 -2 61 1 109 8 125 10 22 13 -1 17 -130 4 -118 9 -161 20 -175z"/>
<path d="M907 4373 c-12 -14 -16 -48 -19 -148 -3 -122 -5 -132 -30 -169 -29
-43 -24 -76 11 -76 26 0 78 62 90 107 17 62 14 254 -5 281 -18 27 -26 27 -47
5z m31 -145 c-4 -157 -14 -190 -60 -214 -15 -8 -28 -10 -28 -5 0 5 7 11 14 14
35 14 49 69 54 210 3 78 9 137 14 137 6 0 8 -55 6 -142z"/>
<path d="M976 3879 c-13 -20 -16 -54 -16 -214 0 -166 3 -193 18 -213 l18 -23
19 22 c18 19 20 37 20 215 0 184 -1 195 -21 215 l-22 21 -16 -23z m33 -226 c1
-100 -3 -184 -8 -187 -15 -10 -27 283 -15 368 13 89 22 17 23 -181z"/>
<path d="M655 3279 c-12 -34 -35 -273 -35 -365 0 -87 2 -103 18 -110 9 -4 86
-9 170 -11 l152 -3 0 41 c0 35 -2 40 -17 34 -97 -40 -237 -25 -283 30 -22 26
-7 26 45 -1 44 -23 59 -25 130 -21 94 5 133 20 141 56 11 51 17 57 24 24 11
-47 25 -60 82 -73 67 -17 163 -8 217 19 24 12 45 20 48 17 9 -9 -38 -44 -77
-58 -51 -18 -178 -16 -217 4 l-33 16 0 -38 0 -39 57 -7 c63 -8 258 0 286 11
17 7 18 17 12 114 -9 147 -34 354 -44 364 -5 5 -26 4 -47 -3 -92 -26 -535 -22
-610 7 -8 3 -16 -1 -19 -8z m335 -44 c113 0 231 3 262 7 54 7 58 6 63 -15 9
-40 25 -191 25 -235 0 -42 -2 -44 -46 -63 -60 -27 -139 -34 -201 -20 -44 11
-52 17 -67 52 -22 49 -44 48 -69 -3 -15 -30 -27 -40 -60 -49 -54 -14 -158 -6
-188 15 -13 9 -31 16 -41 16 -22 0 -23 41 -8 170 18 149 13 140 73 132 29 -4
144 -7 257 -7z m-301 -402 c2 -2 -5 -3 -17 -3 -14 0 -22 6 -22 16 0 14 3 15
18 3 9 -7 19 -15 21 -16z m651 12 c0 -10 -10 -15 -27 -15 l-28 1 25 14 c31 18
30 18 30 0z"/>
<path d="M620 2711 c0 -104 27 -289 63 -436 30 -124 32 -139 31 -315 -1 -102
-4 -205 -8 -229 -9 -70 12 -260 50 -441 19 -91 42 -205 51 -254 20 -117 11
-148 -63 -215 -31 -27 -54 -54 -50 -59 8 -13 78 -29 162 -37 59 -6 73 -4 87
10 21 21 21 22 -3 123 -23 97 -23 92 -11 92 5 0 14 -12 20 -27 l11 -28 -6 30
c-16 73 -19 176 -11 322 13 249 12 516 -2 663 -10 105 -10 177 -2 320 6 102
14 264 17 360 l7 176 -119 -1 c-66 0 -143 4 -171 8 l-53 8 0 -70z m298 14 c9
-8 -2 -507 -14 -565 -1 -8 -3 -31 -3 -49 -1 -27 -4 -32 -13 -23 -36 36 -147
-14 -122 -55 8 -13 28 -19 67 -23 30 -3 58 -8 61 -11 20 -20 25 -172 19 -584
-8 -537 -8 -525 2 -596 5 -37 4 -59 -3 -63 -10 -6 -152 10 -160 19 -2 2 14 23
37 46 24 25 43 57 47 76 11 61 -3 176 -47 368 l-43 190 -1 340 c-1 272 -5 353
-17 405 -52 216 -78 376 -78 490 l0 46 133 -4 c72 -2 133 -5 135 -7z m-34
-665 c33 -12 36 -35 4 -23 -13 4 -43 7 -68 5 -42 -2 -44 -1 -26 13 23 17 54
19 90 5z"/>
<path d="M1020 2684 c0 -51 9 -220 21 -376 19 -266 19 -291 5 -426 -20 -177
-20 -292 -1 -552 15 -206 11 -344 -15 -505 -8 -49 -7 -63 6 -83 15 -23 20 -24
83 -19 101 9 171 28 171 46 0 9 -17 27 -37 41 -90 61 -95 135 -28 434 57 257
71 409 54 595 -15 178 -8 282 34 476 20 88 40 212 46 275 7 63 13 132 15 154
4 37 3 38 -22 32 -55 -13 -229 -18 -279 -8 l-53 9 0 -93z m320 11 c-1 -63 -26
-239 -55 -375 -14 -69 -32 -159 -39 -200 -8 -41 -14 -69 -15 -63 -2 23 -62 46
-106 41 l-41 -5 -13 186 c-7 102 -15 247 -18 321 l-6 135 147 0 146 0 0 -40z
m-139 -644 c13 -11 21 -23 17 -27 -4 -4 -14 -1 -22 5 -18 15 -72 19 -103 8
-13 -5 -23 -4 -23 1 0 14 41 31 76 31 18 1 42 -8 55 -18z m51 -356 c1 -160 -8
-228 -63 -478 -57 -261 -51 -355 27 -416 15 -12 25 -24 22 -26 -9 -9 -167 -29
-174 -23 -9 9 -7 61 5 148 10 74 8 299 -4 660 -4 125 -2 227 7 315 l13 130 67
0 c36 0 70 4 75 8 11 12 25 -151 25 -318z"/>
</g>
</svg>
