<?xml version="1.0" encoding="UTF-8" standalone="no"?>
<svg
   version="1.0"
   width="600pt"
   height="1201pt"
   viewBox="0 0 600 1201"
   preserveAspectRatio="xMidYMid"
   id="svg42"
   sodipodi:docname="Femme_face_svg.svg"
   inkscape:version="1.4.3 (0d15f75, 2025-12-25)"
   inkscape:export-filename="Femme_face_svg.svg"
   inkscape:export-xdpi="96"
   inkscape:export-ydpi="96"
   xmlns:inkscape="http://www.inkscape.org/namespaces/inkscape"
   xmlns:sodipodi="http://sodipodi.sourceforge.net/DTD/sodipodi-0.dtd"
   xmlns="http://www.w3.org/2000/svg"
   xmlns:svg="http://www.w3.org/2000/svg">
  <defs
     id="defs42" />
  <sodipodi:namedview
     id="namedview42"
     pagecolor="#ffffff"
     bordercolor="#000000"
     borderopacity="0.25"
     inkscape:showpageshadow="2"
     inkscape:pageopacity="0.0"
     inkscape:pagecheckerboard="0"
     inkscape:deskcolor="#d1d1d1"
     inkscape:document-units="pt"
     showgrid="false"
     inkscape:zoom="0.39432537"
     inkscape:cx="54.523502"
     inkscape:cy="696.12564"
     inkscape:window-width="1920"
     inkscape:window-height="1137"
     inkscape:window-x="-8"
     inkscape:window-y="-8"
     inkscape:window-maximized="1"
     inkscape:current-layer="g42">
    <inkscape:page
       x="0"
       y="0"
       width="600"
       height="1201"
       id="page2"
       margin="0"
       bleed="0" />
  </sodipodi:namedview>
  <g
     transform="matrix(0.1,0,0,-0.1,0,1201)"
     fill="#000000"
     stroke="none"
     id="g42">
    <path
       d="m 2925,11739 c -231,-18 -414,-169 -492,-403 -24,-74 -27,-95 -27,-248 -1,-163 -2,-168 -22,-168 -37,0 -68,-44 -68,-98 0,-98 52,-199 134,-258 30,-22 50,-45 59,-71 21,-59 79,-140 148,-208 l 63,-62 v -117 c 0,-110 -1,-118 -24,-141 -47,-47 -183,-102 -398,-160 -157,-43 -214,-71 -278,-141 -133,-146 -159,-250 -220,-869 -66,-673 -77,-737 -190,-1090 -51,-158 -95,-359 -129,-585 -25,-162 -31,-198 -48,-294 -10,-59 -26,-112 -38,-130 -11,-17 -52,-52 -91,-77 -38,-25 -92,-71 -119,-101 -53,-58 -220,-349 -220,-383 0,-27 44,-50 79,-41 15,4 49,27 76,52 l 48,45 -34,-106 c -45,-142 -78,-299 -69,-332 8,-33 97,-123 122,-123 31,0 164,46 184,64 11,9 30,16 44,16 41,0 95,58 137,146 84,180 168,498 168,639 0,82 26,171 156,529 158,433 182,533 264,1076 41,269 62,402 81,499 10,46 13,52 21,35 6,-10 19,-28 29,-39 13,-15 20,-49 28,-125 5,-58 19,-186 31,-285 26,-218 31,-468 11,-540 -8,-27 -52,-139 -97,-247 -174,-410 -236,-590 -269,-780 -22,-125 -38,-402 -31,-548 13,-284 39,-445 153,-980 203,-957 210,-1004 177,-1310 -26,-249 -24,-527 5,-735 30,-211 96,-539 186,-922 24,-106 49,-219 54,-250 35,-203 41,-252 50,-364 12,-157 1,-251 -39,-349 -122,-291 -182,-450 -183,-482 -2,-43 27,-80 76,-98 18,-7 41,-16 52,-21 44,-19 117,-40 133,-38 9,1 36,-3 59,-11 34,-10 48,-10 72,0 25,10 34,10 46,0 10,-8 35,-11 72,-8 72,6 94,30 118,128 23,92 16,304 -15,465 -42,220 -45,364 -26,1230 12,546 16,919 11,1175 -6,318 -4,391 9,477 13,83 16,194 16,580 0,263 4,620 10,793 5,173 10,444 12,602 2,183 7,288 13,288 6,0 11,-63 13,-163 3,-146 15,-377 42,-772 10,-146 11,-622 4,-1790 -2,-379 1,-800 6,-935 29,-762 21,-1174 -28,-1455 -33,-193 -38,-449 -9,-531 30,-87 49,-95 202,-84 11,0 34,-2 50,-5 17,-4 44,-1 60,6 17,7 37,11 45,10 16,-3 80,14 125,34 17,7 44,18 62,25 37,14 68,46 76,79 8,31 -5,68 -125,355 -115,276 -119,295 -98,517 16,175 36,286 125,684 181,812 213,1097 170,1520 -17,161 -21,331 -10,411 21,149 60,352 146,749 165,761 193,940 193,1265 2,453 -47,654 -297,1230 -113,262 -121,296 -113,485 3,83 15,231 26,330 11,99 23,221 27,270 5,80 9,94 34,123 16,18 29,38 30,45 1,32 19,-42 38,-163 109,-688 133,-829 152,-920 22,-103 116,-388 238,-725 76,-209 91,-266 91,-343 0,-105 59,-368 115,-512 72,-188 132,-270 195,-270 17,0 30,-4 30,-9 0,-5 26,-19 58,-31 31,-12 67,-26 80,-31 43,-17 70,-10 116,32 60,55 69,89 50,188 -13,68 -68,265 -89,316 -5,12 8,3 31,-20 67,-68 138,-83 164,-34 10,17 -2,44 -77,180 -102,185 -155,250 -262,320 -110,71 -111,73 -166,456 -38,263 -79,452 -151,680 -35,114 -71,237 -80,272 -24,105 -59,399 -104,871 -48,501 -88,640 -220,770 -69,68 -132,99 -282,139 -207,55 -362,119 -392,163 -12,17 -16,49 -16,136 v 114 l 68,67 c 67,67 138,173 148,222 4,16 19,33 41,44 108,59 182,262 122,339 -11,14 -30,26 -42,26 -22,0 -22,2 -22,157 0,138 -3,168 -24,233 -30,98 -64,164 -114,225 -51,61 -72,79 -151,128 -104,64 -223,88 -381,76 z m 221,-38 c 218,-56 368,-219 412,-446 14,-70 21,-219 10,-202 -4,7 -8,19 -8,27 0,32 -69,157 -109,198 -48,49 -124,88 -190,98 -29,4 -78,-1 -152,-16 l -108,-23 -115,23 c -123,24 -159,22 -234,-11 -100,-43 -166,-124 -208,-254 l -23,-70 5,100 c 7,130 25,202 75,303 47,93 128,177 216,225 119,64 293,84 429,48 z m -261,-356 c 79,-19 154,-19 233,1 212,53 368,-51 432,-288 20,-76 21,-89 10,-177 -18,-142 -65,-315 -112,-411 -85,-174 -321,-360 -457,-360 -77,0 -245,109 -352,228 -97,109 -172,312 -200,540 -10,85 -10,105 5,162 67,257 215,359 441,305 z m -466,-522 c 11,-67 32,-154 57,-236 11,-38 -75,52 -104,108 -34,65 -38,168 -8,191 34,25 42,16 55,-63 z m 1215,61 c 54,-53 11,-201 -83,-288 -35,-33 -37,-29 -16,31 8,22 24,93 36,157 22,119 31,132 63,100 z m -755,-764 c 109,-57 188,-45 328,51 23,16 43,29 45,29 2,0 2,-39 0,-87 -5,-114 8,-156 57,-188 48,-32 196,-95 223,-95 20,0 21,-3 15,-112 -11,-207 -92,-427 -196,-536 -169,-176 -498,-185 -678,-19 -125,116 -223,370 -223,583 v 82 l 33,6 c 17,3 77,29 133,56 124,60 129,68 126,217 l -2,105 38,-30 c 20,-16 66,-44 101,-62 z m -429,-573 c 80,-350 267,-527 555,-527 240,0 406,124 500,375 40,104 65,232 66,333 l 1,89 71,-22 c 40,-12 71,-27 70,-33 -5,-23 17,-504 27,-594 6,-51 20,-142 31,-203 14,-69 19,-130 16,-165 -10,-116 -94,-238 -194,-282 -81,-36 -193,-33 -285,7 -10,4 -18,3 -18,-3 0,-5 23,-20 52,-32 43,-18 64,-21 137,-18 84,4 127,18 180,55 l 23,17 -6,-64 c -4,-36 -9,-81 -12,-101 l -5,-36 -82,13 c -293,46 -902,44 -1190,-5 -26,-4 -49,-5 -51,-2 -2,3 -7,44 -11,90 -3,46 -9,91 -13,99 -4,12 3,10 26,-6 101,-72 231,-84 345,-32 15,7 27,17 27,22 0,11 -3,11 -73,-13 -159,-54 -314,16 -393,178 -38,77 -40,144 -11,318 32,187 47,381 47,601 v 171 l 53,12 c 28,6 59,16 67,21 13,8 16,-4 22,-83 4,-51 17,-132 28,-180 z m -194,11 c -8,-268 -20,-403 -51,-585 -24,-138 -24,-147 -9,-211 8,-37 15,-74 15,-82 0,-8 -15,-103 -35,-210 -19,-107 -51,-303 -71,-435 -66,-442 -110,-620 -240,-970 -138,-372 -156,-432 -165,-545 -19,-238 -105,-543 -203,-715 -21,-37 -89,-87 -102,-74 -3,3 20,76 50,161 56,158 61,178 48,178 -5,0 -35,-79 -68,-176 -41,-123 -66,-180 -80,-189 -29,-18 -75,-27 -75,-15 0,5 29,96 65,202 56,163 69,217 51,197 -2,-2 -34,-94 -71,-204 -37,-110 -72,-206 -77,-212 -13,-16 -60,-17 -76,-1 -7,7 -8,17 -3,27 21,39 138,422 131,426 -4,3 -40,-95 -80,-217 l -72,-223 -25,30 c -23,26 -25,35 -20,94 3,37 22,125 42,196 58,201 68,245 60,253 -4,4 -15,-4 -24,-18 -35,-53 -77,-94 -115,-111 -41,-18 -66,-16 -66,6 0,18 104,209 165,303 50,75 60,85 219,199 62,45 67,62 137,518 38,243 73,387 165,680 71,227 86,330 164,1114 24,242 35,318 56,414 32,142 107,271 192,329 43,30 145,77 166,78 5,0 6,-87 2,-212 z m 1589,171 c 150,-70 241,-226 279,-479 9,-58 30,-240 46,-405 70,-699 86,-795 165,-1045 92,-290 124,-428 171,-755 30,-208 32,-224 43,-277 17,-78 41,-111 128,-169 88,-59 116,-85 159,-149 48,-70 174,-299 174,-314 0,-56 -135,18 -176,97 -17,32 -34,35 -34,7 0,-11 23,-100 51,-197 62,-214 69,-274 39,-322 -12,-18 -24,-31 -27,-28 -2,3 -36,99 -74,213 -59,180 -89,253 -89,219 0,-6 32,-106 71,-223 39,-117 68,-219 65,-227 -7,-19 -60,-20 -75,-2 -6,8 -40,99 -76,203 -81,233 -76,222 -82,207 -2,-6 14,-65 37,-130 80,-228 92,-265 86,-270 -12,-12 -81,24 -93,47 -7,14 -37,95 -67,180 -29,85 -59,156 -66,158 -9,3 -11,-1 -5,-14 4,-11 32,-88 61,-171 57,-162 56,-173 -6,-130 -97,66 -250,542 -250,776 0,68 -18,128 -127,426 -160,436 -209,615 -257,940 -40,271 -109,686 -121,737 -13,51 -13,61 2,95 22,52 20,137 -5,263 -28,134 -40,279 -49,559 l -6,223 24,-7 c 13,-4 51,-20 84,-36 z M 3255,8370 c 150,-8 393,-34 401,-43 1,-1 -4,-60 -12,-130 -27,-263 -36,-445 -24,-503 15,-73 48,-166 100,-284 109,-248 169,-401 157,-405 -24,-7 -225,-36 -357,-51 -189,-22 -520,-29 -665,-15 -104,10 -726,91 -732,96 -3,2 59,156 147,360 110,258 114,276 107,484 -3,97 -13,236 -22,310 -9,73 -14,135 -12,137 8,8 244,35 377,43 194,12 330,12 535,1 z M 2362,6975 c 459,-67 474,-69 773,-69 285,0 430,13 679,59 43,8 80,15 81,15 8,0 95,-288 95,-314 0,-3 -36,-6 -79,-6 -247,0 -529,-118 -796,-333 -38,-31 -82,-59 -98,-63 -32,-7 -45,1 -189,109 -184,140 -356,231 -513,272 -48,13 -108,19 -187,19 -65,1 -118,3 -118,5 0,26 97,341 106,341 2,0 113,-16 246,-35 z m -152,-340 c 207,-31 388,-117 624,-296 l 83,-63 14,-201 c 19,-277 20,-1972 1,-2090 -10,-59 -14,-283 -16,-845 -2,-421 -9,-961 -16,-1200 -12,-453 -6,-628 26,-785 20,-95 44,-306 44,-384 0,-88 -27,-195 -57,-223 -30,-28 -103,-32 -129,-7 -15,15 -15,23 0,94 16,77 16,92 -2,81 -7,-4 -29,-105 -35,-166 -2,-18 -74,-26 -97,-11 -14,10 -12,26 17,114 3,11 0,17 -10,17 -17,0 -37,-54 -37,-98 0,-20 -4,-23 -32,-20 -31,3 -33,5 -30,38 2,19 8,43 14,54 7,12 6,22 -1,29 -11,11 -29,-26 -34,-72 -4,-33 -7,-36 -34,-27 -26,8 -28,27 -12,75 6,18 8,35 4,39 -12,12 -35,-30 -35,-65 0,-18 -2,-33 -4,-33 -3,0 -21,9 -40,21 -68,40 -66,48 91,429 l 88,215 v 165 c -1,182 -26,358 -91,645 -30,132 -69,308 -134,610 -86,398 -110,728 -76,1055 28,269 29,296 6,455 -26,182 -62,372 -141,735 -120,547 -155,736 -179,966 -15,135 -8,552 10,671 13,81 13,82 44,86 61,8 82,7 176,-8 z m 1780,-5 c 24,-15 42,-279 37,-530 -7,-322 -30,-467 -192,-1205 -85,-384 -132,-640 -147,-785 -10,-97 -9,-145 6,-305 50,-532 29,-726 -168,-1605 -108,-485 -126,-598 -126,-807 0,-139 -2,-133 133,-458 116,-281 117,-285 53,-324 -44,-27 -46,-27 -46,12 0,33 -23,77 -34,66 -4,-3 -2,-18 4,-33 17,-45 12,-72 -14,-84 -23,-10 -24,-9 -30,38 -6,43 -20,70 -31,58 -2,-1 2,-25 8,-51 12,-52 6,-63 -33,-69 -20,-2 -26,2 -28,22 -8,59 -23,100 -38,100 -11,0 -14,-5 -9,-17 3,-10 12,-37 18,-61 10,-36 9,-45 -3,-53 -23,-15 -95,-7 -97,11 -6,61 -28,162 -35,166 -18,11 -18,-4 -3,-82 15,-79 15,-79 -7,-98 -27,-22 -89,-17 -118,9 -68,61 -75,279 -20,595 40,230 47,611 26,1475 l -5,180 11,-140 c 11,-160 16,-1100 6,-1250 -5,-74 -4,-89 3,-60 27,108 26,990 -1,1395 -9,137 -10,458 -6,1240 5,717 3,1124 -4,1270 -15,300 -24,819 -15,934 l 7,96 101,74 c 219,161 419,249 627,276 75,9 155,9 170,0 z M 2978,6021 c 1,-121 -2,-222 -6,-225 -5,-3 -12,81 -15,187 -4,106 -10,212 -13,236 -7,41 -6,43 13,33 19,-10 20,-23 21,-231 z m 82,-51 c -5,-257 -6,-273 -12,-165 -14,210 -12,437 3,446 7,4 14,7 14,6 0,-1 -2,-130 -5,-287 z m 37,-1677 c -2,-32 -3,-8 -3,52 0,61 1,87 3,58 2,-29 2,-78 0,-110 z m -10,-220 c -2,-16 -4,-3 -4,27 0,30 2,43 4,28 2,-16 2,-40 0,-55 z m 0,-1195 c -1,-40 -3,-10 -3,67 0,77 1,110 3,73 2,-37 2,-100 0,-140 z"
       id="path1" />
    <path
       d="m 2583,11000 c -24,-10 -43,-24 -43,-30 0,-13 1,-13 43,5 50,21 143,19 216,-4 39,-12 63,-15 67,-9 9,13 -10,25 -70,43 -69,21 -161,19 -213,-5 z"
       id="path5" />
    <path
       d="m 3225,11013 c -41,-9 -95,-37 -92,-47 3,-6 11,-9 18,-7 124,36 206,41 266,16 42,-18 43,-18 43,-6 0,5 -20,18 -45,30 -43,20 -132,27 -190,14 z"
       id="path6" />
    <path
       d="m 2635,10921 c -40,-18 -72,-47 -63,-57 3,-3 23,6 43,21 50,33 68,33 55,-1 -15,-39 7,-78 46,-82 41,-4 64,20 64,64 0,42 11,43 45,3 29,-36 46,-32 22,5 -21,31 -94,66 -138,66 -19,0 -52,-9 -74,-19 z m 117,-18 c 24,-21 23,-48 -2,-73 -16,-16 -25,-18 -40,-10 -29,15 -36,57 -15,80 22,24 33,25 57,3 z"
       id="path7" />
    <path
       d="m 3220,10929 c -30,-12 -91,-69 -85,-80 3,-4 18,6 34,22 29,29 64,42 43,17 -7,-9 -6,-24 2,-48 10,-31 16,-35 48,-38 28,-2 40,2 52,20 19,27 21,59 4,77 -20,21 39,4 74,-21 32,-23 48,-18 27,8 -36,44 -140,66 -199,43 z m 75,-25 c 21,-22 15,-63 -12,-81 -19,-13 -24,-12 -42,6 -26,26 -26,46 -1,71 24,24 34,25 55,4 z"
       id="path9" />
    <path
       d="m 2944,10792 c 1,-50 4,-92 9,-92 9,0 8,139 -2,165 -4,11 -7,-21 -7,-73 z"
       id="path12" />
    <path
       d="m 2910,10585 c 0,-16 60,-45 92,-45 29,0 78,29 78,46 0,11 -5,10 -22,-6 -13,-11 -32,-23 -44,-26 -24,-6 -84,20 -84,36 0,6 -4,10 -10,10 -5,0 -10,-7 -10,-15 z"
       id="path14" />
    <path
       d="m 2826,10441 c -12,-19 19,-24 163,-25 147,-2 198,5 186,24 -4,7 -11,8 -18,2 -16,-13 -299,-13 -314,-1 -7,7 -13,7 -17,0 z"
       id="path16" />
    <path
       d="m 2890,10370 c 0,-17 64,-40 110,-40 45,0 110,23 110,39 0,15 -11,13 -34,-4 -26,-20 -119,-19 -156,0 -19,10 -30,11 -30,5 z"
       id="path17" />
    <path
       d="m 2560,9781 c 0,-5 37,-12 83,-15 130,-11 226,-28 238,-42 14,-17 29,-18 29,-3 0,19 -68,39 -167,49 -54,5 -117,12 -140,15 -24,2 -43,1 -43,-4 z"
       id="path18" />
    <path
       d="m 3277,9774 c -122,-13 -187,-32 -187,-54 0,-6 10,-4 23,5 23,14 101,27 245,40 39,4 75,11 78,16 6,11 4,11 -159,-7 z"
       id="path19" />
    <path
       d="m 2980,9690 c 0,-5 9,-10 20,-10 11,0 20,5 20,10 0,6 -9,10 -20,10 -11,0 -20,-4 -20,-10 z"
       id="path20" />
    <path
       d="m 1389,6451 c -20,-20 -57,-53 -83,-74 -25,-21 -46,-46 -45,-55 0,-14 3,-13 16,6 8,12 44,45 79,72 35,27 68,59 74,70 16,29 0,22 -41,-19 z"
       id="path23" />
    <path
       d="m 4560,6486 c 0,-20 25,-48 68,-78 26,-17 62,-48 79,-68 18,-19 33,-30 33,-23 0,19 -50,72 -84,90 -17,9 -46,32 -63,51 -18,20 -33,32 -33,28 z"
       id="path25" />
    <path
       d="m 2974,7505 c -9,-38 3,-75 26,-75 13,0 22,9 26,25 9,38 -3,75 -26,75 -13,0 -22,-9 -26,-25 z m 36,-20 c 0,-19 -4,-35 -10,-35 -11,0 -14,53 -3,63 11,12 13,8 13,-28 z"
       id="path27" />
    <path
       d="m 2503,3937 c 6,-19 92,-57 130,-57 42,0 107,24 107,39 0,6 -19,1 -42,-9 -57,-26 -75,-25 -142,9 -31,15 -55,24 -53,18 z"
       id="path33" />
    <path
       d="m 2810,715 c 0,-2 5,-15 11,-29 10,-21 8,-31 -10,-62 -25,-43 -18,-60 9,-24 26,33 34,74 20,99 -9,18 -30,29 -30,16 z"
       id="path34" />
    <path
       d="m 2420,671 c -13,-25 -13,-41 0,-41 6,0 10,8 10,18 0,10 5,23 12,30 9,9 9,12 0,12 -6,0 -16,-9 -22,-19 z"
       id="path35" />
    <path
       d="m 3453,3925 c -49,-34 -95,-40 -148,-16 -25,11 -45,16 -45,12 0,-15 66,-41 102,-41 36,0 138,45 138,61 0,14 -12,10 -47,-16 z"
       id="path37" />
    <path
       d="m 3159,696 c -14,-29 -6,-65 20,-97 28,-35 35,-17 10,25 -18,30 -20,42 -11,61 7,15 8,27 2,30 -6,3 -15,-5 -21,-19 z"
       id="path38" />
    <path
       d="m 3566,663 c 8,-33 12,-39 20,-30 9,9 -5,57 -16,57 -6,0 -8,-11 -4,-27 z"
       id="path39" />
  </g>
</svg>
