<?xml version="1.0" encoding="UTF-8" standalone="no"?>
<svg
   version="1.0"
   width="600pt"
   height="900pt"
   viewBox="0 0 600 900"
   preserveAspectRatio="xMidYMid"
   id="svg196"
   sodipodi:docname="femme_dos_svg.svg"
   inkscape:export-filename="femme_dos_svg.png"
   inkscape:export-xdpi="96"
   inkscape:export-ydpi="96"
   xmlns:inkscape="http://www.inkscape.org/namespaces/inkscape"
   xmlns:sodipodi="http://sodipodi.sourceforge.net/DTD/sodipodi-0.dtd"
   xmlns="http://www.w3.org/2000/svg"
   xmlns:svg="http://www.w3.org/2000/svg">
  <defs
     id="defs196" />
  <sodipodi:namedview
     id="namedview196"
     pagecolor="#ffffff"
     bordercolor="#000000"
     borderopacity="0.25"
     inkscape:showpageshadow="2"
     inkscape:pageopacity="0.0"
     inkscape:pagecheckerboard="0"
     inkscape:deskcolor="#d1d1d1"
     inkscape:document-units="pt">
    <inkscape:page
       x="0"
       y="0"
       width="600"
       height="900"
       id="page2"
       margin="0"
       bleed="0" />
  </sodipodi:namedview>
  <g
     transform="matrix(0.1,0,0,-0.1,0,900)"
     fill="#000000"
     stroke="none"
     id="g196">
    <path
       d="m 2891,8818 c -68,-12 -131,-47 -192,-108 -89,-88 -125,-175 -136,-322 -3,-49 -10,-88 -14,-88 -17,0 -39,-61 -39,-107 0,-60 36,-139 79,-176 18,-15 36,-27 40,-27 4,0 18,-19 31,-41 12,-23 42,-66 66,-95 52,-64 68,-120 62,-213 -10,-130 -70,-174 -313,-226 -200,-42 -281,-88 -338,-192 -39,-73 -52,-145 -87,-478 -55,-529 -66,-593 -124,-744 -51,-128 -69,-200 -132,-519 -30,-157 -61,-294 -68,-304 -7,-10 -45,-41 -85,-68 -78,-55 -120,-106 -156,-187 -13,-29 -37,-72 -54,-97 -36,-51 -39,-82 -11,-91 21,-7 53,7 88,38 24,23 28,17 10,-16 -17,-32 -48,-157 -48,-194 0,-18 5,-43 12,-57 12,-27 68,-66 95,-66 47,0 197,67 230,102 59,63 126,246 148,402 23,170 10,132 215,581 51,110 116,322 129,415 10,70 67,392 99,555 7,39 8,37 40,-80 43,-164 73,-338 79,-471 7,-139 -1,-168 -115,-399 -175,-355 -212,-490 -212,-777 0,-202 24,-350 125,-783 83,-359 122,-546 139,-683 18,-137 21,-401 6,-503 -22,-155 -30,-340 -20,-474 12,-162 32,-270 110,-595 116,-483 138,-623 120,-749 -15,-110 -42,-160 -121,-234 -60,-56 -69,-69 -69,-99 0,-44 21,-64 85,-78 28,-6 88,-22 135,-36 143,-41 252,-28 284,35 22,41 20,144 -3,222 -39,132 -45,604 -14,1119 23,382 22,590 -5,816 -19,157 -20,199 -12,320 36,519 54,1262 36,1500 -7,86 -6,102 7,107 8,3 21,0 29,-6 12,-10 13,-37 6,-162 -15,-247 8,-1025 42,-1443 9,-107 7,-145 -12,-290 -28,-215 -29,-467 -4,-857 32,-500 25,-942 -16,-1095 -24,-85 -28,-194 -9,-228 37,-69 137,-80 299,-33 56,16 120,32 142,36 45,8 70,35 70,77 0,20 -14,39 -60,79 -77,69 -117,143 -132,248 -19,131 3,269 131,792 59,240 87,391 101,544 12,125 8,210 -22,480 -19,172 -20,205 -9,345 7,85 23,219 36,297 25,149 30,171 139,638 102,438 123,642 92,891 -23,188 -61,299 -201,582 -99,202 -115,251 -115,357 0,96 33,319 66,440 39,148 52,191 53,178 1,-6 19,-108 41,-225 22,-117 47,-258 55,-313 31,-201 62,-290 243,-691 80,-178 92,-212 102,-290 17,-131 44,-239 84,-333 47,-108 70,-139 120,-161 22,-11 52,-25 66,-33 33,-19 91,-37 116,-36 34,1 78,34 97,71 15,31 16,45 7,102 -6,37 -19,89 -30,117 l -20,51 26,-21 c 32,-25 92,-28 101,-5 3,9 -7,33 -24,57 -17,23 -49,79 -73,125 -45,87 -110,156 -182,193 -23,12 -45,33 -53,52 -8,18 -42,167 -74,332 -43,217 -71,333 -101,415 -89,247 -86,233 -140,735 -23,209 -47,408 -55,443 -20,83 -55,151 -102,193 -67,61 -105,75 -355,133 -92,21 -173,61 -204,101 -29,39 -40,112 -29,200 5,45 14,65 41,94 18,21 49,64 68,95 19,31 49,67 67,79 92,62 131,226 67,282 -20,18 -23,30 -25,100 -5,196 -108,352 -273,417 -59,23 -203,31 -289,16 z m 309,-54 c 192,-91 267,-296 209,-577 -25,-125 -60,-215 -111,-287 -34,-48 -113,-118 -123,-109 -2,2 3,28 10,57 26,97 29,192 11,282 -20,95 -41,143 -84,183 -56,53 -158,54 -212,2 -81,-78 -112,-298 -66,-476 7,-27 9,-49 4,-49 -17,0 -117,102 -142,145 -87,148 -131,415 -92,560 28,107 88,195 166,245 76,49 120,59 250,56 105,-2 120,-4 180,-32 z m -95,-477 c 44,-50 66,-125 72,-238 7,-118 -11,-211 -68,-364 -48,-126 -56,-206 -26,-264 9,-19 15,-36 13,-38 -2,-3 -29,21 -60,51 -122,122 -206,398 -193,633 6,122 27,181 77,227 35,32 43,34 96,32 53,-2 60,-6 89,-39 z m -531,-57 c 4,-28 17,-86 30,-130 14,-49 19,-79 12,-77 -21,6 -73,95 -80,137 -7,42 8,120 23,120 5,0 11,-23 15,-50 z m 907,-9 c 3,-72 -18,-137 -59,-183 -27,-31 -30,-20 -12,40 10,31 23,90 30,131 11,67 14,73 26,56 8,-10 14,-30 15,-44 z m -603,-557 c 38,-113 86,-197 142,-248 68,-61 148,-88 112,-38 -49,69 -50,161 -3,290 27,75 39,96 63,108 l 29,15 -8,-28 c -4,-15 -7,-62 -7,-103 0,-60 4,-83 23,-116 40,-71 143,-120 345,-163 54,-11 122,-31 150,-44 67,-31 131,-97 155,-162 21,-57 44,-196 61,-365 25,-263 62,-570 76,-640 9,-41 33,-120 55,-175 51,-130 70,-203 135,-535 36,-186 60,-283 72,-300 11,-14 49,-45 85,-70 76,-52 118,-102 157,-185 15,-33 39,-75 54,-94 31,-41 32,-51 7,-51 -27,0 -67,35 -107,94 -43,62 -42,45 11,-103 41,-115 54,-205 36,-240 -19,-35 -32,-21 -52,59 -25,102 -69,221 -79,215 -4,-3 10,-59 31,-124 50,-157 56,-189 36,-197 -8,-3 -29,2 -46,10 -16,9 -39,16 -49,16 -24,0 -73,38 -70,53 4,22 -60,197 -72,197 -4,0 8,-43 26,-97 19,-53 32,-99 29,-102 -9,-9 -38,13 -61,47 -57,84 -105,243 -133,442 -6,48 -23,105 -47,155 -230,503 -256,575 -294,811 -11,71 -34,196 -50,279 -63,321 -63,320 -33,472 23,119 25,158 7,141 -6,-7 -40,-170 -53,-255 -4,-32 -28,-129 -51,-215 l -44,-156 -85,-9 c -112,-11 -663,-10 -813,0 l -116,9 -12,51 c -7,29 -27,104 -45,167 -18,63 -43,179 -55,258 -21,128 -32,164 -46,149 -3,-2 6,-65 19,-138 27,-150 26,-167 -18,-399 -14,-74 -41,-225 -60,-335 -39,-229 -70,-327 -175,-560 -40,-88 -92,-204 -116,-257 -33,-74 -46,-117 -54,-185 -15,-133 -38,-227 -77,-319 -38,-91 -68,-141 -95,-158 -32,-20 -31,4 6,100 20,54 34,99 31,102 -8,8 -10,3 -53,-113 -27,-73 -48,-116 -64,-128 -29,-22 -62,-14 -49,11 9,17 91,233 91,239 0,2 -4,3 -9,3 -9,0 -84,-193 -95,-247 -9,-38 -40,-53 -63,-30 -14,14 -11,30 32,157 26,78 44,144 41,147 -3,4 -8,4 -10,2 -6,-7 -74,-222 -81,-256 -7,-36 -16,-41 -35,-18 -27,32 -8,149 51,308 16,44 26,83 23,86 -4,3 -9,0 -11,-7 -9,-23 -67,-94 -94,-115 -15,-10 -34,-17 -42,-15 -14,2 -11,10 13,46 16,24 45,76 65,116 38,78 83,128 160,179 27,18 57,43 67,57 13,17 39,129 82,340 58,292 78,365 155,572 31,85 59,285 106,758 30,311 48,371 128,447 61,58 120,83 264,113 169,35 238,64 291,124 49,57 64,176 31,264 l -9,23 28,-20 c 22,-15 36,-42 60,-117 z m 147,-1438 c 267,0 414,3 444,11 l 43,11 -5,-41 c -43,-331 -43,-358 -7,-463 11,-31 62,-145 114,-253 167,-350 181,-406 181,-731 -1,-262 -7,-305 -100,-703 -143,-610 -164,-728 -172,-977 -4,-132 -1,-205 11,-295 47,-344 31,-549 -79,-1005 -134,-558 -129,-529 -130,-705 0,-156 1,-162 29,-223 20,-44 47,-79 86,-115 31,-29 62,-61 68,-73 18,-33 -9,-61 -66,-70 -26,-4 -72,-15 -102,-26 -80,-27 -179,-39 -223,-27 -81,22 -96,92 -53,259 28,112 31,155 30,610 -1,213 -7,434 -18,576 -22,318 -21,526 5,721 22,173 22,263 -7,698 -18,275 -29,924 -19,1107 l 7,137 25,-10 c 96,-36 331,34 501,150 67,46 192,172 192,195 0,9 -34,-19 -77,-63 -126,-127 -293,-223 -438,-251 -35,-7 -96,-9 -145,-6 -130,9 -131,9 -190,-1 -66,-10 -173,0 -243,23 -139,45 -293,146 -392,258 -41,46 -55,56 -55,41 0,-12 36,-55 93,-110 148,-143 326,-230 498,-242 47,-4 83,-1 97,6 19,10 21,8 29,-36 12,-70 8,-845 -5,-1073 -34,-590 -36,-658 -18,-795 28,-211 31,-398 10,-730 -14,-218 -19,-413 -18,-710 l 1,-410 27,-99 c 59,-209 4,-283 -180,-241 -219,49 -274,70 -274,102 0,8 31,45 68,81 175,172 176,303 7,1006 -42,176 -83,363 -91,415 -26,171 -29,367 -8,556 22,197 24,466 5,600 -20,142 -67,370 -126,615 -126,529 -157,749 -135,984 19,212 52,314 203,626 91,189 127,288 127,354 0,23 -7,94 -15,157 -9,63 -18,135 -22,160 l -5,46 58,-10 c 36,-7 216,-11 459,-11 z"
       id="path16" />
    <path
       d="m 2660,7421 c 0,-4 23,-30 50,-55 168,-157 439,-154 607,7 55,53 44,70 -12,18 -74,-68 -203,-121 -294,-121 -100,1 -211,45 -290,116 -49,44 -61,51 -61,35 z"
       id="path19" />
    <path
       d="m 2562,7384 c 117,-241 133,-295 132,-449 0,-99 -4,-128 -21,-165 -32,-70 -104,-143 -173,-176 -33,-15 -60,-32 -60,-36 0,-30 139,41 186,95 111,129 130,292 59,502 -31,95 -96,227 -114,233 -7,2 -12,1 -9,-4 z"
       id="path20" />
    <path
       d="m 3432,7378 c -22,-28 -74,-144 -104,-231 -29,-82 -32,-104 -33,-207 0,-114 1,-117 38,-192 24,-49 53,-90 80,-113 45,-40 127,-85 152,-85 30,0 14,18 -30,35 -62,23 -149,105 -179,168 -70,146 -53,304 59,543 39,84 46,117 17,82 z"
       id="path21" />
    <path
       d="m 2065,6000 c -7,-12 35,-30 70,-30 23,0 80,39 58,40 -6,0 -15,-4 -18,-10 -8,-13 -61,-13 -85,0 -13,7 -21,7 -25,0 z"
       id="path22" />
    <path
       d="m 3810,6006 c 0,-10 59,-36 83,-36 14,0 35,9 48,21 21,18 21,20 4,13 -25,-10 -83,-10 -112,1 -13,4 -23,5 -23,1 z"
       id="path23" />
    <path
       d="m 4300,4751 c 0,-18 81,-243 92,-255 16,-19 7,17 -32,132 -38,109 -60,154 -60,123 z"
       id="path26" />
    <path
       d="m 3004,5830 c 0,-179 2,-252 3,-162 2,89 2,235 0,325 -1,89 -3,16 -3,-163 z"
       id="path27" />
    <path
       d="m 2417,5291 c -50,-3 -86,-10 -85,-16 2,-5 14,-9 28,-7 77,8 1030,12 1165,4 88,-5 164,-7 169,-4 5,3 0,10 -10,16 -21,12 -1108,18 -1267,7 z"
       id="path29" />
    <path
       d="m 2826,2993 c -4,-5 -44,-10 -89,-13 l -82,-5 51,-12 c 56,-13 112,-4 134,22 12,15 0,22 -14,8 z"
       id="path31" />
    <path
       d="m 3190,2982 c 0,-21 104,-30 145,-12 14,6 3,9 -40,9 -33,1 -70,4 -82,7 -13,4 -23,2 -23,-4 z"
       id="path32" />
  </g>
</svg>
