<?xml version="1.0" encoding="UTF-8" standalone="no"?>
<svg
   version="1.0"
   width="300pt"
   height="600pt"
   viewBox="0 0 300 600"
   preserveAspectRatio="xMidYMid"
   id="svg61"
   sodipodi:docname="Homme_Face_svg.svg"
   inkscape:export-filename="Homme_Face_svg.png"
   inkscape:export-xdpi="96"
   inkscape:export-ydpi="96"
   xmlns:inkscape="http://www.inkscape.org/namespaces/inkscape"
   xmlns:sodipodi="http://sodipodi.sourceforge.net/DTD/sodipodi-0.dtd"
   xmlns="http://www.w3.org/2000/svg"
   xmlns:svg="http://www.w3.org/2000/svg">
  <defs
     id="defs61" />
  <sodipodi:namedview
     id="namedview61"
     pagecolor="#ffffff"
     bordercolor="#000000"
     borderopacity="0.25"
     inkscape:showpageshadow="2"
     inkscape:pageopacity="0.0"
     inkscape:pagecheckerboard="0"
     inkscape:deskcolor="#d1d1d1"
     inkscape:document-units="pt">
    <inkscape:page
       x="0"
       y="0"
       width="300"
       height="600"
       id="page2"
       margin="0"
       bleed="0" />
  </sodipodi:namedview>
  <g
     transform="matrix(0.1,0,0,-0.1,0,600)"
     fill="#000000"
     stroke="none"
     id="g61">
    <path
       d="m 1394,5931 c -73,-19 -155,-93 -175,-159 -6,-20 -13,-72 -16,-115 -5,-65 -10,-83 -29,-102 -41,-41 -26,-153 27,-203 15,-14 26,-30 23,-34 -6,-9 28,-69 52,-93 11,-11 14,-35 12,-92 -3,-86 3,-78 -103,-121 -27,-11 -81,-35 -120,-53 -38,-17 -82,-33 -97,-35 -92,-12 -213,-83 -257,-152 -45,-71 -53,-99 -52,-198 1,-52 -6,-113 -14,-145 -29,-103 -43,-215 -49,-379 -8,-205 -7,-201 -44,-291 -33,-79 -40,-129 -67,-429 -20,-216 -26,-240 -65,-264 -90.54552,-48.3065 -123.91933,-136.0384 -165,-222 -14,-27 -25,-54 -25,-60 0,-18 27,-25 56,-14 39,15 44,12 33,-19 -7.12113,-45.4153 -3.81401,-26.7241 -12,-86 -9,-50 5,-101 35,-127 19,-16 31,-18 68,-13 25,3 57,15 72,26 15,10 33,19 41,19 31,0 82,89 106,186 5,21 19,66 30,98 14,39 21,84 21,133 0,79 19,150 93,343 59,158 87,271 98,410 6,69 21,181 34,250 13,69 27,143 31,165 7,45 20,32 28,-27 2,-18 15,-67 29,-108 47,-143 50,-163 51,-398 1,-199 -2,-240 -22,-337 -50,-242 -56,-310 -55,-675 0,-319 2,-353 23,-450 27,-129 36,-164 50,-215 7,-22 18,-65 25,-95 8,-30 21,-82 30,-115 18,-65 17,-111 -6,-343 -14,-139 -15,-122 27,-412 8,-59 48,-235 83,-375 33,-126 29,-158 -27,-251 -26,-43 -51,-86 -55,-94 -4,-8 -14,-26 -22,-40 -20,-35 -19,-77 4,-97 45,-41 56,-46 112,-49 32,-1 61,-4 66,-6 4,-3 46,-4 92,-3 69,1 86,5 97,20 13,18 14,18 35,-1 18,-16 35,-19 113,-18 148,3 203,10 235,33 58,41 53,94 -18,208 -87,141 -84,130 -66,241 9,53 27,135 40,182 13,47 37,155 54,240 29,150 29,161 24,360 -12,394 -11,413 28,531 12,35 23,71 25,79 2,8 12,51 23,95 10,44 29,168 41,275 19,165 22,224 17,390 -4,107 -11,220 -17,250 -5,30 -12,91 -16,135 -3,44 -16,125 -29,180 -20,88 -23,129 -24,342 -1,194 2,255 14,305 9,35 21,67 26,72 5,6 9,20 9,32 0,12 7,39 16,59 8,21 19,57 23,79 6,40 7,39 28,-54 29,-129 41,-204 53,-340 14,-157 19,-186 41,-252 11,-31 22,-66 24,-76 2,-11 12,-41 23,-68 76,-187 88,-228 103,-364 10,-87 38,-204 64,-267 20.3061,-57.1409 29.6312,-127.634 90,-159 11,-4 31,-14 45,-24 14,-10 46,-20 72,-24 42,-6 49,-4 77,23 17,17 31,38 32,48 2,32 -3,96 -8,117 -3,12 -7,34 -11,51 -4,27 -3,28 11,17 22,-18 65,-22 77,-7 8,9 1,32 -25,80 -35.8111,80.2173 -72.7633,166.4226 -156,210 -44,14 -65,111 -79,371 -9,171 -23,239 -69,356 -28,69 -29,82 -31,228 -1,175 -12,272 -42,380 -15,53 -20,99 -19,158 3,122 -38,217 -123,284 -36,29 -142,73 -195,81 -16,3 -47,14 -68,26 -21,11 -78,36 -128,56 -49,20 -97,40 -105,44 -10,6 -16,29 -18,80 -3,64 0,75 22,101 13,16 30,46 37,67 6,21 20,43 29,50 9,7 27,36 40,64 27,64 23,124 -10,151 -19,15 -23,30 -24,92 -2,60 -8,85 -35,140 -20,40 -45,73 -62,83 -54.0186,48.8475 -169.7624,76.0991 -285,54 z m 242,-46 c 28,-18 60,-49 76,-75 29,-47 54,-152 42,-172 -4,-6 -6,-41 -5,-77 1,-36 -3,-111 -9,-165 -8,-83 -15,-105 -37,-135 -38,-50 -51,-63 -106,-105 -88,-66 -179,-46 -288,63 -68,69 -77,98 -85,301 -8,182 -7,196 20,254 31,68 52,90 111,121 45,23 60,25 141,23 81,-3 96,-6 140,-33 z m -423,-462 c 3,-35 1,-63 -3,-63 -5,0 -18,26 -30,57 -22,59 -21,102 2,131 11,12 14,9 19,-24 4,-21 9,-67 12,-101 z m 588,110 c 13,-35 4,-98 -22,-143 l -20,-35 5,64 c 4,35 6,81 6,102 0,45 16,51 31,12 z m -395,-413 c 60,-30 130,-27 185,8 24,16 51,37 59,47 14,17 15,12 20,-56 6,-86 -6,-76 179,-152 l 104,-42 -129,-12 c -141,-13 -246,-32 -239,-43 2,-3 39,0 82,8 46,9 142,16 233,16 154,1 155,1 220,-30 131,-63 170,-130 181,-309 4,-68 16,-155 28,-200 17,-62 23,-127 30,-295 8,-199 10,-219 34,-271 36,-81 54,-174 67,-339 24,-316 36,-371 90,-403 65,-39 98,-87 178,-260 2,-5 -9,-7 -24,-5 -27,3 -39,15 -80,84 -23,37 -22,8 1,-71 30,-105 37,-225 12,-225 -8,0 -20,39 -35,107 -22,105 -27,121 -37,111 -6,-6 33,-185 46,-211 12,-22 3,-37 -21,-37 -25,0 -32,16 -60,133 -13,53 -27,97 -32,97 -13,0 -10,-19 21,-122 26,-90 27,-98 10,-98 -20,0 -59,45 -59,69 0,32 -33,151 -42,151 -11,0 -4,-38 22,-123 16,-51 16,-58 3,-55 -29,6 -54,54 -94,184 -27,87 -43,161 -49,229 -9,100 -23,148 -115,400 -48,132 -63,192 -70,279 -13,168 -18,209 -47,356 -21,105 -31,182 -30,238 0,45 -1,82 -3,82 -2,0 -9,-26 -15,-57 -7,-32 -17,-64 -23,-71 -21,-26 -83,-50 -147,-56 -71,-7 -205,8 -227,26 -15,12 -29,5 -19,-10 12,-19 105,-37 196,-37 96,0 146,12 183,44 18,15 18,14 11,-24 -4,-22 -25,-94 -47,-160 l -40,-120 -4,-234 c -4,-210 3,-322 23,-374 18,-48 -515,-72 -786,-36 -47,6 -91,12 -97,12 -16,0 -16,13 2,112 10,60 12,132 8,285 -5,215 -4,207 -71,435 -17,55 -29,101 -28,103 2,1 25,-8 52,-20 78,-36 280,-29 344,11 28,18 3,21 -36,5 -28,-12 -70,-17 -149,-18 -95,0 -116,3 -157,22 -36,18 -50,32 -62,63 -9,22 -16,50 -16,64 0,13 -5,27 -10,30 -7,4 -9,-19 -4,-72 5,-64 1,-99 -20,-193 -33,-151 -44,-222 -52,-355 -7,-116 -32,-219 -86,-360 -71,-185 -99,-286 -108,-388 -11,-128 -76,-340 -115,-377 -14,-13 -27,-21 -30,-18 -3,3 6,43 19,89 13,46 23,86 21,87 -12,12 -25,-18 -41,-95 -18,-86 -39,-123 -69,-123 -19,0 -20,-2 14,113 16,53 25,100 20,103 -10,6 -9,9 -40,-111 -12,-49 -27,-96 -32,-102 -10,-14 -47,-18 -47,-5 0,11 48,205 56,226 5,13 3,17 -6,14 -12,-4 -60,-171 -60,-212 0,-15 -3,-16 -15,-6 -8,7 -15,29 -15,49 0,42 24,172 40,218 17,47 6,64 -15,23 -24,-48 -55,-80 -77,-80 -26,0 -23,12 28,110 43,84 77,124 148,175 36,25 50,96 65,320 16,221 26,279 66,384 34,91 35,94 44,319 9,202 13,236 36,312 23,72 26,95 20,153 -13,137 49,249 172,309 62,29 78,33 178,36 69,3 150,-2 218,-12 59,-9 118,-16 130,-15 86,3 -184,46 -283,45 -33,-1 -60,2 -60,5 0,3 57,30 128,59 70,30 133,58 140,63 7,6 12,35 12,79 v 69 l 28,-26 c 15,-14 45,-34 68,-45 z m 538,-1877 c 12,-38 47,-375 53,-504 l 6,-137 -54,-11 c -72,-16 -300,-24 -372,-14 l -59,8 -1,134 -1,135 28,7 c 34,9 66,37 66,57 0,10 -8,6 -27,-12 -32,-32 -60,-40 -121,-33 -33,4 -53,12 -69,31 -23,28 -33,32 -33,16 0,-15 48,-54 73,-60 21,-6 22,-11 25,-142 l 3,-136 -88,-7 c -99,-9 -260,-1 -344,16 l -56,11 5,137 c 3,129 43,496 55,507 2,3 51,-2 108,-10 226,-33 555,-29 724,8 33,7 63,14 67,15 4,0 9,-7 12,-16 z m -447,-641 c 3,-263 10,-502 18,-540 5,-30 20,-352 19,-422 -1,-30 -6,-98 -12,-150 -13,-114 -8,-416 8,-555 17,-140 4,-517 -21,-634 -7,-31 -13,-59 -13,-63 -1,-11 -16,-22 -16,-12 0,5 -7,41 -16,79 -9,39 -17,99 -19,135 -1,36 -6,137 -10,225 -6,127 -4,188 10,295 26,204 28,421 4,555 -16,97 -17,129 -9,265 5,85 14,196 20,245 7,65 24,723 20,818 0,4 3,7 8,7 4,0 8,-111 9,-248 z m -354,-41 c 117,-10 171,-9 279,5 l 38,4 -5,-197 c -3,-109 -13,-305 -22,-436 -16,-242 -14,-343 7,-502 14,-101 10,-226 -16,-505 -15,-158 -15,-206 -5,-325 6,-77 11,-160 11,-186 0,-25 9,-85 20,-135 26,-120 26,-180 0,-194 -12,-6 -33,-10 -48,-8 -23,2 -26,7 -23,28 2,14 4,30 5,35 0,6 -3,11 -9,13 -5,1 -12,-14 -15,-35 -5,-35 -8,-38 -39,-41 l -34,-3 6,40 c 6,47 -8,46 -21,-2 -7,-26 -13,-31 -32,-29 -31,3 -32,5 -21,36 9,21 8,26 -4,26 -9,0 -15,-9 -15,-23 0,-30 -6,-36 -32,-29 -17,4 -19,11 -15,39 4,20 2,31 -4,28 -5,-4 -9,-15 -9,-26 0,-22 -11,-24 -28,-7 -28,28 -19,55 88,237 l 43,73 -12,80 c -7,44 -27,141 -45,216 -83,338 -99,517 -71,756 19,164 15,198 -45,408 -56,195 -87,396 -91,593 -1,101 -2,97 19,86 9,-5 75,-14 145,-20 z m 842,-221 c -21,-208 -26,-235 -87,-459 -50,-183 -50,-185 -44,-290 17,-271 18,-396 6,-484 -15,-112 -49,-281 -89,-442 -50,-206 -50,-205 15,-315 81,-137 96,-173 84,-204 -10,-28 -30,-35 -30,-12 0,8 -5,18 -11,22 -7,4 -10,-4 -7,-22 2,-23 -1,-30 -18,-32 -16,-2 -23,4 -28,22 -9,36 -23,33 -18,-4 4,-28 2,-30 -27,-30 -26,0 -31,4 -31,24 0,14 -5,28 -10,31 -6,4 -9,-6 -8,-27 3,-32 1,-33 -32,-33 -24,0 -35,5 -36,15 -1,8 -2,25 -2,38 -1,12 -7,22 -12,22 -6,0 -8,-15 -4,-40 l 7,-40 h -36 c -55,0 -71,23 -64,89 4,31 15,90 26,131 29,113 38,491 17,705 -20,200 -20,367 -1,512 15,114 12,233 -15,583 -5,69 -10,203 -10,297 v 173 l 28,-5 c 111,-17 362,-9 423,13 23,9 24,7 27,-32 2,-22 -4,-115 -13,-206 z"
       id="path3"
       sodipodi:nodetypes="cccsccscccccccccccssccccccsccsccsccccccccccccccssccccccccccscccscccccccccsccccccccccsccccccccccccccccccccccscccccccccsccccccccccsccccccccsccccccccccccccccccccccscscscscsssccccccccscccccsccsccccsccccccccccscccccccssccscsccscsscsccsccccccccccccsccsccccccccccccscccscccccccccccccccccccscccccsccscccccccccscccsccsccccccsscccssccccccccccccccccscccccssccsccsccscccccsccccc" />
    <path
       d="m 1292,5767 c -23,-10 -62,-77 -62,-103 0,-11 8,-2 19,21 33,74 39,77 165,69 67,-4 134,-2 169,5 77,14 99,4 131,-60 28,-56 37,-41 10,17 -28,58 -30,58 -230,59 -101,0 -192,-4 -202,-8 z"
       id="path4" />
    <path
       d="m 1288,5594 c -16,-8 -28,-19 -28,-25 0,-6 8,-5 22,2 21,11 94,8 131,-6 13,-5 17,-2 17,13 0,32 -94,43 -142,16 z"
       id="path5" />
    <path
       d="m 1575,5601 c -18,-4 -31,-14 -33,-25 -3,-15 0,-17 20,-9 29,10 117,10 141,-1 11,-5 17,-4 17,3 0,15 -62,41 -92,40 -13,-1 -36,-4 -53,-8 z"
       id="path6" />
    <path
       d="m 1295,5530 c -10,-11 -15,-23 -10,-28 4,-4 10,-1 12,6 7,19 30,14 36,-9 7,-25 28,-21 43,9 10,20 12,20 27,4 10,-9 17,-11 17,-5 0,19 -42,43 -76,43 -18,0 -38,-8 -49,-20 z"
       id="path7" />
    <path
       d="m 1569,5531 c -14,-11 -20,-23 -15,-28 5,-4 11,-2 13,5 3,6 11,12 19,12 9,0 13,-4 10,-9 -8,-12 21,-34 34,-26 5,3 10,15 10,26 0,23 8,24 32,2 22,-20 24,-1 2,21 -21,22 -77,20 -105,-3 z"
       id="path8" />
    <path
       d="m 1445,5481 c 1,-34 5,-64 9,-68 9,-10 7,100 -3,116 -5,8 -8,-10 -6,-48 z"
       id="path9" />
    <path
       d="m 1445,5340 c 8,-13 65,-13 85,0 11,7 0,10 -38,10 -33,0 -51,-4 -47,-10 z"
       id="path10" />
    <path
       d="m 1392,5269 c 4,-13 181,-16 188,-4 3,6 -35,11 -93,12 -60,1 -97,-2 -95,-8 z"
       id="path11" />
    <path
       d="m 1446,5228 c 3,-4 20,-8 39,-8 19,0 36,4 39,8 3,5 -15,9 -39,9 -24,0 -42,-4 -39,-9 z"
       id="path12" />
    <path
       d="m 1480,4598 c 0,-18 -3,-78 -6,-133 -4,-60 -2,-110 4,-125 8,-19 11,15 11,133 1,86 -1,157 -4,157 -3,0 -5,-15 -5,-32 z"
       id="path15" />
    <path
       d="m 1071,4286 c -10,-12 -8,-17 8,-26 29,-15 68,5 50,26 -6,8 -19,14 -29,14 -10,0 -23,-6 -29,-14 z"
       id="path16" />
    <path
       d="m 1847,4293 c -13,-13 -7,-32 13,-38 25,-8 51,11 43,31 -5,14 -44,19 -56,7 z"
       id="path17" />
    <path
       d="m 1321,4058 c -18,-18 -44,-53 -59,-78 -14,-25 -29,-47 -33,-50 -3,-3 -9,-15 -13,-27 -12,-37 7,-26 27,15 27,58 41,79 81,123 46,49 42,63 -3,17 z"
       id="path18" />
    <path
       d="m 1626,4058 c 16,-18 31,-35 34,-38 8,-7 63,-100 77,-130 6,-14 12,-19 12,-12 3,42 -111,212 -142,212 -6,0 2,-15 19,-32 z"
       id="path19" />
    <path
       d="m 1470,3780 c 0,-121 4,-220 9,-220 5,0 9,99 10,220 1,148 -2,220 -9,220 -7,0 -10,-74 -10,-220 z"
       id="path20" />
    <path
       d="m 1467,3443 c -15,-14 -6,-23 23,-23 32,0 40,14 14,24 -20,8 -29,8 -37,-1 z"
       id="path21" />
    <path
       d="m 470,2942 c -19,-19 -43,-38 -55,-42 -13,-6 -15,-9 -5,-9 31,-2 110,57 110,81 0,14 -14,6 -50,-30 z"
       id="path22" />
    <path
       d="m 2471,2944 c 28,-30 71,-54 96,-54 10,0 -1,9 -24,19 -23,11 -48,29 -55,40 -7,12 -19,21 -27,21 -10,0 -7,-8 10,-26 z"
       id="path23" />
    <path
       d="m 1210,1692 c 0,-13 57,-42 83,-42 13,0 31,7 38,16 12,15 10,16 -19,10 -21,-5 -42,-2 -63,8 -37,18 -39,19 -39,8 z"
       id="path25" />
    <path
       d="m 1720,1684 c -16,-9 -38,-12 -59,-8 -31,5 -33,4 -22,-10 8,-9 25,-16 38,-16 26,0 83,29 83,42 0,11 -10,9 -40,-8 z"
       id="path26" />
  </g>
</svg>
