<?xml version="1.0" encoding="UTF-8" standalone="no"?>
<svg
   version="1.0"
   width="300pt"
   height="600pt"
   viewBox="0 0 300 600"
   preserveAspectRatio="xMidYMid"
   id="svg61"
   sodipodi:docname="Homme_Face_svg.svg"
   inkscape:export-filename="Homme_TestF.svg"
   inkscape:export-xdpi="96"
   inkscape:export-ydpi="96"
   xmlns:inkscape="http://www.inkscape.org/namespaces/inkscape"
   xmlns:sodipodi="http://sodipodi.sourceforge.net/DTD/sodipodi-0.dtd"
   xmlns="http://www.w3.org/2000/svg"
   xmlns:svg="http://www.w3.org/2000/svg">
  <defs
     id="defs61" />
  <sodipodi:namedview
     id="namedview61"
     pagecolor="#ffffff"
     bordercolor="#000000"
     borderopacity="0.25"
     inkscape:showpageshadow="2"
     inkscape:pageopacity="0.0"
     inkscape:pagecheckerboard="0"
     inkscape:deskcolor="#d1d1d1"
     inkscape:document-units="pt">
    <inkscape:page
       x="0"
       y="0"
       width="300"
       height="600"
       id="page2"
       margin="0"
       bleed="0" />
  </sodipodi:namedview>
  <g
     transform="matrix(0.1,0,0,-0.1,0,600)"
     fill="#000000"
     stroke="none"
     id="g61">
    <path
       id="path85"
       d="m 1931.9971,3258.999 c -4,-1 -34.002,-8 -67.002,-15 -169,-37 -497.999,-40.998 -723.999,-7.998 -57,8 -106.0029,13.0049 -108.0029,10.0049 -12,-11 -51.99027,-378.0118 -54.99027,-507.0118 l -5.00977,-136.9921 56.00094,-11.001 c 84,-17 245.0039,-24.9961 344.0039,-15.9961 l 88.0079,7.0019 -3.003,135.9961 c -3,131 -4.0049,136.002 -25.0049,142.002 -25,6 -72.9931,45 -72.9931,60 0,16 9.9883,11.9892 32.9883,-16.0108 16,-19 36.0088,-26.9961 69.0088,-30.9961 61,-7 88.996,1.003 120.996,33.003 19,18 26.9971,21.997 26.9971,11.997 0,-20 -31.9912,-47.997 -65.9912,-56.997 l -28.0078,-7.002 1.0107,-135 0.9961,-134.0039 59.0039,-7.998 c 72,-10 299.9971,-1.9961 371.9971,14.0039 l 53.9941,11.001 -5.9912,136.9921 c -6,129 -41.0127,466.0088 -53.0127,504.0088 -3,9 -7.997,15.9961 -11.997,15.9961 z M 985.01953,2586.4453 c -7.45001,-0.4955 -6.73926,-18.8564 -6.02051,-91.4502 4,-197 34.99608,-397.998 90.99608,-592.998 60,-210 64,-244.003 45,-408.003 -28,-239 -11.999,-417.9912 71.001,-755.99117 18,-75 38,-172.00586 45,-216.00586 l 11.9971,-79.99512 c 0,0 187.0019,-23.222 187.0019,-22.99804 0,26 -5.001,108.99121 -11.001,185.99121 -10,119 -9.9902,167.00488 5.0098,325.00488 26,279 29.9961,404.0049 15.9961,505.0049 -21,159 -23.002,260.0019 -7.002,502.0019 9,131 19.002,326.9961 22.002,435.9961 l 4.9951,196.9922 -37.998,-3.999 c -108,-14 -161.9942,-14.9951 -278.9942,-4.9951 -70,6 -136.0049,14.9951 -145.00485,19.9951 -5.90625,3.0937 -10.0633,5.6431 -12.97852,5.4492 z m 1007.66597,-1.626 c -2.8859,-0.097 -6.9169,-2.5273 -12.4951,-5.4492 -9,-5 -75.0049,-13.9951 -145.0049,-19.9951 -117,-10 -170.9941,-9.0049 -278.9941,4.9951 l -37.998,3.999 4.9951,-196.9921 c 3,-109 13.0019,-305.0108 22.0019,-436.0108 16,-242 13.9981,-343.0019 -7.0019,-502.0019 -14,-101 -10.0039,-225.9902 15.9961,-504.99028 15,-158 15.0097,-206.00488 5.0097,-325.00488 -6,-77 -11.0009,-159.99121 -11.0009,-185.99121 0,-0.22396 187.0019,22.99805 187.0019,22.99805 l 11.9971,79.99511 c 7,44 27,141.00586 45,216.00586 83,337.99995 99.001,516.99125 71.001,755.99125 -19,164 -15,198.0029 45,408.0029 56,195 86.9961,395.998 90.9961,592.998 0.7343,74.1719 1.4748,91.7195 -6.504,91.4502 z" />
    <path
       d="m 1406,5120 c 60,-30 130,-27 185,8 24,16 51,37 59,47 14,17 15,12 20,-56 6,-86 -6,-76 179,-152 l 104,-42 -129,-12 c -141,-13 -246,-32 -239,-43 2,-3 39,0 82,8 46,9 142,16 233,16 154,1 155,1 220,-30 131,-63 170,-130 181,-309 0,0 -251.505,-197.5416 -256,-195 -1.7409,0.9844 -9,-26 -15,-57 -7,-32 -17,-64 -23,-71 -21,-26 -83,-50 -147,-56 -71,-7 -205,8 -227,26 -15,12 -29,5 -19,-10 12,-19 105,-37 196,-37 96,0 146,12 183,44 18,15 18,14 11,-24 -4,-22 -25,-94 -47,-160 l -40,-120 -4,-234 c -4,-210 3,-322 23,-374 18,-48 -515,-72 -786,-36 -47,6 -91,12 -97,12 -16,0 -16,13 2,112 10,60 12,132 8,285 -5,215 -4,207 -71,435 -17,55 -29,101 -28,103 2,1 25,-8 52,-20 78,-36 280,-29 344,11 28,18 3,21 -36,5 -28,-12 -70,-17 -149,-18 -95,0 -116,3 -157,22 -36,18 -50,32 -62,63 -9,22 -16,50 -16,64 0,13 -5,27 -10,30 -0.0186,-6.6507 -255,198 -255,198 -13,137 49,249 172,309 62,29 78,33 178,36 69,3 150,-2 218,-12 59,-9 118,-16 130,-15 86,3 -184,46 -283,45 -33,-1 -60,2 -60,5 0,3 57,30 128,59 70,30 133,58 140,63 7,6 12,35 12,79 v 69 l 28,-26 c 15,-14 45,-34 68,-45 z"
       id="path82"
       sodipodi:nodetypes="ccccccccccccscccccsccsccccsccccccccccscccccccsccsccc" />
    <path
       id="path81"
       d="m 1446.123,5918.4814 c -40.5,-0.7968 -57.3779,-6.2314 -91.1279,-23.4814 -59,-31 -79.9912,-52.9961 -110.9912,-120.9961 -27,-58 -28.0098,-72.0039 -20.0098,-254.0039 8,-203 17.0049,-231.9961 85.0049,-300.9961 109,-109 200.003,-129.0029 288.003,-63.0029 55,42 67.996,55 105.996,105 22,30 29.002,52 37.002,135 6,54 9.9941,129 8.9941,165 -1,36 1.0098,70.9922 5.0098,76.9922 12,20 -12.9971,125.0019 -41.9971,172.0019 -16,26 -48.0107,57 -76.0107,75 -44,27 -58.9951,30.0029 -139.9951,33.0029 -20.25,0.5 -36.378,0.7491 -49.878,0.4834 z m 335.4493,-359.6191 c -6.7899,-0.3004 -11.5723,-13.2568 -11.5723,-37.8662 0,-21 -2.0059,-66.9971 -6.0059,-101.9971 l -4.9951,-63.999 19.9951,34.9951 c 26,45 35.002,107.9981 22.002,142.9981 -6.7969,17.6718 -13.7979,26.118 -19.4238,25.8691 z m -590.6543,-4.4092 c -2.2968,0.029 -5.1397,-2.3349 -8.9209,-6.4599 -23,-29 -23.9922,-71.9864 -1.9922,-130.9864 12,-31 25,-57.0117 30,-57.0117 4,0 5.9883,28.0029 2.9883,63.0029 -3,34 -7.9971,80.001 -11.9971,101.001 -3.2813,21.6563 -5.6933,30.3984 -10.0781,30.4541 z" />
    <path
       id="path1"
       d="m 1243.4033,442.79297 -42.9931,-73.00781 c -107,-182 -116.0079,-208.99707 -88.0079,-236.99707 17,-17 28.0079,-14.99805 28.0079,7.00195 0,11 3.9941,22.00098 8.9941,26.00098 6,3 7.999,-8.00782 3.999,-28.00782 -4,-28 -2,-34.99414 15,-38.994138 26,-7 32.0069,-0.996094 32.0069,29.003908 0,14 6,22.99805 15,22.99805 12,0 12.999,-5.00098 3.999,-26.00098 -11,-31.000002 -10.0088,-33.00586 20.9912,-36.00586 19,-2 25.0068,3.003905 32.0068,29.00391 13,48 26.9912,49.00683 20.9912,2.00683 l -5.9912,-40.004881 33.9991,3.00293 c 31,3 33.9941,6.000975 38.9941,41.000981 3,21 10,35.99511 15,34.99511 6,-2 9.0088,-6.99316 9.0088,-12.99316 -1,-5 -3.0098,-21.00977 -5.0098,-35.00977 -3,-20.999998 0,-25.993161 22.9981,-27.993161 15,-2 36.0029,1.998047 48.0029,7.998047 26,14.000004 26,74.003904 0,194.003904 -11,50 -19.9951,110 -19.9951,135 z m 491.7627,-0.044 -187.0019,-22.99804 c 0,-25 -8.9952,-85 -19.9952,-135 -26,-120 -26,-180.00391 0,-194.00391 12,-6 33.003,-9.998047 48.003,-7.998047 23,2 25.998,7.007816 22.998,28.007817 -2,14 -3.9951,29.99511 -4.9951,34.99511 0,6 2.9941,10.99317 8.9941,12.99317 5,1 12,-13.99512 15,-34.99512 5,-34.999997 7.9942,-38.000977 38.9942,-41.000977 l 33.999,-3.002929 -5.9912,40.004886 c -6,47 7.9912,46.00781 20.9912,-1.99219 7,-25.999998 13.0068,-31.003907 32.0068,-29.003907 31,3 32.0059,4.991214 21.0059,35.991207 -9,21 -8.001,26.00098 3.999,26.00098 9,0 15,-8.99805 15,-22.99805 0,-29.999994 5.9922,-36.003903 31.9922,-29.003903 17,3.999993 19,11.008793 15,39.008793 -4,20 -2.001,30.99316 3.999,27.99316 5,-4 9.0088,-15.00098 9.0088,-26.00098 0,-22 10.9932,-23.9873 27.9932,-6.9873 28,28 19.0068,54.99707 -87.9932,236.99707 z" />
    <path
       d="m 929.89082,4355.7139 c -7,4 -9,-19 -4,-72 5,-64 1,-99 -20,-193 -33,-151 -44,-222 -52,-355 -7,-116 -32,-219 -86,-360 -71,-185 -99,-286 -108,-388 -11,-128 -76,-340 -115,-377 -14,-13 -27,-21 -30,-18 -3,3 6,43 19,89 13,46 23,86 21,87 -12,12 -25,-18 -41,-95 -18,-86 -39,-123 -69,-123 -19,0 -20,-2 14,113 16,53 25,100 20,103 -10,6 -9,9 -40,-111 -12,-49 -27,-96 -32,-102 -10,-14 -47,-18 -47,-5 0,11 48,205 56,226 5,13 3,17 -6,14 -12,-4 -60,-171 -60,-212 0,-15 -3,-16 -15,-6 -8,7 -15,29 -15,49 0,42 24,172 40,218 17,47 6,64 -15,23 -24,-48 -55,-80 -77,-80 -26,0 -23,12 28,110 43,84 77,124 148,175 36,25 50,96 65,320 16,221 26,279 66,384 34,91 35,94 44,319 9,202 13,236 36,312 23,72 26,95 20,153"
       id="path1-5" />
    <path
       d="m 2300.7758,4555.1718 c 4,-68 16,-155 28,-200 17,-62 23,-127 30,-295 8,-199 10,-219 34,-271 36,-81 54,-174 67,-339 24,-316 36,-371 90,-403 65,-39 98,-87 178,-260 2,-5 -9,-7 -24,-5 -27,3 -39,15 -80,84 -23,37 -22,8 1,-71 30,-105 37,-225 12,-225 -8,0 -20,39 -35,107 -22,105 -27,121 -37,111 -6,-6 33,-185 46,-211 12,-22 3,-37 -21,-37 -25,0 -32,16 -60,133 -13,53 -27,97 -32,97 -13,0 -10,-19 21,-122 26,-90 27,-98 10,-98 -20,0 -59,45 -59,69 0,32 -33,151 -42,151 -11,0 -4,-38 22,-123 16,-51 16,-58 3,-55 -29,6 -54,54 -94,184 -27,87 -43,161 -49,229 -9,100 -23,148 -115,400 -48,132 -63,192 -70,279 -13,168 -18,209 -47,356 -21,105 -31,182 -30,238 0,45 -1,82 -3,82"
       id="path1-1" />
  </g>
</svg>
