<?xml version="1.0" encoding="UTF-8" standalone="no"?>
<svg
   version="1.0"
   width="300pt"
   height="600pt"
   viewBox="0 0 300 600"
   preserveAspectRatio="xMidYMid"
   id="svg52"
   sodipodi:docname="Homme_Dos_svg.svg"
   inkscape:export-filename="Homme_testD.svg"
   inkscape:export-xdpi="96"
   inkscape:export-ydpi="96"
   xmlns:inkscape="http://www.inkscape.org/namespaces/inkscape"
   xmlns:sodipodi="http://sodipodi.sourceforge.net/DTD/sodipodi-0.dtd"
   xmlns="http://www.w3.org/2000/svg"
   xmlns:svg="http://www.w3.org/2000/svg">
  <defs
     id="defs52" />
  <sodipodi:namedview
     id="namedview52"
     pagecolor="#ffffff"
     bordercolor="#000000"
     borderopacity="0.25"
     inkscape:showpageshadow="2"
     inkscape:pageopacity="0.0"
     inkscape:pagecheckerboard="0"
     inkscape:deskcolor="#d1d1d1"
     inkscape:document-units="pt"
     showgrid="false">
    <inkscape:page
       x="0"
       y="0"
       width="300"
       height="600"
       id="page2"
       margin="0"
       bleed="0" />
  </sodipodi:namedview>
  <g
     transform="matrix(0.1,0,0,-0.1,0,600)"
     fill="#000000"
     stroke="none"
     id="g52">
    <path
       id="path57"
       d="m 1047.9346,3248.4668 c -2.8594,0.094 -4.6709,-0.1006 -5.1709,-0.6006 -8,-7 -43.99417,-298.9971 -53.99417,-431.9971 -13,-173 -11.00976,-217.0009 9.99024,-221.0009 121.00003,-20 179.00483,-24.002 310.00483,-22.002 l 154.9952,3.0029 1.0107,58.0079 c 0.9844,30.5156 0.019,56.1876 -1.9189,56.9824 -0.01,0 -0.036,0.013 -0.044,0.015 -0.01,8e-4 -0.036,0 -0.044,0 -3,0 -14.9932,-7 -27.9932,-15 -13,-9 -62.0098,-19.997 -110.0098,-26.997 -102,-13 -175.9882,-1.9981 -242.9882,37.0019 -66,39 -51.001,47.9971 18.999,11.9971 56,-29 68.9873,-32.0069 156.9873,-32.0069 66,0 112.0117,6.003 147.0117,18.003 57,20 73.9893,44.0068 73.9893,107.0068 0,22 5.0048,39.9902 10.0048,39.9902 6,0 10.0049,-17.9902 10.0049,-39.9902 0,-62 15.9932,-84.0107 72.9932,-106.0107 98,-36 274.0039,-22.9912 329.0039,24.0088 9,8 21.9932,11.9902 27.9932,9.9902 21,-7 -72.9942,-56.9942 -128.9942,-68.9942 -67,-14 -200.001,-0.9951 -251.001,25.0049 -18,9 -33.999,15.9961 -33.999,15.9961 -1,0 0.01,-26.0039 2.0069,-59.0039 l 3.999,-57.9931 151.9922,-2.0069 c 83,-1 183.0009,3.0088 221.0009,9.0088 119,18 109.001,1.9941 101.001,158.9941 -3,75 -10.9961,165.0059 -15.9961,201.0059 -5,36 -12,100.9902 -15,144.9902 -4,44 -15.997,116.0049 -26.997,160.0049 l -30,1.9922 c -177,-45 -611.0069,-47.9873 -812.0069,-6.9873 -20.25,4.5 -38.2529,7.3066 -46.831,7.5879 z m 939.3896,-665.9766 c -2.1328,0.012 -4.5742,-0.8652 -7.3242,-2.4902 -33,-18 -197.9971,-31.9932 -326.9971,-27.9932 l -133.0078,4.9952 v -135.9961 c 1,-75 5.0049,-199.0059 10.0049,-276.0059 32,-498 32.9961,-519.0049 15.9961,-640.0049 -20,-148 -20,-279.9961 0,-480.9961 20,-193.99998 14.0029,-501.5283 -11.9971,-626.5283 -1.7712,-1.40094 214.9951,-14.0039 214.9951,-14.0039 -17,33 -4.9941,205.5332 21.0059,291.5332 26,87 74.9961,322.00391 90.9961,434.0039 8,60 8.999,135 3.999,255 -16,333 -14.9912,349.9951 39.0088,544.9951 50,180 66.001,274.9961 86.001,495.9961 12.25,133.875 12.249,177.4131 -2.6807,177.4951 z m -995.43455,-4.1894 c -16.40698,0.092 -13.76953,-29.3584 3.10547,-213.2959 15.99998,-168 34.00388,-283 59.00388,-375 80,-287 86.0059,-330.0117 66.0059,-507.0117 -22,-197 -5.9981,-397.9932 52.0019,-642.9932 11,-47 23.9932,-101 27.9932,-120 4,-19 17.0039,-74.99512 29.0039,-124.99512 22,-97 27.001,-195 11.001,-225 -0.1829,-2.11697 210.9961,30 210.9961,30 -32,133 -39.0069,416.99414 -17.0069,623.99412 20,188 20,352.9961 0,480.9961 -16,105 -13.998,243.0049 7.002,475.0049 6,63 14.0068,218 17.0068,345 l 7.002,231.0059 -135,-3.9991 c -75,-2 -174.0049,0.9873 -220.0049,6.9873 -47,6 -95.0068,14.0069 -107.0068,17.0069 -4.37504,1.25 -8.06522,2.2827 -11.10355,2.2998 z" />
    <path
       d="m 1748.2379,384.8383 c 7,-12 43,-55.65912 82,-79.65912 69,-45 84,-70 56,-93 -24,-20 -238,-82 -283,-82 -35,0 -51,6 -70,25 -23,23 -25,32 -21,88 2,34 12,111.65912 21,155.65912 m -83,1.34088 c 12,-52 24,-122 26,-155 4,-51 1,-65 -18,-88 -20,-27 -25,-28 -83,-24 -64,5 -247,57 -271,77 -30,25 -16,49 55,96 38,24 74,53 80,64"
       id="path1-4"
       sodipodi:nodetypes="cccssccccccscc" />
    <path
       d="m 1655,5030 c 0,0 -12,-17 34,-28 27,-6 91,-30 142,-53 52,-23 137,-56 189,-74 157,-53 195,-81 248,-180 24,-45 26,-60 25,-145 0.9377,-2.705 -211,-136 -211,-136 -10,11 -22,-6 -22,-31 0,-14 -34,-141 -76,-282 l -75,-256 4,-260 c 3,-221 7,-272 25,-340 0,0 -84.127,5.0969 -159,-1 -164,-19 -516,-15 -651,6 -87,14 -88,15 -67,95 5,22 9,144 9,270 -1,255 1,244 -91,550 -23,77 -47,163 -53,192 -6,28 -15,55 -19,59 -0.32099,-0.592 -221,114 -221,114 -7,79 10,145 53,210 39,58 98,95 205,129 50,16 123,44 161,61 90,42 194,80 220,80 19,1 19,1 3,14 0,0 316.8525,9.2469 327,6 z"
       id="path54"
       sodipodi:nodetypes="sccccccscccccccccccccccccs" />
    <path
       d="m 2292.2678,4550.269 c -1,-75 4,-112 24,-180 22,-74 26,-113 33,-300 7,-199 9,-221 35,-290 49,-136 55,-162 65,-304 22,-309 37,-391 74,-421 13,-11 42,-34 64,-52 44,-36 138,-211 122,-227 -14,-14 -56,19 -81,64 -12,22 -26,40 -29,40 -4,0 1,-29 10,-64 31,-111 44,-210 31,-235 -14,-26 -31,-19 -31,12 0,40 -44,197 -53,188 -4,-4 5,-58 22,-122 23,-83 28,-115 19,-120 -28,-17 -46,12 -69,106 -23,97 -34,124 -43,114 -3,-3 7,-50 23,-105 16,-54 27,-102 24,-106 -2,-4 -15,-2 -28,4 -27,12 -37,38 -57,146 -7,41 -16,62 -25,62 -10,0 -12,-7 -8,-21 21,-66 44,-153 41,-156 -1,-2 -14,6 -28,17 -19,14 -35,50 -61,132 -43,133 -52,172 -66,295 -9,70 -27,135 -72,260 -91,253 -98,280 -109,425 -12,150 -21,213 -50,343 -24,111 -24,155 -1,267 10,48 16,90 13,92"
       id="path1-8" />
    <path
       d="m 907.85982,4417.0029 c -14,15 -6,-62 13,-126 22,-72 22,-83 -16,-265 -13,-66 -31,-193 -39,-282 -15,-178 -24,-216 -98,-413 -70,-191 -87,-252 -97,-361 -5,-52 -20,-129 -34,-170 -13,-40 -29,-93 -35,-116 -12,-44 -57,-107 -71,-98 -4,3 3,42 16,87 12,45 21,85 18,87 -9,10 -21,-20 -39,-100 -14,-60 -25,-85 -43,-100 -13,-10 -28,-17 -32,-14 -4,2 6,48 21,102 32,109 33,113 20,113 -4,0 -20,-46 -35,-102 -28,-104 -48,-137 -72,-117 -10,8 -10,18 1,50 8,21 12,39 10,39 -2,0 5,32 16,71 11,39 17,74 14,77 -11,11 -21,-17 -40,-113 -10,-53 -22,-98 -26,-101 -35,-21 -27,130 12,243 21,63 23,73 11,73 -5,0 -17,-18 -27,-40 -20,-43 -58,-75 -81,-66 -23,9 78,199 124,234 91,70 93,73 102,147 5,39 16,150 25,249 20,219 27,259 66,361 30,77 32,89 40,290 8,212 16,269 45,359 12,36 15,67 10,116"
       id="path1-9" />
    <path
       id="path53"
       d="m 1487.5049,5888.6279 c -33.5,-0.125 -67.0078,-4.623 -95.5078,-13.623 -112,-35 -162.9951,-119.0049 -169.9951,-280.0049 -2,-56 1.0019,-137.999 7.0019,-183.999 11,-82 10.9941,-83.0059 68.9941,-141.0059 68,-69 126.9961,-98.9902 195.9961,-99.9902 67,0 119.0127,27.0019 188.0127,97.0019 L 1740,5325 l 11.001,131.9971 c 22,260 -25.003,376.0039 -168.003,419.0039 -28.5,8.5 -61.9931,12.7519 -95.4931,12.6269 z m 294.7998,-357.2607 c -1.1418,-0.084 -1.9561,-1.1348 -2.2998,-3.3692 -1,-2 -3.0098,-24.998 -5.0098,-52.998 -2,-27 -6.9902,-69.999 -9.9902,-93.999 -6,-39 -5.002,-43.0069 7.998,-32.0069 21,16 39.9922,103.0098 31.9922,140.0098 -4.1406,20.7031 -17.1889,42.7697 -22.6904,42.3633 z m -591.6943,-5.874 c -2.2097,-0.069 -4.754,-5.667 -8.6133,-12.4952 -22,-39 -8.9912,-126.997 24.0088,-161.997 10,-11 11.998,-6.9951 7.998,25.0049 -14.7656,118.8281 -18.1603,149.6514 -23.3935,149.4873 z m 64.2041,-231.1084 c -5.5921,-0.1407 3.2314,-19.9073 26.2939,-59.2823 26,-43 30,-59.999 30,-123.999 0,-58 4.0029,-76.9971 18.0029,-86.9971 16,-13 293.9971,5.9913 326.9971,5.9913 12,0 15,15 15,75 0,65 4,82.0127 30,128.0127 17,30 30,57 30,60 0,4 -28.0068,-21.001 -62.0068,-56.001 -48,-49 -73.9912,-67.0069 -110.9912,-77.0069 -66,-18 -140.0059,-6.999 -186.0059,26.001 -20,15 -55.0029,47.0078 -78.0029,73.0078 -21.875,23.625 -34.9378,35.3828 -39.2871,35.2735 z" />
  </g>
</svg>
