<?xml version="1.0" encoding="UTF-8" standalone="no"?>
<svg
   version="1.0"
   width="300pt"
   height="600pt"
   viewBox="0 0 300 600"
   preserveAspectRatio="xMidYMid"
   id="svg52"
   sodipodi:docname="Homme_Dos_svg.svg"
   xmlns:inkscape="http://www.inkscape.org/namespaces/inkscape"
   xmlns:sodipodi="http://sodipodi.sourceforge.net/DTD/sodipodi-0.dtd"
   xmlns="http://www.w3.org/2000/svg"
   xmlns:svg="http://www.w3.org/2000/svg">
  <defs
     id="defs52" />
  <sodipodi:namedview
     id="namedview52"
     pagecolor="#ffffff"
     bordercolor="#000000"
     borderopacity="0.25"
     inkscape:showpageshadow="2"
     inkscape:pageopacity="0.0"
     inkscape:pagecheckerboard="0"
     inkscape:deskcolor="#d1d1d1"
     inkscape:document-units="pt"
     showgrid="false">
    <inkscape:page
       x="0"
       y="0"
       width="300"
       height="600"
       id="page2"
       margin="0"
       bleed="0" />
  </sodipodi:namedview>
  <g
     transform="matrix(0.1,0,0,-0.1,0,600)"
     fill="#000000"
     stroke="none"
     id="g52">
    <path
       d="m 1246,5777 c -25,-42 -30,-60 -34,-135 -4,-76 -7,-90 -28,-110 -40,-38 -31,-153 15,-200 15,-15 43,-61 64,-103 30,-62 37,-86 37,-137 v -61 l -46,-21 c -26,-11 -51,-20 -57,-20 -5,0 -36,-13 -68,-30 -93.5459,-45.3556 -34.4573,-18.3227 -90.5302,-41.3096 C 1018.9512,4910.6888 977,4894 944,4887 826,4859 745,4799 696,4703 c -23,-46 -26,-64 -26,-156 0,-77 -5,-121 -20,-167 -29,-92 -36,-145 -39,-339 -3,-173 -3,-175 -41,-280 -40,-112 -47,-144 -55,-256 -14,-198 -20,-260 -31,-323 -2,-12 -5,-32 -7,-45 -8,-45 -18,-63 -44,-79 -53,-32 -103,-94 -147,-184 -24,-50 -41,-96 -37,-101 11,-18 36,-20 65,-6 28,15 29,14 21,-9 -4,-12 -10,-58 -12,-101 -4,-63 -2,-82 11,-96 12.10433,-22.8493 10.45715,-21.5555 32,-32 19,-15 103,-4 133,19 15,10 36,22 48,26 27,9 57,56 73,116 7,25 16,54 20,65 32,80 41,115 45,183 8,107 21,163 71,302 12,36 34,97 48,135 13,39 28,79 32,90 4,11 8,25 9,30 2,6 10,34 19,64 9,30 16,91 16,135 0,45 5,108 10,141 9,59 11,73 30,170 5,28 15,76 21,108 9,52 29,71 29,28 0,-10 11,-49 24,-87 30.1984,-96.5876 52.738,-194.4907 54,-296 1,-68 4,-159 7,-203 4,-48 2,-108 -5,-150 -7,-38 -13,-77 -14,-85 -5.5784,-33.5703 -10.1102,-61.843 -17,-96 -6,-21 -10,-46 -11,-54 0,-8 -9,-80 -19,-159 -14,-108 -19,-207 -19,-390 0,-245 7,-349 35,-491 26.146,-110.5762 47.3171,-218.14 80,-324 28,-82 34,-160 22,-276 -25.7711,-168.7246 -9.9742,-320.924 8,-485 18.1522,-127.31098 5.4943,-52.42257 19,-122 3,-22 12.2108,-51.39793 15,-66 5.0564,-26.47181 19,-89 26,-117 7.137,-56.61489 33.4851,-106.87948 41,-165 11,-92 14,-191 7,-201 -4,-6 -33,-27 -64,-47 -80,-53 -95,-71 -83,-104 11,-32 30,-42 147,-78 153,-46 234,-44 258,9 l 12,25 33,-36 c 33,-35 36,-36 92,-31 60,6 202,47 260,75 68,34 48,86 -55,145 -29,16 -55,39 -59,51 -20,59 3,239 46,372 11,33 22,80 24,105 3,25 9,65 16,90 6,25 13,60 16,79 34.3357,126.1772 22.3616,258.8134 18,389 -1,26 -4,81 -9,122 -5,41 -8,77 -8,80 0,3 3,31 7,64 3,32 11,77 17,100 6,22 12,46 14,51 1,6 4,17 8,25 19,52 61,240 72,324 7,54 20.5635,190.0865 25,229 16,130 9,396 -14,577 -30,232 -35,265 -51,320 0.2174,180.5871 -29.3542,381.8594 -12,545 6.7247,69.4887 17.1585,56.7511 65,220 30,99 30,100 37,60 4,-22 11,-53 15,-70 13,-43 40,-217 45,-294 11,-142 29,-240 60,-331 19,-52 52,-147 74,-210 25,-72 45,-149 52,-205 12,-103 38,-215 68,-294 17.8752,-59.6382 28.9279,-123.1069 89,-158 9,-4 29,-15 43,-26 14,-10 37,-20 50,-21 13,-2 34,-6 45,-10 17,-5 29,2 58,34 41,45 43,64 21,155 -8,33 -14,63 -15,67 0,4 15,1 33,-7 35,-14 53,-10 58,15 5,26 -81,188 -122,230 -110.263,85.4605 -113.5817,117.0234 -124,270 -16,269 -36,396 -80,494 -21,45 -24,73 -30,236 -7,194 -15,260 -45,376 -13,48 -18,98 -17,160 2,82 -1,94 -29,154 -18,36 -44,77 -58,93 -35,36 -128,82 -195,96 -29,6 -83,26 -120,45 -36,18 -88,40 -116,49 -27,10 -63,25 -80,35 -29,18 -30,21 -29,93 0,63 4,80 27,113 15,21 27,45 27,52 0,8 16,32 35,53 62,68 72,187 18,209 -15,6 -18,20 -19,77 -2,88 -34,174 -80,219 -156.0356,123.6511 -333.3417,100.2751 -448,-57 z m 337,99 c 143,-43 190,-159 168,-419 l -11,-132 -58,-58 c -69,-70 -121,-97 -188,-97 -69,1 -128,31 -196,100 -58,58 -58,59 -69,141 -6,46 -9,128 -7,184 7,161 58,245 170,280 57,18 134,18 191,1 z m -369,-500 c 4,-32 2,-36 -8,-25 -33,35 -46,123 -24,162 13,23 11,32 32,-137 z m 591,113 c 8,-37 -11,-124 -32,-140 -13,-11 -14,-7 -8,32 3,24 8,67 10,94 2,28 4,51 5,53 2,13 20,-14 25,-39 z m -434,-303 c 46,-33 120,-44 186,-26 37,10 63,28 111,77 34,35 62,60 62,56 0,-3 -13,-30 -30,-60 -26,-46 -30,-63 -30,-128 0,-60 -3,-75 -15,-75 -33,0 -12,-17 34,-28 27,-6 91,-30 142,-53 52,-23 137,-56 189,-74 157,-53 195,-81 248,-180 24,-45 26,-60 25,-145 -1,-75 4,-112 24,-180 22,-74 26,-113 33,-300 7,-199 9,-221 35,-290 49,-136 55,-162 65,-304 22,-309 37,-391 74,-421 13,-11 42,-34 64,-52 44,-36 138,-211 122,-227 -14,-14 -56,19 -81,64 -12,22 -26,40 -29,40 -4,0 1,-29 10,-64 31,-111 44,-210 31,-235 -14,-26 -31,-19 -31,12 0,40 -44,197 -53,188 -4,-4 5,-58 22,-122 23,-83 28,-115 19,-120 -28,-17 -46,12 -69,106 -23,97 -34,124 -43,114 -3,-3 7,-50 23,-105 16,-54 27,-102 24,-106 -2,-4 -15,-2 -28,4 -27,12 -37,38 -57,146 -7,41 -16,62 -25,62 -10,0 -12,-7 -8,-21 21,-66 44,-153 41,-156 -1,-2 -14,6 -28,17 -19,14 -35,50 -61,132 -43,133 -52,172 -66,295 -9,70 -27,135 -72,260 -91,253 -98,280 -109,425 -12,150 -21,213 -50,343 -24,111 -24,155 -1,267 10,48 16,90 13,92 -10,11 -22,-6 -22,-31 0,-14 -34,-141 -76,-282 l -75,-256 4,-260 c 3,-221 7,-272 25,-340 11,-44 23,-116 27,-160 3,-44 10,-109 15,-145 5,-36 13,-126 16,-201 8,-157 18,-141 -101,-159 -38,-6 -138,-10 -221,-9 l -152,2 -4,58 c -2,33 -3,59 -2,59 0,0 16,-7 34,-16 51,-26 184,-39 251,-25 56,12 150,62 129,69 -6,2 -19,-2 -28,-10 -55,-47 -231,-60 -329,-24 -57,22 -73,44 -73,106 0,22 -4,40 -10,40 -5,0 -10,-18 -10,-40 0,-63 -17,-87 -74,-107 -35,-12 -81,-18 -147,-18 -88,0 -101,3 -157,32 -70,36 -85,27 -19,-12 67,-39 141,-50 243,-37 48,7 97,18 110,27 13,8 25,15 28,15 2,0 3,-26 2,-57 l -1,-58 -155,-3 c -131,-2 -189,2 -310,22 -21,4 -23,48 -10,221 10,133 46,425 54,432 2,2 25,-1 52,-7 201,-41 635,-38 812,7 56,14 3,13 -129,-3 -164,-19 -516,-15 -651,6 -87,14 -88,15 -67,95 5,22 9,144 9,270 -1,255 1,244 -91,550 -23,77 -47,163 -53,192 -6,28 -15,55 -19,59 -14,15 -6,-62 13,-126 22,-72 22,-83 -16,-265 -13,-66 -31,-193 -39,-282 -15,-178 -24,-216 -98,-413 -70,-191 -87,-252 -97,-361 -5,-52 -20,-129 -34,-170 -13,-40 -29,-93 -35,-116 -12,-44 -57,-107 -71,-98 -4,3 3,42 16,87 12,45 21,85 18,87 -9,10 -21,-20 -39,-100 -14,-60 -25,-85 -43,-100 -13,-10 -28,-17 -32,-14 -4,2 6,48 21,102 32,109 33,113 20,113 -4,0 -20,-46 -35,-102 -28,-104 -48,-137 -72,-117 -10,8 -10,18 1,50 8,21 12,39 10,39 -2,0 5,32 16,71 11,39 17,74 14,77 -11,11 -21,-17 -40,-113 -10,-53 -22,-98 -26,-101 -35,-21 -27,130 12,243 21,63 23,73 11,73 -5,0 -17,-18 -27,-40 -20,-43 -58,-75 -81,-66 -23,9 78,199 124,234 91,70 93,73 102,147 5,39 16,150 25,249 20,219 27,259 66,361 30,77 32,89 40,290 8,212 16,269 45,359 12,36 15,67 10,116 -7,79 10,145 53,210 39,58 98,95 205,129 50,16 123,44 161,61 90,42 194,80 220,80 19,1 19,1 3,14 -14,10 -18,29 -18,87 0,64 -4,81 -30,124 -41,70 -37,78 13,24 23,-26 58,-58 78,-73 z m 133,-2763 c 4,-164 9,-316 10,-338 2,-22 9,-138 16,-257 10,-175 9,-232 -1,-290 -13,-76 -17,-409 -6,-508 23,-205 27,-264 22,-335 -14,-197 -27,-313 -37,-355 l -12,-44 -13,49 c -16,59 -40,211 -44,275 -8,146 -3,251 22,459 15,122 12,302 -6,421 -18,118 -16,241 11,535 10,112 14,235 14,468 0,119 4,217 8,217 5,0 12,-134 16,-297 z m 486,-18 c -20,-221 -36,-316 -86,-496 -54,-195 -55,-212 -39,-545 5,-120 4,-195 -4,-255 -16,-112 -65,-347 -91,-434 -26,-86 -38,-271 -21,-304 7,-12 43,-42 82,-66 69,-45 84,-70 56,-93 -24,-20 -238,-82 -283,-82 -35,0 -51,6 -70,25 -23,23 -25,32 -21,88 2,34 12,98 21,142 26,125 32,445 12,639 -20,201 -20,333 0,481 17,121 16,142 -16,640 -5,77 -9,201 -10,276 v 136 l 133,-5 c 129,-4 294,10 327,28 22,13 24,-22 10,-175 z m -880,154 c 46,-6 145,-9 220,-7 l 135,4 -7,-231 c -3,-127 -11,-282 -17,-345 -21,-232 -23,-370 -7,-475 20,-128 20,-293 0,-481 -22,-207 -15,-491 17,-624 12,-52 24,-122 26,-155 4,-51 1,-65 -18,-88 -20,-27 -25,-28 -83,-24 -64,5 -247,57 -271,77 -30,25 -16,49 55,96 38,24 74,53 80,64 16,30 11,128 -11,225 -12,50 -25,106 -29,125 -4,19 -17,73 -28,120 -58,245 -74,446 -52,643 20,177 14,220 -66,507 -25,92 -43,207 -59,375 -20,218 -20,219 8,211 12,-3 60,-11 107,-17 z"
       id="path2"
       sodipodi:nodetypes="cccccsccscsccscccccccccccccccscccccscsscccsccccccccscccccsccccccccccccccccccssccccccccccccccccccccccccccccccccccccccccsccccccccccccccccccccccccccccscssccccccccccsscsccssccccccccsccccccccccscccccsccccccccsccssscsccccscccccccccccccccccccccccccccccscccssscccscsccccccccccccsccccccccccccccccsscccccccccsscccccccccccccccccccccscccscccccc" />
    <path
       d="m 1580,4419 c 0,-144 11,-197 46,-230 30,-28 31,-11 2,26 -19,24 -22,43 -26,176 -3,82 -9,152 -13,155 -5,3 -9,-54 -9,-127 z"
       id="path4"
       sodipodi:nodetypes="sccccs" />
    <path
       d="m 1396,4508 c -3,-18 -7,-83 -10,-145 -4,-110 -20,-166 -48,-176 -7,-2 -10,-8 -5,-12 11,-13 53,31 64,68 5,18 11,92 12,165 2,128 -3,167 -13,100 z"
       id="path5"
       sodipodi:nodetypes="ccccccc" />
    <path
       d="m 1486,3944 c -11,-28 -7,-504 4,-504 6,0 10,93 10,260 0,143 -2,260 -4,260 -2,0 -7,-7 -10,-16 z"
       id="path6"
       sodipodi:nodetypes="csssc" />
    <path
       d="m 690,3672 c 0,-15 24,-32 46,-32 12,0 32,9 45,20 27,22 22,25 -16,8 -19,-8 -31,-8 -50,0 -14,6 -25,8 -25,4 z"
       id="path8"
       sodipodi:nodetypes="sscccs" />
    <path
       d="m 2199,3661 c 24,-21 47,-26 75,-15 28,11 17,22 -21,21 -21,-1 -47,2 -58,7 -17,7 -17,5 4,-13 z"
       id="path9"
       sodipodi:nodetypes="csccc" />
    <path
       d="m 1643,1673 c -28,-11 -11,-21 26,-16 22,3 53,1 70,-5 17,-6 33,-7 36,-2 11,18 -99,37 -132,23 z"
       id="path11"
       sodipodi:nodetypes="ccscc" />
    <path
       d="m 1230,1666 c -33,-12 -30,-13 48,-12 68,1 79,3 65,14 -21,15 -67,14 -113,-2 z"
       id="path12"
       sodipodi:nodetypes="cccc" />
  </g>
</svg>
